<svg width="120" height="60" viewBox="0 0 120 60" fill="none" xmlns="http://www.w3.org/2000/svg">
<path d="M120 0H0V60H120V0Z" fill="white"/>
<path d="M39 36.7911H41.5124L43.1734 32.906H49.7762L51.4581 36.7911H53.9912L47.5545 21.9608H45.4367L39 36.7911ZM46.4748 25.2611L48.8419 30.7337H44.1078L46.4748 25.2611ZM56.7624 24.0705C57.6137 24.0705 58.2782 23.3812 58.2782 22.5248C58.2782 21.6893 57.6137 21 56.7624 21C55.9319 21 55.226 21.6893 55.226 22.5248C55.226 23.3812 55.9319 24.0705 56.7624 24.0705ZM55.6205 36.7911H57.9044V26.3473H55.6205V36.7911ZM60.9736 36.7911H63.2575V31.6945C63.2575 29.6057 64.441 28.4987 65.7491 28.4987C66.1644 28.4987 66.4966 28.5405 66.8911 28.6867V26.3264C66.6212 26.2637 66.3098 26.2428 65.9983 26.2428C64.8148 26.2428 63.652 27.0157 63.2575 28.2063V26.3473H60.9736V36.7911ZM68.8612 36.7911H71.1452V21.1253H68.8612V36.7911ZM75.3563 24.0705C76.2076 24.0705 76.872 23.3812 76.872 22.5248C76.872 21.6893 76.2076 21 75.3563 21C74.5257 21 73.8198 21.6893 73.8198 22.5248C73.8198 23.3812 74.5257 24.0705 75.3563 24.0705ZM74.2143 36.7911H76.4983V26.3473H74.2143V36.7911ZM79.5674 36.7911H81.8514V31.6527C81.8514 29.3969 83.0141 28.2272 84.5298 28.2272C85.8587 28.2272 86.6892 29.2089 86.6892 30.8799V36.7911H88.9732V30.5039C88.9732 27.8512 87.416 26.1384 85.0074 26.1384C83.6578 26.1384 82.495 26.7023 81.8514 27.7676V26.3473H79.5674V36.7911ZM96.5882 37C98.7684 37 100.388 36.0809 101.322 34.577L99.5782 33.3238C99.0175 34.2428 98.0832 34.9112 96.609 34.9112C94.8648 34.9112 93.5152 33.8042 93.4114 32.0705H101.572C101.592 31.7363 101.592 31.5483 101.592 31.3185C101.592 27.9556 99.3291 26.1384 96.5882 26.1384C93.4322 26.1384 91.169 28.4987 91.169 31.5692C91.169 34.765 93.4322 37 96.5882 37ZM93.5152 30.3995C93.8474 28.8538 95.1555 28.0809 96.5052 28.0809C97.834 28.0809 99.0383 28.8956 99.2874 30.3995H93.5152ZM107.242 37C109.38 37 111 35.7676 111 33.7624C111 32.0287 109.92 31.1514 108.093 30.5875L107.034 30.2742C106.017 29.9608 105.788 29.5431 105.788 29.0418C105.788 28.3943 106.494 28.0601 107.18 28.0601C108.031 28.0601 108.675 28.4778 109.152 29.1253L110.73 27.9138C110.003 26.7441 108.799 26.1384 107.221 26.1384C105.145 26.1384 103.504 27.2872 103.504 29.1253C103.484 30.6919 104.397 31.8198 106.224 32.3211L107.138 32.5718C108.384 32.9687 108.737 33.3029 108.737 33.9086C108.737 34.6397 108.052 35.0157 107.242 35.0157C106.183 35.0157 105.165 34.4935 104.75 33.5744L103.068 34.7859C103.816 36.2898 105.394 37 107.242 37Z" fill="#9E9B9B"/>
<mask id="mask0" mask-type="alpha" maskUnits="userSpaceOnUse" x="8" y="14" width="30" height="29">
<path d="M37.2988 14H8.57922V42.7196H37.2988V14Z" fill="white"/>
<path d="M22.9392 14.9573C15.5489 14.9573 9.53656 20.9697 9.53656 28.3598C9.53656 35.7499 15.5489 41.7623 22.9392 41.7623C30.3292 41.7623 36.3415 35.7499 36.3415 28.3598C36.3415 20.9697 30.3292 14.9573 22.9392 14.9573ZM22.9392 15.8321C26.1081 15.8321 29.0037 17.0171 31.2123 18.9641L28.2209 21.9555H27.4767C27.4722 21.9493 27.4714 21.9417 27.4666 21.9356L26.0368 20.1433C25.6251 19.6271 25.01 19.3311 24.3496 19.3311H22.6171C21.8932 19.3311 21.2212 19.691 20.8196 20.2937L19.7138 21.9554H19.2165V21.0806C19.2165 20.8391 19.0209 20.6432 18.7791 20.6432H16.1548C15.9131 20.6432 15.7174 20.8391 15.7174 21.0806V21.9554H15.4927C14.6517 21.9554 13.9679 22.6395 13.9679 23.48V33.9898C13.9679 34.5892 14.3187 35.1039 14.8232 35.3527L13.5432 36.633C11.5962 34.4244 10.4113 31.5287 10.4113 28.3598C10.4113 21.4519 16.0311 15.8321 22.9392 15.8321ZM15.4929 34.6398C15.1346 34.6398 14.8429 34.3483 14.8429 33.99V27.6416H18.3335C18.2969 27.8763 18.2723 28.115 18.2723 28.3598C18.2723 29.3602 18.5917 30.2859 19.1297 31.0466L15.5365 34.6398H15.4929ZM20.8245 28.3598C20.8245 27.194 21.7732 26.2453 22.9392 26.2453C23.2315 26.2453 23.5101 26.3051 23.7635 26.4129L20.9922 29.1841C20.8842 28.9307 20.8245 28.6521 20.8245 28.3598ZM25.0536 28.3598C25.0536 29.5256 24.1049 30.4743 22.9392 30.4743C22.3854 30.4743 21.8847 30.2557 21.5074 29.906L24.4853 26.928C24.8349 27.3054 25.0536 27.8061 25.0536 28.3598ZM20.8863 30.5271C21.4224 31.0351 22.1441 31.3491 22.9392 31.3491C24.5875 31.3491 25.9284 30.0081 25.9284 28.3598C25.9284 27.5647 25.6145 26.843 25.1064 26.3069L25.6737 25.7396C26.327 26.4212 26.731 27.3434 26.731 28.3598C26.731 30.4509 25.0301 32.1519 22.9392 32.1519C21.9228 32.1519 21.0006 31.7476 20.3189 31.0944L20.8863 30.5271ZM24.4137 25.7627C23.978 25.5143 23.4756 25.3705 22.9392 25.3705C21.2909 25.3705 19.9497 26.7115 19.9497 28.3598C19.9497 28.8962 20.0936 29.3987 20.3419 29.8343L19.7585 30.4177C19.3733 29.8243 19.147 29.1186 19.147 28.3598C19.147 26.2687 20.8483 24.5676 22.9391 24.5676C23.6978 24.5676 24.4036 24.7939 24.997 25.1792L24.4137 25.7627ZM19.7006 31.7127C20.5408 32.5244 21.6815 33.0267 22.9392 33.0267C25.5123 33.0267 27.6058 30.9332 27.6058 28.3598C27.6058 28.115 27.5812 27.8763 27.5446 27.6416H27.8874C28.1247 28.106 28.6026 28.4279 29.1588 28.4279C29.7149 28.4279 30.193 28.1059 30.4302 27.6416H31.4637V33.99C31.4637 34.3483 31.1719 34.6398 30.8136 34.6398H16.7735L19.7006 31.7127ZM28.6009 26.9954C28.6009 26.688 28.8513 26.4376 29.1588 26.4376C29.4664 26.4376 29.7167 26.6878 29.7167 26.9954C29.7167 27.3031 29.4664 27.5531 29.1588 27.5531C28.8513 27.5531 28.6009 27.3031 28.6009 26.9954ZM31.4637 26.7668H30.5683C30.4578 26.0858 29.8702 25.5629 29.1588 25.5629C28.4475 25.5629 27.8598 26.0858 27.7494 26.7668H27.3198C27.0936 26.1467 26.7422 25.5873 26.292 25.1214L28.583 22.8303H30.8135C31.1718 22.8303 31.4635 23.1218 31.4635 23.4801V26.7668H31.4637ZM25.6259 24.5504C24.8655 24.0124 23.9396 23.6929 22.9392 23.6929C20.9259 23.6929 19.2115 24.9768 18.5583 26.7668H14.8429V23.4801C14.8429 23.1218 15.1346 22.8303 15.4929 22.8303H27.346L25.6259 24.5504ZM18.342 21.9555H16.5924V21.5181H18.342V21.9555ZM20.7653 21.9555L21.5481 20.7785C21.787 20.42 22.1868 20.206 22.6172 20.206H24.3496C24.7421 20.206 25.1082 20.3822 25.353 20.6891L26.363 21.9555H20.7653ZM22.9392 40.8875C19.5143 40.8875 16.4071 39.5048 14.1434 37.2699L15.8987 35.5146H30.8135C31.6545 35.5146 32.3383 34.8305 32.3383 33.99V23.4802C32.3383 22.6396 31.6545 21.9556 30.8135 21.9556H29.4578L31.8492 19.5642C34.0841 21.8279 35.4667 24.9351 35.4667 28.3599C35.4667 35.2677 29.847 40.8875 22.9392 40.8875Z" fill="black"/>
</mask>
<g mask="url(#mask0)">
<path d="M23.5002 15C16.0561 15 10 21.0561 10 28.5C10 35.9439 16.0561 42 23.5002 42C30.9439 42 37 35.9439 37 28.5C37 21.0561 30.9439 15 23.5002 15ZM23.5002 15.8812C26.6921 15.8812 29.6087 17.0748 31.8335 19.0359L28.8203 22.0491H28.0707C28.0662 22.0429 28.0653 22.0352 28.0605 22.0291L26.6203 20.2237C26.2056 19.7038 25.586 19.4056 24.9209 19.4056H23.1757C22.4465 19.4056 21.7697 19.7681 21.3652 20.3752L20.2513 22.049H19.7504V21.1679C19.7504 20.9246 19.5534 20.7273 19.3098 20.7273H16.6664C16.4229 20.7273 16.2258 20.9246 16.2258 21.1679V22.049H15.9995C15.1524 22.049 14.4636 22.7381 14.4636 23.5847V34.171C14.4636 34.7747 14.8169 35.2932 15.3251 35.5438L14.0358 36.8335C12.0747 34.6088 10.8811 31.692 10.8811 28.5C10.8811 21.5418 16.5418 15.8812 23.5002 15.8812ZM15.9997 34.8257C15.6388 34.8257 15.3449 34.5321 15.3449 34.1712V27.7766H18.8609C18.8241 28.013 18.7993 28.2534 18.7993 28.5C18.7993 29.5077 19.121 30.4401 19.6629 31.2064L16.0436 34.8257H15.9997ZM21.3701 28.5C21.3701 27.3257 22.3257 26.3701 23.5002 26.3701C23.7946 26.3701 24.0752 26.4304 24.3304 26.5389L21.539 29.3303C21.4303 29.0751 21.3701 28.7945 21.3701 28.5ZM25.6299 28.5C25.6299 29.6743 24.6743 30.6299 23.5002 30.6299C22.9424 30.6299 22.438 30.4097 22.0579 30.0574L25.0575 27.0578C25.4097 27.4379 25.6299 27.9423 25.6299 28.5ZM21.4323 30.683C21.9723 31.1948 22.6993 31.5111 23.5002 31.5111C25.1605 31.5111 26.5111 30.1603 26.5111 28.5C26.5111 27.6992 26.1949 26.9722 25.6831 26.4322L26.2546 25.8608C26.9126 26.5473 27.3195 27.4762 27.3195 28.5C27.3195 30.6063 25.6063 32.3197 23.5002 32.3197C22.4764 32.3197 21.5474 31.9125 20.8608 31.2545L21.4323 30.683ZM24.9854 25.884C24.5465 25.6339 24.0405 25.4889 23.5002 25.4889C21.8399 25.4889 20.4889 26.8397 20.4889 28.5C20.4889 29.0403 20.6339 29.5464 20.884 29.9853L20.2964 30.5729C19.9083 29.9752 19.6804 29.2643 19.6804 28.5C19.6804 26.3937 21.3941 24.6803 23.5001 24.6803C24.2643 24.6803 24.9753 24.9081 25.5729 25.2963L24.9854 25.884ZM20.238 31.8773C21.0843 32.6949 22.2333 33.2009 23.5002 33.2009C26.092 33.2009 28.2007 31.0921 28.2007 28.5C28.2007 28.2534 28.1759 28.013 28.1391 27.7766H28.4844C28.7234 28.2444 29.2048 28.5687 29.7651 28.5687C30.3252 28.5687 30.8068 28.2443 31.0456 27.7766H32.0867V34.1712C32.0867 34.5321 31.7928 34.8257 31.4318 34.8257H17.2896L20.238 31.8773ZM29.2031 27.1257C29.2031 26.8161 29.4552 26.5638 29.7651 26.5638C30.0749 26.5638 30.327 26.8159 30.327 27.1257C30.327 27.4356 30.0749 27.6875 29.7651 27.6875C29.4552 27.6875 29.2031 27.4356 29.2031 27.1257ZM32.0867 26.8954H31.1848C31.0735 26.2094 30.4816 25.6827 29.7651 25.6827C29.0485 25.6827 28.4565 26.2094 28.3453 26.8954H27.9127C27.6848 26.2709 27.3308 25.7073 26.8773 25.238L29.185 22.9303H31.4317C31.7927 22.9303 32.0865 23.2239 32.0865 23.5848V26.8954H32.0867ZM26.2065 24.6629C25.4404 24.121 24.5079 23.7992 23.5002 23.7992C21.4722 23.7992 19.7454 25.0924 19.0874 26.8954H15.3449V23.5848C15.3449 23.2239 15.6388 22.9303 15.9997 22.9303H27.939L26.2065 24.6629ZM18.8695 22.0491H17.1072V21.6085H18.8695V22.0491ZM21.3104 22.0491L22.099 20.8635C22.3396 20.5024 22.7423 20.2869 23.1758 20.2869H24.9209C25.3162 20.2869 25.685 20.4643 25.9315 20.7735L26.9489 22.0491H21.3104ZM23.5002 41.1188C20.0504 41.1188 16.9205 39.7261 14.6403 37.475L16.4084 35.7069H31.4317C32.2789 35.7069 32.9676 35.0178 32.9676 34.1712V23.5849C32.9676 22.7382 32.2789 22.0492 31.4317 22.0492H30.0662L32.475 19.6404C34.7261 21.9206 36.1188 25.0504 36.1188 28.5001C36.1188 35.4582 30.4582 41.1188 23.5002 41.1188Z" fill="#9E9B9B"/>
<path d="M23.5002 15C16.0561 15 10 21.0561 10 28.5C10 35.9439 16.0561 42 23.5002 42C30.9439 42 37 35.9439 37 28.5C37 21.0561 30.9439 15 23.5002 15ZM23.5002 15.8812C26.6921 15.8812 29.6087 17.0748 31.8335 19.0359L28.8203 22.0491H28.0707C28.0662 22.0429 28.0653 22.0352 28.0605 22.0291L26.6203 20.2237C26.2056 19.7038 25.586 19.4056 24.9209 19.4056H23.1757C22.4465 19.4056 21.7697 19.7681 21.3652 20.3752L20.2513 22.049H19.7504V21.1679C19.7504 20.9246 19.5534 20.7273 19.3098 20.7273H16.6664C16.4229 20.7273 16.2258 20.9246 16.2258 21.1679V22.049H15.9995C15.1524 22.049 14.4636 22.7381 14.4636 23.5847V34.171C14.4636 34.7747 14.8169 35.2932 15.3251 35.5438L14.0358 36.8335C12.0747 34.6088 10.8811 31.692 10.8811 28.5C10.8811 21.5418 16.5418 15.8812 23.5002 15.8812ZM15.9997 34.8257C15.6388 34.8257 15.3449 34.5321 15.3449 34.1712V27.7766H18.8609C18.8241 28.013 18.7993 28.2534 18.7993 28.5C18.7993 29.5077 19.121 30.4401 19.6629 31.2064L16.0436 34.8257H15.9997ZM21.3701 28.5C21.3701 27.3257 22.3257 26.3701 23.5002 26.3701C23.7946 26.3701 24.0752 26.4304 24.3304 26.5389L21.539 29.3303C21.4303 29.0751 21.3701 28.7945 21.3701 28.5ZM25.6299 28.5C25.6299 29.6743 24.6743 30.6299 23.5002 30.6299C22.9424 30.6299 22.438 30.4097 22.0579 30.0574L25.0575 27.0578C25.4097 27.4379 25.6299 27.9423 25.6299 28.5ZM21.4323 30.683C21.9723 31.1948 22.6993 31.5111 23.5002 31.5111C25.1605 31.5111 26.5111 30.1603 26.5111 28.5C26.5111 27.6992 26.1949 26.9722 25.6831 26.4322L26.2546 25.8608C26.9126 26.5473 27.3195 27.4762 27.3195 28.5C27.3195 30.6063 25.6063 32.3197 23.5002 32.3197C22.4764 32.3197 21.5474 31.9125 20.8608 31.2545L21.4323 30.683ZM24.9854 25.884C24.5465 25.6339 24.0405 25.4889 23.5002 25.4889C21.8399 25.4889 20.4889 26.8397 20.4889 28.5C20.4889 29.0403 20.6339 29.5464 20.884 29.9853L20.2964 30.5729C19.9083 29.9752 19.6804 29.2643 19.6804 28.5C19.6804 26.3937 21.3941 24.6803 23.5001 24.6803C24.2643 24.6803 24.9753 24.9081 25.5729 25.2963L24.9854 25.884ZM20.238 31.8773C21.0843 32.6949 22.2333 33.2009 23.5002 33.2009C26.092 33.2009 28.2007 31.0921 28.2007 28.5C28.2007 28.2534 28.1759 28.013 28.1391 27.7766H28.4844C28.7234 28.2444 29.2048 28.5687 29.7651 28.5687C30.3252 28.5687 30.8068 28.2443 31.0456 27.7766H32.0867V34.1712C32.0867 34.5321 31.7928 34.8257 31.4318 34.8257H17.2896L20.238 31.8773ZM29.2031 27.1257C29.2031 26.8161 29.4552 26.5638 29.7651 26.5638C30.0749 26.5638 30.327 26.8159 30.327 27.1257C30.327 27.4356 30.0749 27.6875 29.7651 27.6875C29.4552 27.6875 29.2031 27.4356 29.2031 27.1257ZM32.0867 26.8954H31.1848C31.0735 26.2094 30.4816 25.6827 29.7651 25.6827C29.0485 25.6827 28.4565 26.2094 28.3453 26.8954H27.9127C27.6848 26.2709 27.3308 25.7073 26.8773 25.238L29.185 22.9303H31.4317C31.7927 22.9303 32.0865 23.2239 32.0865 23.5848V26.8954H32.0867ZM26.2065 24.6629C25.4404 24.121 24.5079 23.7992 23.5002 23.7992C21.4722 23.7992 19.7454 25.0924 19.0874 26.8954H15.3449V23.5848C15.3449 23.2239 15.6388 22.9303 15.9997 22.9303H27.939L26.2065 24.6629ZM18.8695 22.0491H17.1072V21.6085H18.8695V22.0491ZM21.3104 22.0491L22.099 20.8635C22.3396 20.5024 22.7423 20.2869 23.1758 20.2869H24.9209C25.3162 20.2869 25.685 20.4643 25.9315 20.7735L26.9489 22.0491H21.3104ZM23.5002 41.1188C20.0504 41.1188 16.9205 39.7261 14.6403 37.475L16.4084 35.7069H31.4317C32.2789 35.7069 32.9676 35.0178 32.9676 34.1712V23.5849C32.9676 22.7382 32.2789 22.0492 31.4317 22.0492H30.0662L32.475 19.6404C34.7261 21.9206 36.1188 25.0504 36.1188 28.5001C36.1188 35.4582 30.4582 41.1188 23.5002 41.1188Z" stroke="#9E9B9B" stroke-width="0.2"/>
</g>
</svg>
