<svg width="120" height="60" viewBox="0 0 120 60" fill="none" xmlns="http://www.w3.org/2000/svg">
<path d="M120 0H0V60H120V0Z" fill="white"/>
<path d="M82.7504 31.3139V24.6234H80.0742V31.3139V31.4254C80.0742 31.4254 80.0742 31.6484 80.0742 31.9829C79.9627 32.2059 79.9627 32.5405 79.8512 32.875C79.7397 33.2095 79.5167 33.6555 79.1822 33.8786C79.0707 33.9901 78.8476 34.1016 78.7361 34.2131C78.5131 34.2131 78.2901 34.3246 77.9556 34.3246H77.8441C77.2865 34.3246 76.952 34.2131 76.6175 33.9901C76.506 33.7671 76.2829 33.6555 76.1714 33.321C75.9484 32.9865 75.8369 32.5405 75.7254 32.0944C75.7254 31.7599 75.7254 31.4254 75.7254 31.4254V31.3139V24.6234H73.0492V31.3139C73.0492 31.3139 73.0492 31.3139 73.0492 31.4254C73.0492 31.5369 73.0492 31.8714 73.1607 32.4289C73.1607 32.7635 73.2722 33.2095 73.3837 33.6555C73.7182 34.4361 74.0528 35.2167 74.8333 35.8857C75.1679 36.2202 75.6139 36.4433 76.1714 36.6663C76.6175 36.8893 77.175 37.0008 77.8441 37.0008H77.9556C79.0707 37.0008 79.9627 36.6663 80.7433 36.1087C81.1893 35.6627 81.6353 35.1052 81.8584 34.6591C82.3044 33.8786 82.5274 33.2095 82.6389 32.5405C82.7504 31.9829 82.7504 31.5369 82.7504 31.4254C82.7504 31.3139 82.7504 31.3139 82.7504 31.3139Z" fill="#0066B0"/>
<path d="M84.9807 36.8893H87.6569V24.6234H84.9807V36.8893Z" fill="#0066B0"/>
<path d="M95.797 24.6234H93.1208L89.218 36.8893H91.7827L92.4518 34.5476C92.4518 34.5476 95.4625 34.7706 97.0236 36.8893H99.588L95.797 24.6234ZM93.0093 32.5405L93.5668 30.7563C93.5668 30.7563 94.1244 28.5261 94.3474 27.4111C94.3474 27.4111 94.7934 29.4182 95.2395 30.8678C95.351 31.4254 95.6855 32.5405 96.02 33.6555C96.02 33.6555 95.0165 32.875 93.0093 32.5405Z" fill="#0066B0"/>
<path d="M60.7833 45.0296L68.8119 13.3611C68.8119 13.3611 58.6647 13.3611 57.1035 13.8072L37.1435 37.7815C37.1435 37.7815 35.5824 39.4541 33.9098 40.1232L18.5216 45.0296H60.7833Z" fill="url(#paint0_linear)"/>
<path d="M55.2079 29.4182C58.3301 31.2023 60.1143 33.9901 60.1143 33.9901V35.5512C61.3409 34.2131 62.0099 32.4289 62.0099 30.5333C62.0099 30.1988 62.0099 29.7527 62.0099 29.4182H55.2079Z" fill="#FCC303"/>
<path d="M57.9956 28.8606H61.8984C61.8984 28.7491 61.7869 28.6376 61.7869 28.5261H57.9956V28.8606Z" fill="#FCC303"/>
<path d="M49.6325 31.2024L49.1864 31.537V29.7528C52.4202 29.7528 53.6468 30.3104 53.6468 30.3104C52.9777 29.7528 51.4166 29.4183 51.4166 29.4183V27.9687H61.5639C60.5603 25.181 57.8841 23.1738 54.6503 23.1738C50.636 23.1738 47.2908 26.4076 47.2908 30.5334C47.2908 34.5477 50.636 37.893 54.6503 37.893C56.769 37.893 58.6646 37.0009 60.0027 35.6628C55.2079 30.7564 49.6325 31.2024 49.6325 31.2024Z" fill="url(#paint1_linear)"/>
<defs>
<linearGradient id="paint0_linear" x1="24.5804" y1="7.95073" x2="62.7354" y2="50.44" gradientUnits="userSpaceOnUse">
<stop stop-color="#26B7EA"/>
<stop offset="0.219608" stop-color="#26B7EA"/>
<stop offset="0.588235" stop-color="#0068B1"/>
<stop offset="1" stop-color="#0068B1"/>
</linearGradient>
<linearGradient id="paint1_linear" x1="46.0026" y1="28.3199" x2="62.9482" y2="32.7201" gradientUnits="userSpaceOnUse">
<stop stop-color="#FCF5AB"/>
<stop offset="0.14902" stop-color="#FCF5AB"/>
<stop offset="0.6" stop-color="#FCC303"/>
<stop offset="1" stop-color="#FCC303"/>
</linearGradient>
</defs>
</svg>
