<svg width="120" height="60" viewBox="0 0 120 60" fill="none" xmlns="http://www.w3.org/2000/svg">
<path d="M120 0H0V60H120V0Z" fill="white"/>
<path d="M106.023 27.8945V23.4554H101.573V27.8945H99.1298V17.3213H101.573V21.5338H106.023V17.3213H108.485V27.8945H106.023Z" fill="black"/>
<path d="M53.3738 17.3221V23.9413C53.3738 24.6724 53.4818 25.3053 53.6943 25.8205C53.9049 26.3312 54.2112 26.7552 54.6033 27.0818C54.9999 27.4111 55.4779 27.6546 56.0249 27.8041C56.579 27.9573 57.2048 28.0352 57.8855 28.0352C58.5653 28.0352 59.1858 27.9573 59.7293 27.8041C60.263 27.6546 60.7189 27.4129 61.0845 27.0854C61.45 26.7588 61.7368 26.3347 61.9369 25.8231C62.1378 25.3097 62.2405 24.6769 62.2405 23.9413V17.3221H59.9541V23.8705C59.9541 24.5379 59.7886 25.0761 59.462 25.4717C59.1283 25.8745 58.598 26.0781 57.8855 26.0781C57.1853 26.0781 56.6587 25.8754 56.3196 25.4726C55.9868 25.0787 55.8169 24.5396 55.8169 23.8705V17.3221H53.3738Z" fill="black"/>
<path d="M46.3275 27.8962V19.296H43.4543V17.3221H51.6606V18.2684C51.6606 18.8358 51.1994 19.296 50.6329 19.296H48.7706V27.8962H46.3275Z" fill="black"/>
<path d="M85.593 17.3204H88.037V27.8945H85.593V17.3204Z" fill="black"/>
<path d="M77.4556 22.9645L77.5388 23.069L80.6599 27.0911C81.0564 27.6036 81.6557 27.8975 82.3036 27.8975H84.2492L79.7783 22.2095L79.7128 22.1263L79.7783 22.0421L83.4543 17.3181H80.9122L77.5406 21.8749L77.4556 21.9846L77.4547 21.7943V17.3181H75.0117V27.8913H77.4547V23.153L77.4556 22.9645Z" fill="black"/>
<path d="M71.8261 27.8928C71.1021 27.8928 70.4196 27.5086 70.0461 26.8899L68.1456 23.7511H66.94V27.8928H64.4988V17.3213H68.852C69.9708 17.3213 70.8463 17.6143 71.4552 18.1897C72.0633 18.7641 72.3705 19.5511 72.3705 20.5283C72.3705 21.0249 72.2386 21.5276 71.9775 22.0224C71.7208 22.5093 71.264 22.9076 70.6214 23.2068L70.4798 23.2723L73.4468 27.8928H71.8261ZM66.94 22.1605H68.3651C68.8777 22.1605 69.268 22.0197 69.5265 21.7427C69.7805 21.4692 69.9098 21.1125 69.9098 20.684C69.9098 20.2459 69.7841 19.8847 69.5362 19.6103C69.2839 19.3315 68.89 19.1908 68.3651 19.1908H66.94V22.1605Z" fill="black"/>
<path d="M90.0422 27.4458V25.4187C90.8194 25.7763 91.8214 26.1339 92.8588 26.1339C94.0502 26.1339 94.6557 25.725 94.6557 24.9416C94.6557 24.022 93.8431 23.9202 92.2188 23.2218C91.1133 22.7279 90.0591 21.9613 90.0591 20.1892C90.0591 18.1286 91.632 17.1585 93.8086 17.1585C94.9664 17.1585 95.9507 17.4302 96.5039 17.6346V19.6103C95.9507 19.3545 94.9664 19.0483 93.9812 19.0483C92.9102 19.0483 92.4092 19.4404 92.4092 20.1211C92.4092 20.8372 93.0146 21.0585 94.1025 21.4674C95.5019 22.1658 97.1262 22.472 97.1262 24.8567C97.1262 26.9173 95.4842 28.0415 93.2899 28.0415C91.9427 28.0415 90.8716 27.8034 90.0422 27.4458Z" fill="black"/>
<path d="M93.8594 41.6944V31.1211H100.48V32.0798C100.48 32.6401 100.025 33.095 99.466 33.095H96.3025V35.369H99.8537V37.134H96.3025V39.7213H100.48V41.6944H93.8594Z" fill="black"/>
<path d="M69.7033 41.693V31.1198H70.8903C71.5834 31.1198 72.1463 31.6836 72.1463 32.3758V39.789H76.0464V41.693H69.7033Z" fill="black"/>
<path d="M54.5785 41.692V31.1259H57.0224L57.0215 41.692H54.5785Z" fill="black"/>
<path d="M66.5908 41.692C65.8676 41.692 65.1843 41.3079 64.8107 40.6892L62.9103 37.5504H61.7047V41.692H59.2626V31.1206H63.6167C64.7355 31.1206 65.6109 31.4127 66.2199 31.989C66.8271 32.5634 67.1352 33.3503 67.1352 34.3267C67.1352 34.8232 67.0033 35.326 66.7422 35.8217C66.4846 36.3077 66.0287 36.7068 65.387 37.0051L65.2445 37.0715L68.2115 41.692H66.5908ZM61.7047 35.9598H63.1289C63.6423 35.9598 64.0327 35.819 64.2912 35.542C64.5452 35.2685 64.6744 34.9117 64.6744 34.4833C64.6744 34.0452 64.5487 33.684 64.3 33.4096C64.0486 33.1308 63.6547 32.9901 63.1289 32.9901H61.7047V35.9598Z" fill="black"/>
<path d="M49.1994 31.1196H46.3934L42.4067 41.6937H44.1664C44.6134 41.6937 45.0082 41.4077 45.148 40.9846L45.5578 39.7445H49.8456L50.4731 41.6937H53.1198L49.1994 31.1196ZM46.181 37.8415L47.1396 35.1691C47.3529 34.5672 47.5672 33.9335 47.7088 33.4661H47.7442C47.869 33.9503 48.0823 34.5513 48.2948 35.1691L49.2197 37.8415H46.181Z" fill="black"/>
<path d="M102.443 41.2462V39.2192C103.221 39.5768 104.223 39.9344 105.259 39.9344C106.452 39.9344 107.056 39.5254 107.056 38.7421C107.056 37.8224 106.244 37.7206 104.62 37.0222C103.514 36.5283 102.46 35.7618 102.46 33.9906C102.46 31.929 104.032 30.9589 106.209 30.9589C107.367 30.9589 108.352 31.2307 108.905 31.4351V33.4108C108.352 33.1559 107.367 32.8487 106.382 32.8487C105.311 32.8487 104.81 33.2408 104.81 33.9215C104.81 34.6367 105.415 34.8589 106.503 35.2678C107.902 35.9662 109.527 36.2725 109.527 38.6572C109.527 40.7187 107.885 41.8419 105.691 41.8419C104.343 41.8419 103.272 41.6038 102.443 41.2462Z" fill="black"/>
<path d="M82.2988 31.1216H83.8124C84.5321 31.1216 85.1995 31.4934 85.5801 32.1042L88.5286 36.8406C88.8623 37.3673 89.2491 38.0622 89.4766 38.5543H89.5297C89.4943 38.0799 89.4766 37.4178 89.4766 36.9424V31.1216H91.6178V41.6948H88.9393L85.3526 35.975C85.0189 35.4492 84.6684 34.8216 84.4223 34.3462H84.3869C84.4046 34.8039 84.4391 35.3473 84.4391 35.8563V41.6948H82.2988V31.1216Z" fill="black"/>
<path d="M77.6178 31.1263H80.0608V41.6924H77.6178V31.1263Z" fill="black"/>
<path d="M24.0743 16.0744C30.8652 16.7816 36.1602 22.5183 36.162 29.4951C36.1655 36.9508 30.1234 42.9973 22.6669 43C15.2112 43.0027 9.16464 36.9606 9.16199 29.5049C9.16022 22.0492 15.2023 16.0027 22.658 16C23.1351 16 23.6078 16.0257 24.0743 16.0744ZM24.7709 42.0573C31.707 40.8924 36.3842 34.3263 35.2184 27.392C34.2492 21.6208 29.5437 17.4145 23.9946 16.8329C22.874 16.7161 21.7171 16.748 20.5504 16.9427C19.1669 17.1746 17.8773 17.6243 16.7027 18.2474C22.8156 20.3213 26.103 23.4725 26.3305 26.7025C26.4421 28.6967 25.5162 30.1386 24.2973 31.3141L32.9418 30.7105C33.187 30.6936 33.2631 30.9778 32.9674 31.0627L12.3494 36.9747C14.4482 39.8657 17.7073 41.7882 21.3267 42.1671C22.4473 42.2848 23.6042 42.2547 24.7709 42.0573ZM19.0988 29.7961C20.2291 25.5473 18.9395 21.095 15.8538 18.736C11.6511 21.3959 9.22837 26.3988 10.1038 31.6107C10.3924 33.3332 11.0173 34.9158 11.8962 36.3038C15.182 35.3885 18.0711 33.6571 19.0988 29.7961Z" fill="white"/>
<path d="M24.7709 42.0573C31.707 40.8924 36.3841 34.3263 35.2184 27.392C34.2491 21.6208 29.5436 17.4145 23.9946 16.8329C22.874 16.7161 21.7171 16.748 20.5504 16.9427C19.1669 17.1746 17.8772 17.6243 16.7026 18.2474C22.8155 20.3214 26.103 23.4725 26.3305 26.7025C26.442 28.6967 25.5162 30.1386 24.2973 31.3141L32.9418 30.7105C33.1869 30.6936 33.2631 30.9778 32.9674 31.0628L12.3494 36.9747C14.4481 39.8657 17.7073 41.7882 21.3267 42.1671C22.4473 42.2848 23.6042 42.2547 24.7709 42.0573ZM19.0988 29.7961C20.2291 25.5473 18.9394 21.095 15.8538 18.736C11.651 21.3959 9.22835 26.3989 10.1038 31.6107C10.3923 33.3332 11.0173 34.9159 11.8962 36.3038C15.1819 35.3885 18.0711 33.6572 19.0988 29.7961Z" fill="#C70A0C"/>
</svg>
