<svg width="120" height="60" viewBox="0 0 120 60" fill="none" xmlns="http://www.w3.org/2000/svg">
<path d="M120 0H0V60H120V0Z" fill="white"/>
<path fill-rule="evenodd" clip-rule="evenodd" d="M33.945 24.0619V33.3638C33.945 34.22 33.5734 35.5003 30.1508 35.5003C26.7283 35.5003 26.3557 34.22 26.3557 33.3638V24.0619H24.4115V33.4698C24.4115 35.7731 26.3027 36.7769 29.8129 36.7769C31.6082 36.7769 32.9314 36.4736 33.924 36.1916V40.3964H35.838L35.828 24.0619H33.945ZM16.309 19.623C14.2599 19.623 11.2199 20.0534 11.2199 22.1641V24.0619H9V25.1505H11.2199V36.481H13.0809V25.1505H16.0104L16.0113 24.0619H13.0809V22.3982C13.0809 20.7779 14.9548 20.5198 16.309 20.5198C18.5499 20.5198 19.6649 20.6903 19.6649 23.166L19.664 36.481H21.5241V19.9225H19.6649C18.6284 19.9225 18.128 19.623 16.309 19.623ZM108.955 25.25C107.83 25.25 106.917 26.1745 106.917 27.3128C106.917 28.4529 107.83 29.3783 108.955 29.3783C110.091 29.3783 111 28.4529 111 27.3128C111 26.1745 110.091 25.25 108.955 25.25Z" fill="#FF8200"/>
<path fill-rule="evenodd" clip-rule="evenodd" d="M94.1036 26.8729C95.5501 26.707 96.8459 26.6259 97.6623 26.6232C97.213 24.8747 95.1602 24.1917 91.7732 24.1917C88.8475 24.1917 86.2367 25.2111 86.2367 25.2111V27.6398C86.2367 27.6398 88.0457 26.1697 91.8235 26.1697C93.0608 26.1697 93.7439 26.3927 94.1036 26.8729ZM48.9621 32.9756C48.8571 34.3212 47.4207 35.0494 46.0253 35.0494C43.0027 35.0494 42.579 33.7231 42.579 30.6934C42.579 27.6674 43.1717 26.3439 45.8765 26.3439C47.6298 26.3439 48.8571 27.0674 48.9621 28.4122C49.0461 29.4998 49.0899 30.0556 49.0899 30.6934C49.0899 31.3331 49.0461 31.9534 48.9621 32.9756ZM49.0899 24.9337C47.8416 24.4433 46.8919 24.1871 45.3478 24.1871C40.6349 24.1871 39.1976 25.9807 39.1976 30.6934C39.1976 35.3867 41.3106 37.2016 46.0253 37.2016C48.8982 37.2016 50.9866 36.1167 52.4714 36.1167V20.3473H49.0899V24.9337ZM103.97 24.4756L100.589 24.4765V26.5236H103.97V24.4756ZM94.4981 32.9451C94.4981 34.7185 92.8544 35.1664 91.7285 35.1664C89.8081 35.1664 88.8246 34.583 88.8246 33.3276C88.8246 31.2077 91.5185 30.1173 94.4981 29.9358V32.9451ZM104.683 27.7347L103.701 27.7366C89.9917 27.7366 85.5491 30.3063 85.5491 33.2447C85.5491 35.9739 87.874 37.1712 91.6372 37.1712C94.0653 37.1712 96.5226 36.1121 97.8084 36.1121V29.4952C99.4119 29.2906 100.611 29.2574 100.611 29.2574V36.9076H103.99V31.1487C103.99 29.0915 104.683 27.7347 104.683 27.7347ZM76.9461 35.0494C75.5499 35.0494 74.1144 34.3212 74.0094 32.9756C73.9254 31.9534 73.8824 31.3331 73.8824 30.6934C73.8824 30.0556 73.9254 29.4998 74.0094 28.4113C74.1144 27.0674 75.3426 26.3439 77.0959 26.3439C79.7998 26.3439 80.3924 27.6674 80.3924 30.6934C80.3924 33.7231 79.9696 35.0494 76.9461 35.0494ZM77.6228 24.1871C76.0795 24.1871 75.1289 24.4433 73.8824 24.9337V20.3473H70.501V36.1167C71.9849 36.1167 74.0715 37.2016 76.9461 37.2016C81.6599 37.2016 83.7739 35.3867 83.7739 30.6934C83.7739 25.9807 82.3356 24.1871 77.6228 24.1871ZM64.3316 33.0613C64.3316 33.9175 64.0549 35.195 61.5191 35.195C58.9832 35.195 58.7101 33.9175 58.7101 33.0613V24.4866H55.326V33.8945C55.3269 36.1978 57.671 37.2016 61.183 37.2016C64.2887 37.2016 66.294 36.2412 67.2885 36.1342L67.7113 36.09V24.4866H64.3316V33.0613Z" fill="#006496"/>
</svg>
