<svg width="120" height="60" viewBox="0 0 120 60" fill="none" xmlns="http://www.w3.org/2000/svg">
<path d="M120 0H0V60H120V0Z" fill="white"/>
<path d="M100.415 29.4121C100.096 30.1571 99.4574 31.3279 99.1381 31.9665C98.4995 33.0308 98.0738 33.6694 97.2223 34.5209C96.6901 35.0531 96.0515 35.3724 95.4129 35.2659C94.8807 35.2659 94.3486 34.6273 94.3486 34.4145C94.8807 33.1373 95.8386 30.9022 96.3708 29.7314C97.3287 27.3898 99.0317 24.9419 100.628 25.5805C101.905 26.0062 100.735 28.5606 100.415 29.4121ZM103.502 24.9419C103.289 24.3033 102.863 23.8775 102.331 23.4518C101.799 23.0261 101.16 22.9196 100.522 22.9196C99.9896 22.9196 98.4995 23.1325 97.8609 23.7711C97.7545 23.7711 97.7545 23.7711 97.648 23.7711C97.3287 23.4518 97.1159 23.3454 96.903 23.3454C96.6901 23.2389 96.4773 23.2389 96.2644 23.2389C96.0515 23.3454 95.9451 23.3454 95.8386 23.4518C95.8386 23.6647 95.7322 23.7711 95.7322 23.8775L91.7942 32.3922C90.7298 34.7338 89.6655 37.1818 88.7076 39.5233C87.7497 41.9713 87.1111 43.7807 86.1532 46.5479C86.0467 46.7608 86.0467 46.9737 85.9403 47.1865C85.8339 47.3994 85.8339 47.7187 85.8339 47.9316C85.8339 48.2509 86.0467 48.5702 86.366 48.9959C86.6853 49.2088 87.0046 49.4217 87.3239 49.5281C87.7497 49.5281 88.069 49.5281 88.2818 49.3152C88.4947 49.2088 88.6011 49.1024 88.6011 48.7831C88.7076 48.5702 88.7076 48.3573 88.814 48.2509C89.559 45.8029 92.007 39.5233 93.1778 36.8625C93.1778 36.756 93.1778 36.756 93.1778 36.8625C93.3907 37.0753 95.4129 38.459 97.7545 37.2882C98.2866 37.0753 98.8188 36.756 99.351 36.3303C100.309 35.4788 101.267 34.4145 101.905 33.1373C102.65 31.9665 103.183 30.6893 103.608 29.3056C103.821 28.667 103.928 27.922 103.928 27.177C103.928 26.4319 103.821 25.6869 103.502 24.9419Z" fill="#ED6E00"/>
<path d="M79.0222 22.9197C79.6608 23.0261 80.1929 22.8132 80.7251 22.4939C81.1508 22.0682 81.4701 21.536 81.5766 21.0039C81.683 19.7267 80.8315 18.5559 79.5543 18.343H79.4479C78.1707 18.1302 77.1063 18.9816 76.9999 20.2588C76.787 21.536 77.745 22.7068 79.0222 22.9197Z" fill="#ED6E00"/>
<path d="M86.4724 22.9197H86.5788C87.111 23.0261 87.7496 22.8132 88.1753 22.4939C88.7075 22.0682 89.0268 21.536 89.0268 21.0039C89.2396 19.7267 88.2817 18.4495 87.0045 18.343C85.7273 18.1302 84.663 18.9816 84.4501 20.2588C84.3437 21.536 85.1952 22.7068 86.4724 22.9197Z" fill="#ED6E00"/>
<path d="M74.4455 41.8648C73.4876 41.7584 72.7425 41.4391 72.2104 41.2262C69.2302 39.8426 67.208 36.5431 67.208 32.7115C66.9951 25.1547 72.9554 15.4692 73.1683 15.0435C73.7004 14.192 74.4455 13.9791 75.0841 14.6177C75.8291 15.4692 76.2548 16.4271 75.7227 17.1722L75.2969 17.8108C75.2969 17.9172 70.2945 26.1126 70.401 32.6051C70.5074 35.053 71.5717 37.3946 73.594 38.0332C76.787 39.0975 79.1286 38.2461 82.1087 35.5852C89.1333 29.1992 95.5194 14.937 95.5194 14.8306C95.8387 13.9791 96.5837 13.8727 97.3287 14.4049C98.1802 15.0435 98.606 16.0014 98.2867 16.8529C98.0738 17.2786 91.7942 31.3279 84.1309 38.2461C80.1929 41.7584 76.6806 42.1841 74.4455 41.8648Z" fill="#ED6E00"/>
<path d="M67.7402 25.0483C67.6337 24.6226 67.4208 24.1969 67.1015 23.8776C66.7822 23.5583 66.4629 23.3454 66.0372 23.2389C65.8243 23.1325 65.7179 23.2389 65.505 23.2389C65.3986 23.3454 65.2922 23.4518 65.1857 23.6647C64.5471 24.4097 64.015 25.3676 63.4828 26.2191C62.9506 27.177 62.312 28.1349 61.7799 28.9864C61.2477 29.9443 60.6091 30.7958 59.9705 31.7537C59.3319 32.6051 58.5868 33.4566 57.8418 34.2016C57.8418 34.2016 57.6289 34.3081 57.4161 34.5209C57.0968 34.7338 56.671 34.8402 56.3517 34.6274C56.1389 34.4145 56.1389 33.9888 56.2453 33.6695C56.3517 33.2437 56.4582 32.9244 56.671 32.4987C56.7775 32.1794 56.8839 31.8601 56.9903 31.7537C57.2032 31.4344 57.3096 31.1151 57.5225 30.7958C57.6289 30.4765 57.8418 30.1572 58.1611 29.7314C58.374 29.3057 58.6933 28.7735 59.119 28.1349C59.5447 27.4963 59.9705 26.6448 60.6091 25.7934C60.7155 25.4741 60.8219 25.1548 60.7155 24.8355C60.6091 24.4097 60.3962 23.984 60.0769 23.6647C59.7576 23.3454 59.3319 23.1325 58.9061 23.1325C58.6933 23.1325 58.4804 23.3454 58.374 23.5583C58.1611 23.7711 58.0547 23.8776 57.9482 24.0904C57.5225 24.6226 57.0968 25.2612 56.671 26.0062C56.2453 26.7513 55.7131 27.4963 55.2874 28.2413C55.0745 28.5606 54.9681 28.8799 54.7552 29.3057L54.6488 29.4121C54.5424 29.625 54.4359 29.8378 54.3295 30.0507C53.9037 30.5829 53.478 31.2215 53.0523 31.8601C52.6265 32.4987 52.2008 33.1373 51.6686 33.6695C51.3493 33.9888 51.1365 34.2016 50.8172 34.4145C50.6043 34.7338 50.285 34.9467 49.9657 35.0531C49.8593 35.1595 49.8593 35.1595 49.7528 35.1595C49.6464 35.1595 49.6464 35.1595 49.54 35.0531C49.54 35.0531 49.4335 34.9467 49.4335 34.8402C49.4335 34.7338 49.4335 34.5209 49.54 34.3081C49.6464 33.7759 49.7528 33.1373 49.7528 32.4987C49.7528 31.7537 49.54 31.1151 49.3271 30.4765C50.3914 30.0507 51.3493 29.4121 51.9879 28.5606C52.733 27.8156 53.3716 26.9641 53.9037 26.0062C54.0102 25.7934 54.1166 25.5805 54.223 25.4741C54.3295 25.2612 54.3295 25.0483 54.1166 24.8355C54.1166 24.6226 53.9037 24.4097 53.7973 24.1969C53.5844 24.0904 53.478 23.8776 53.2651 23.7711C53.0523 23.5583 52.8394 23.4518 52.6265 23.3454C52.4137 23.2389 52.2008 23.2389 51.9879 23.3454C51.8815 23.3454 51.7751 23.4518 51.7751 23.5583C51.6686 23.6647 51.5622 23.7711 51.5622 23.8776C50.9236 24.8355 50.285 25.6869 49.54 26.5384C48.9014 27.177 48.2628 27.8156 47.4113 28.2413C47.092 28.3478 46.6662 28.4542 46.2405 28.4542C46.7727 27.3899 47.3048 26.3255 47.9435 25.1548C48.4756 24.0904 49.1142 22.9196 49.8593 21.7489C50.4979 20.5781 51.1365 19.4073 51.8815 18.343C52.6265 17.2787 53.3716 16.2143 54.223 15.2564C54.223 15.0435 54.3295 14.9371 54.4359 14.8307C54.5424 14.6178 54.6488 14.5114 54.5424 14.1921C54.5424 13.8728 54.3295 13.447 54.0102 13.1277C53.6909 12.8084 53.3716 12.5956 52.9458 12.4891C52.733 12.3827 52.6265 12.3827 52.5201 12.4891C52.3072 12.4891 52.2008 12.5956 52.0944 12.8084C51.7751 13.1277 51.5622 13.447 51.3493 13.8728C51.03 14.1921 50.8172 14.6178 50.4979 14.9371C50.285 15.2564 50.0721 15.5757 49.8593 15.895C46.7727 14.7242 42.9411 13.8728 39.1094 14.1921C34.4263 14.4049 30.914 15.6821 28.5725 17.8108C26.6567 19.5138 26.1245 21.4296 26.0181 22.3875C25.8052 23.3454 25.3795 28.1349 32.4041 29.4121C34.4263 29.8378 35.81 30.5829 36.2357 31.4344C36.4486 31.8601 36.3422 32.3923 36.1293 33.0309C34.9585 35.7981 31.1269 37.8204 26.2309 38.1397C20.5899 38.459 17.3969 37.0754 17.2905 36.9689C16.8648 36.8625 16.439 36.8625 16.0133 37.0754C15.4811 37.2882 15.1618 37.6075 14.949 38.1397C14.5232 39.0976 14.7361 40.1619 15.5876 40.5877C15.694 40.6941 18.9934 42.0777 24.6344 41.9713C25.0602 41.9713 25.4859 41.9713 25.9116 41.9713C32.5105 41.5456 37.5129 38.6719 39.3223 34.2016C39.9609 32.4987 40.0673 30.7958 39.4287 29.4121C38.5773 27.4963 36.555 26.2191 33.362 25.6869C29.7433 24.9419 29.6368 23.1325 29.7433 22.3875C29.8497 21.6424 30.2754 21.0038 30.8076 20.4717C31.8719 19.5138 34.107 18.2366 38.8966 18.0237C41.7703 17.8108 44.8569 18.4494 47.6241 19.4073C46.9855 20.5781 46.3469 21.6424 45.8148 22.7068C44.3247 25.4741 42.8346 28.3478 41.451 31.4344C41.2381 31.8601 41.0252 32.2858 40.8124 32.7116C40.5995 33.1373 40.1738 34.2016 39.9609 34.6274C39.8545 35.0531 39.6416 35.3724 39.5352 35.7981C39.4287 36.2239 39.5352 36.5432 39.8545 37.0754C40.1738 37.3947 40.4931 37.5011 40.8124 37.6075C41.1317 37.714 41.451 37.714 41.7703 37.714C41.9832 37.6075 42.0896 37.5011 42.0896 37.2882C42.196 37.1818 42.196 36.9689 42.3025 36.7561C42.6218 36.2239 42.8346 35.5853 43.0475 35.1595C43.2604 34.6274 43.6861 33.6695 43.899 33.3502C44.1118 32.9244 44.2183 32.6051 44.4311 32.2858C44.5376 31.9665 44.644 31.6472 44.8569 31.3279C45.4955 31.3279 46.1341 31.2215 46.7727 31.1151C46.9855 31.3279 47.1984 31.8601 46.7727 33.3502C46.7727 33.3502 46.7727 33.3502 46.7727 33.4566C46.7727 33.4566 46.7727 33.4566 46.7727 33.563C46.6662 33.9888 46.6662 34.4145 46.6662 34.8402C46.6662 35.7981 46.9855 36.5432 47.6241 37.0754C48.2628 37.6075 48.9014 37.8204 49.7528 37.714C50.6043 37.714 51.3493 37.3947 51.9879 36.8625C52.5201 36.4367 53.0523 35.9046 53.5844 35.3724C53.6909 35.7981 53.9037 36.1174 54.1166 36.4367C54.4359 36.9689 54.8617 37.2882 55.2874 37.3947C55.7131 37.6075 56.2453 37.714 56.671 37.714C56.8839 37.714 57.0968 37.714 57.3096 37.6075C57.4161 37.6075 57.6289 37.5011 57.8418 37.3947C56.671 39.8426 54.5424 46.6544 54.5424 46.8673C54.4359 47.0801 54.4359 47.293 54.3295 47.5059C54.223 47.9316 54.3295 48.3573 54.6488 48.6766C54.9681 48.9959 55.2874 49.3152 55.6067 49.4217C56.0324 49.5281 56.3517 49.5281 56.671 49.4217C56.7775 49.3152 56.8839 49.2088 56.9903 48.9959C56.9903 48.7831 57.0968 48.6766 57.0968 48.4638C59.9705 39.204 62.0992 34.8402 64.1214 31.3279C64.8664 30.0507 65.6115 28.6671 66.5694 27.177C66.7822 26.8577 66.8887 26.5384 67.1015 26.3255C67.208 26.0062 67.4208 25.8998 67.5273 25.6869C67.6337 25.5805 67.6337 25.4741 67.7402 25.3676C67.7402 25.2612 67.7402 25.1548 67.7402 25.0483Z" fill="#252422"/>
</svg>
