<svg width="120" height="60" viewBox="0 0 120 60" fill="none" xmlns="http://www.w3.org/2000/svg">
<path d="M120 0H0V60H120V0Z" fill="white"/>
<path fill-rule="evenodd" clip-rule="evenodd" d="M68.8403 34.7499L69.3957 33.0836C69.4883 32.8059 69.766 32.6208 70.0437 32.7134C70.2288 32.7134 70.3214 32.8985 70.3214 33.0836C70.3214 33.1762 70.3214 33.2688 70.414 33.2688C70.8768 34.1945 72.1728 34.8424 73.5613 34.7499C74.8572 34.6573 75.3201 33.8242 75.2275 32.8985C75.2275 32.5282 75.0424 32.158 74.9498 31.9728C74.7647 31.7877 72.0802 28.6404 72.0802 28.6404C71.5248 27.8073 71.1545 26.8816 71.0619 25.8633C70.8768 22.9011 73.0984 20.3092 76.616 20.0315C78.8377 19.8464 80.5965 20.4944 81.8924 21.5126L81.337 23.1788C81.2445 23.4565 80.9667 23.6417 80.689 23.5491C80.5039 23.4565 80.4113 23.2714 80.4113 23.0863C80.4113 23.0863 80.4113 22.9937 80.3188 22.9011C79.7634 21.9755 78.8377 21.42 77.3566 21.5126C76.0606 21.6052 75.4127 22.4383 75.4127 23.4565C75.5052 23.7343 75.5052 23.9194 75.5978 24.1045C75.7829 24.4748 75.9681 24.7525 76.1532 25.1228L77.6343 26.789L78.2823 27.6221C78.9302 28.4552 79.5782 29.3809 79.6708 30.3992C79.8559 33.3613 77.6343 35.9533 74.1167 36.231C71.8951 36.4161 70.1363 35.7681 68.8403 34.7499ZM96.1479 34.7499L96.7033 33.0836C96.7959 32.8059 97.0736 32.6208 97.3513 32.7134C97.5365 32.7134 97.629 32.8985 97.629 33.0836C97.629 33.1762 97.629 33.2688 97.7216 33.2688C98.1844 34.1945 99.4804 34.8424 100.869 34.7499C102.165 34.6573 102.628 33.8242 102.535 32.8985C102.535 32.5282 102.257 32.158 102.257 31.9728C102.072 31.7877 99.3878 28.6404 99.3878 28.6404C98.8324 27.8073 98.4621 26.8816 98.3696 25.8633C98.1844 22.9011 100.406 20.3092 103.924 20.0315C106.145 19.8464 107.904 20.4944 109.2 21.5126L108.645 23.1788C108.552 23.4565 108.274 23.6417 107.997 23.5491C107.812 23.4565 107.719 23.2714 107.719 23.0863C107.719 23.0863 107.719 22.9937 107.626 22.9011C107.071 21.9755 106.145 21.42 104.664 21.5126C103.368 21.6052 102.72 22.4383 102.72 23.4565C102.813 23.7343 102.813 23.9194 102.905 24.1045C103.091 24.4748 103.276 24.7525 103.461 25.1228L104.942 26.789L105.59 27.6221C106.145 28.4552 106.886 29.3809 106.978 30.3992C107.164 33.3613 104.942 35.9533 101.424 36.231C99.2027 36.4161 97.4439 35.7681 96.1479 34.7499ZM89.1127 22.1606L86.1506 29.0106C85.8729 29.566 85.41 30.7694 85.41 31.6025C85.41 32.158 85.7803 32.6208 86.3357 32.8059C86.4283 32.8059 86.6134 32.8985 86.7985 32.8985C87.6317 32.8985 88.3722 32.3431 88.6499 31.6025L93.4635 20.5869H98.925C99.0175 20.5869 99.1101 20.5869 99.2027 20.5869C99.3878 20.6795 99.4804 20.9572 99.3878 21.2349C99.3878 21.42 99.2027 21.5126 99.0175 21.5126C98.5547 21.6052 98.4621 21.7903 98.277 22.1606L95.5925 28.4552C94.1114 32.0654 90.5938 34.6573 86.4283 34.6573C85.0397 34.6573 83.7438 34.287 82.5404 33.7316C81.5222 33.1762 80.689 32.0654 80.689 30.6769C80.7816 29.3809 81.0593 28.085 81.6147 26.8816L83.7438 21.8829V21.7903C83.7438 21.6052 83.6512 21.5126 83.5587 21.5126C83.3735 21.42 83.1884 21.2349 83.1884 21.0498C83.1884 20.7721 83.4661 20.5869 83.8364 20.5869H89.8533C89.8533 20.5869 89.9459 20.5869 90.0384 20.5869C90.2236 20.6795 90.4087 20.9572 90.3161 21.2349C90.2236 21.42 90.0384 21.5126 89.8533 21.5126C89.483 21.6052 89.2979 21.7903 89.1127 22.1606ZM59.1207 27.0667H61.9903L61.1572 23.6417L59.1207 27.0667ZM10.8 34.0093L16.169 21.6978V21.6052C16.169 21.42 15.9839 21.3275 15.8913 21.3275C15.7062 21.2349 15.6136 21.0498 15.6136 20.8646C15.6136 20.5869 15.8913 20.4018 16.169 20.4018H22.0008H25.3333C26.2589 20.4018 27.1846 20.9572 27.5549 21.8829C27.74 22.3457 27.9252 22.9937 27.9252 23.5491C27.9252 24.4748 27.5549 25.4005 27.0921 26.141C26.0738 27.7147 24.315 28.6404 22.3711 28.6404H18.3906L16.6318 32.8059V32.8985C16.6318 32.9911 16.6318 33.0836 16.7244 33.0836C16.9096 33.1762 17.0947 33.3613 17.0947 33.5465C17.0947 33.8242 16.817 34.0093 16.4467 34.0093H10.8ZM19.1312 27.0667L21.3528 21.7903C21.3528 21.7903 21.7231 21.7903 21.8157 21.8829C22.0934 21.8829 22.2785 21.9755 22.4636 22.068C23.3893 22.6234 23.3893 24.1045 22.6488 25.4005C22.0008 26.4187 21.0751 27.0667 19.9643 27.0667H19.1312ZM32.8313 27.7147L30.7948 32.6208H35.6083C35.9786 32.6208 36.2563 32.4357 36.534 32.0654C36.6266 31.8803 36.8117 31.7877 36.9969 31.7877C37.2746 31.7877 37.5523 32.0654 37.5523 32.2505C37.5523 32.3431 37.5523 32.4357 37.4597 32.5282L36.8117 34.1019H30.1468H28.1103H24.6853L29.9617 21.7903V21.6052C29.9617 21.42 29.684 21.3275 29.5914 21.2349C29.4063 21.2349 29.3137 21.0498 29.3137 20.8646C29.3137 20.5869 29.4988 20.4018 29.8691 20.4018H40.9773L40.1442 22.2532C39.959 22.6234 39.6813 22.716 39.4962 22.6234C39.3111 22.5309 39.1259 22.3457 39.2185 22.1606C39.2185 22.068 39.1259 21.8829 38.9408 21.8829C38.9408 21.7903 38.9408 21.7903 38.8482 21.7903H35.4232L33.3867 26.4187H36.3489C36.7191 26.3262 36.9043 26.3262 37.0894 26.0485C37.182 25.7708 37.4597 25.6782 37.6448 25.6782C37.9225 25.6782 38.1077 25.9559 38.1077 26.2336C38.1077 26.2336 38.0151 26.3262 38.0151 26.4187L37.182 28.1775C37.0894 28.5478 36.8117 28.6404 36.534 28.5478C36.3489 28.4552 36.3489 28.2701 36.3489 28.085C36.3489 27.9924 36.2563 27.8073 36.1637 27.8073C36.0712 27.7147 36.0712 27.7147 36.0712 27.7147H32.8313ZM63.3788 34.0093C63.0085 34.0093 62.7308 33.8242 62.7308 33.5465C62.7308 33.3613 62.9159 33.1762 63.1011 33.0836C63.1937 33.0836 63.2862 32.9911 63.2862 32.8059C63.2862 32.8059 63.2862 32.8059 63.2862 32.7134L62.3605 28.7329H58.1024L55.6031 32.7134C55.6031 32.8059 55.5105 32.8059 55.5105 32.8059C55.5105 32.9911 55.6956 33.0836 55.7882 33.0836C55.9733 33.1762 56.0659 33.3613 56.0659 33.5465C56.0659 33.8242 55.8808 34.0093 55.5105 34.0093H53.0111C52.9186 34.0093 52.826 34.0093 52.7334 34.0093C52.5483 33.9168 52.3632 33.639 52.4557 33.3613C52.5483 33.1762 52.7334 33.0836 53.0111 33.0836C53.2889 32.9911 53.474 32.8985 53.5666 32.7134L61.4349 20.4018H66.1558C66.5261 20.4018 66.7112 20.5869 66.7112 20.8646C66.7112 21.0498 66.6187 21.2349 66.4335 21.3275C66.341 21.3275 66.2484 21.42 66.2484 21.6052L69.118 34.0093H63.3788ZM54.5848 26.9741C54.6774 26.9741 54.6774 26.9741 54.7699 27.0667C55.0477 27.1593 55.1402 27.437 55.0477 27.7147C54.9551 27.8073 54.8625 27.8998 54.5848 27.9924C54.2145 27.9924 54.0294 28.1775 53.9368 28.5478L51.5301 34.0093H46.7165L46.5314 33.639C45.2354 34.1945 44.1246 34.3796 42.5509 34.3796C40.1442 34.3796 38.2002 32.4357 38.2002 30.0289C38.2002 29.8438 38.2002 29.6586 38.2002 29.566C38.8482 24.1971 43.3841 20.0315 48.8456 20.0315C51.5301 20.0315 53.0111 20.4944 55.2328 21.6052L54.6774 22.9937C54.6774 23.0863 54.5848 23.0863 54.5848 23.0863C54.4922 23.364 54.2145 23.4565 54.0294 23.364C53.7517 23.1788 53.7517 23.0863 53.6591 22.8086C53.474 22.3457 53.1963 22.2532 53.0111 22.068C52.178 21.5126 51.5301 21.5126 50.9746 21.5126C49.5861 21.5126 48.2902 22.068 47.3645 22.9011C45.2354 24.7525 43.8469 27.2518 43.3841 30.3066C43.3841 30.3992 43.3841 30.4917 43.3841 30.5843C43.3841 31.6025 44.2172 32.5282 45.328 32.5282C46.6239 32.5282 47.3645 31.7877 47.9199 30.6769L48.8456 28.4552V28.3627C48.8456 27.9924 48.5679 27.9924 48.5679 27.8998C48.2902 27.8073 48.1976 27.7147 48.1976 27.437C48.1976 27.2518 48.3827 26.9741 48.753 26.9741H54.5848Z" fill="#DC2126"/>
<path fill-rule="evenodd" clip-rule="evenodd" d="M71.5247 44.4695L71.4322 43.1736H69.5808L68.8403 44.4695H67.5443L70.7842 38.2675H72.2653L73.0058 44.4695H71.5247ZM71.247 40.304C71.247 40.2114 71.247 40.0263 71.247 39.7485V39.5634L71.1545 39.7485C71.1545 39.8411 71.0619 40.0263 70.9693 40.304L69.9511 42.3405H71.4322L71.247 40.304Z" fill="#4F4F4E"/>
<path fill-rule="evenodd" clip-rule="evenodd" d="M75.4127 44.4695H73.9316L75.2276 38.2675H76.7087L75.4127 44.4695Z" fill="#4F4F4E"/>
<path fill-rule="evenodd" clip-rule="evenodd" d="M82.2627 39.656C82.2627 40.2114 82.0776 40.6742 81.7073 41.0445C81.337 41.5073 80.9668 41.6925 80.4114 41.785L81.5222 44.4695H79.9485L79.0228 41.6925H78.9303L78.3749 44.4695H76.9863L78.1897 38.5451C78.7451 38.2674 79.3931 38.1749 80.1336 38.1749C80.7816 38.1749 81.337 38.2674 81.7073 38.5451C82.0776 38.8228 82.2627 39.1931 82.2627 39.656ZM80.7816 39.7485C80.7816 39.2857 80.5039 39.008 79.9485 39.008C79.7634 39.008 79.6708 39.008 79.4857 39.1005L79.0228 41.3222C79.1154 41.3222 79.208 41.4148 79.3931 41.4148C79.8559 41.4148 80.1336 41.2296 80.4114 40.9519C80.6891 40.5816 80.7816 40.2114 80.7816 39.7485Z" fill="#4F4F4E"/>
<path fill-rule="evenodd" clip-rule="evenodd" d="M85.6877 44.4695H82.6329L83.9289 38.2675H85.41L84.2992 43.5438H85.8728L85.6877 44.4695Z" fill="#4F4F4E"/>
<path fill-rule="evenodd" clip-rule="evenodd" d="M88.3722 44.4695H86.8911L88.1871 38.2675H89.6682L88.3722 44.4695Z" fill="#4F4F4E"/>
<path fill-rule="evenodd" clip-rule="evenodd" d="M94.5742 44.4695H93.556L92.1675 40.9519C92.0749 40.8594 92.0749 40.6742 91.9823 40.5817V40.304H91.8898V40.5817C91.8898 40.6742 91.8898 40.8594 91.7972 41.0445L91.0567 44.4695H89.8533L91.1492 38.2675H92.4452L93.6486 41.4148C93.7411 41.5073 93.7411 41.6925 93.8337 41.8776L93.9263 42.0627V41.8776C93.9263 41.6925 94.0188 41.5073 94.0188 41.4148L94.6668 38.2675H95.8702L94.5742 44.4695Z" fill="#4F4F4E"/>
<path fill-rule="evenodd" clip-rule="evenodd" d="M100.406 39.1931H98.6472L98.2769 40.8594H99.8506L99.6655 41.785H98.0918L97.7215 43.5438H99.4803L99.2952 44.4695H96.0553L97.3513 38.2675H100.591L100.406 39.1931Z" fill="#4F4F4E"/>
<path fill-rule="evenodd" clip-rule="evenodd" d="M104.479 39.3783C104.294 39.2857 104.016 39.1931 103.646 39.1931C103.183 39.1931 102.905 39.3783 102.813 39.7485C102.72 39.8411 102.72 40.0262 102.72 40.1188C102.72 40.3039 102.813 40.5816 103.183 40.7668C103.276 40.8594 103.461 40.9519 103.739 41.1371C104.201 41.4148 104.386 41.8776 104.386 42.3404C104.386 42.8959 104.201 43.3587 103.831 43.8215C103.368 44.2844 102.72 44.5621 101.887 44.5621C101.147 44.5621 100.591 44.4695 100.314 44.1918L100.869 43.2661C101.054 43.4513 101.332 43.5438 101.702 43.5438C102.072 43.5438 102.257 43.4513 102.535 43.2661C102.72 43.081 102.813 42.8033 102.813 42.5256C102.813 42.3404 102.628 42.0627 102.35 41.8776C102.072 41.6925 101.887 41.5073 101.795 41.4148C101.424 41.1371 101.239 40.7668 101.239 40.3039C101.239 39.8411 101.424 39.2857 101.795 38.9154C102.257 38.36 102.813 38.1749 103.553 38.1749C104.201 38.1749 104.664 38.2674 105.034 38.5451L104.479 39.3783Z" fill="#4F4F4E"/>
</svg>
