<svg width="120" height="60" viewBox="0 0 120 60" fill="none" xmlns="http://www.w3.org/2000/svg">
<path d="M120 0H0V60H120V0Z" fill="white"/>
<path d="M109.4 28.1558C109.4 28.4464 109.4 28.8339 109.4 29.2214V29.4152C109.4 32.9025 108.142 36.2931 105.917 38.9086C103.304 41.9116 99.724 43.7522 95.7575 44.0428C95.3705 44.1397 94.9835 44.1397 94.5964 44.1397C90.9197 44.1397 87.3398 42.7835 84.5339 40.1679C81.8247 37.6493 80.0832 34.1619 79.7929 30.4807C79.2124 22.2466 85.3079 15.175 93.4354 14.4969C93.8224 14.4969 94.2094 14.4 94.5964 14.4C98.3699 14.4 101.95 15.8531 104.659 18.3718C107.368 20.8904 109.11 24.3778 109.4 28.1558Z" fill="#FF0023"/>
<path d="M91.4036 24.1841C92.2744 24.4747 92.5646 23.0216 91.6938 22.8278C89.9522 22.3435 88.1139 22.731 86.469 23.4091C85.5983 23.6997 86.082 25.0559 86.9528 24.6684C88.4042 24.1841 89.8555 23.7966 91.4036 24.1841ZM102.24 23.1185C103.208 23.4091 103.401 21.956 102.53 21.7623C100.789 21.2779 99.047 21.6654 97.4024 22.3435C96.5316 22.6341 97.0154 23.9903 97.8862 23.6028C99.241 23.1185 100.789 22.731 102.24 23.1185ZM103.401 19.2436C104.466 23.0216 105.433 26.8965 105.046 30.8682C102.724 29.6089 100.112 29.4151 97.6926 29.9964C97.0154 27.0902 96.2413 24.1841 95.4673 21.2779C95.2738 20.2123 93.7257 20.7935 94.016 21.7623C94.6932 24.7653 95.4673 27.6714 96.1446 30.5776C95.7575 30.7713 95.2738 30.9651 94.79 31.2557C93.8224 30.8682 92.8549 30.5776 91.8873 30.4807C91.9841 30.0932 92.2744 29.8995 92.6614 29.6089C93.0484 29.4151 93.0484 28.8339 92.8549 28.5433C92.5646 28.1558 92.0808 28.0589 91.6938 28.2527C90.9198 28.737 90.3393 29.6089 90.1457 30.4807C88.3074 30.6745 86.3723 31.3526 84.7275 32.4182C83.7599 28.6402 83.9534 24.4747 84.5339 20.6967C87.3398 21.2779 90.5328 20.7935 93.4354 20.2123C96.8219 19.5342 100.015 18.8561 103.208 19.2436C103.208 19.2436 103.304 19.2436 103.401 19.2436Z" fill="white"/>
<path d="M96.1447 32.2244C98.4668 30.965 101.756 30.8682 103.595 31.9338C101.176 32.7087 98.6603 32.9025 96.1447 32.2244Z" fill="white"/>
<path d="M86.469 33.29C88.6944 32.0306 91.3068 31.5463 93.7256 32.515C91.4035 33.4837 88.9846 33.7743 86.469 33.29Z" fill="white"/>
<path d="M97.4025 34.1619C97.596 35.0337 98.9505 41.1366 99.047 42.0085C99.338 41.9116 99.628 41.8147 99.918 41.621C99.725 41.0398 98.0797 35.1306 97.8862 34.2587C97.7895 34.2587 97.7895 34.2587 97.6927 34.1619C97.596 34.1619 97.4992 34.1619 97.4025 34.1619Z" fill="white"/>
<path d="M96.1447 33.9682L97.1122 42.4929C97.4992 42.4929 97.8863 42.396 98.1765 42.2992C98.0798 41.5242 96.7252 34.9369 96.5317 34.0651C96.4349 33.9682 96.2414 33.9682 96.1447 33.9682Z" fill="white"/>
<path d="M94.9835 33.7744C94.9835 34.5494 94.8867 41.9116 94.8867 42.7835C95.177 42.7835 95.4672 42.7835 95.6608 42.6866C95.8543 42.6866 96.0478 42.6866 96.2413 42.6866L95.3705 33.8713L94.9835 33.7744Z" fill="white"/>
<path d="M93.0483 42.6865C93.3386 42.6865 93.6289 42.6865 94.0159 42.7834C93.9191 42.1053 94.1126 34.3556 94.1126 34.0649C94.0159 34.0649 94.0159 34.0649 93.9191 34.1618C93.8224 34.1618 93.7256 34.1618 93.7256 34.1618C93.6289 34.5493 93.0483 42.1053 93.0483 42.6865Z" fill="white"/>
<path d="M91.21 42.2991C91.5002 42.396 91.7905 42.4929 92.0808 42.4929C92.0808 42.0085 92.758 34.84 92.8548 34.5494C92.6613 34.5494 92.4678 34.6462 92.2743 34.6462C92.1775 35.0337 91.21 41.9116 91.21 42.2991Z" fill="white"/>
<path d="M89.5652 41.7179C89.8555 41.9116 90.049 42.0085 90.2425 42.0085C90.3392 41.5241 91.3068 35.2275 91.3068 34.84C91.1133 34.9368 90.9198 34.9368 90.7262 34.9368C90.6295 35.2275 89.5652 41.3304 89.5652 41.7179Z" fill="white"/>
<path d="M87.9204 40.9429C88.1139 41.1366 88.4042 41.2335 88.5977 41.3304C88.6944 40.846 89.7588 35.3243 89.7588 35.0337C89.5652 35.0337 89.275 35.1306 88.9847 35.1306C88.888 35.8087 87.9204 40.846 87.9204 40.9429Z" fill="white"/>
<path d="M86.2755 39.8773C86.5658 40.071 86.856 40.2648 87.0496 40.4585C87.1463 40.3616 88.0171 35.7118 88.1139 35.0337C87.9203 35.0337 87.7268 35.0337 87.6301 35.0337C87.5333 35.3243 86.3723 39.6835 86.2755 39.8773Z" fill="white"/>
<path d="M84.8242 38.5211C85.0177 38.8117 85.308 39.0055 85.5015 39.1992C85.5983 39.1023 86.5658 35.4212 86.6626 34.9368C86.4691 34.84 86.2755 34.84 86.082 34.84C86.082 34.84 84.8242 38.2305 84.8242 38.5211Z" fill="white"/>
<path d="M82.7922 22.8278C82.2117 23.8934 81.7279 25.0559 81.5344 26.3152C81.8247 25.6371 82.502 24.5715 82.5987 24.4746C82.6955 24.184 82.6955 23.6997 82.7922 23.2153C82.7922 23.1184 82.7922 22.9247 82.7922 22.8278Z" fill="white"/>
<path d="M81.1476 28.5433C81.1476 28.9308 81.1476 29.6089 81.1476 30.0933C81.4378 29.4152 82.4054 27.6715 82.5989 27.284C82.5989 26.7997 82.5989 26.3153 82.5989 25.8309C82.4054 26.2184 81.2443 28.4465 81.1476 28.5433Z" fill="white"/>
<path d="M83.2761 36.5836C83.5664 36.9711 83.8567 37.3586 84.0502 37.6492C84.1469 37.6492 85.1145 34.8399 85.2112 34.5493C84.921 34.5493 84.5339 34.2587 84.2437 34.0649C84.2437 34.0649 83.4696 36.0992 83.2761 36.5836Z" fill="white"/>
<path d="M82.2118 34.4524C82.3085 34.8399 82.5021 35.2274 82.6956 35.518C82.7923 35.3243 83.4696 33.5806 83.4696 33.3868C83.3729 32.9993 83.2761 32.6119 83.1793 32.2244C82.9858 32.7087 82.2118 34.3555 82.2118 34.4524Z" fill="white"/>
<path d="M81.4377 31.8369C81.5345 32.3213 81.6313 32.8057 81.728 33.1931C82.115 32.4182 82.5021 31.5463 82.9858 30.8682C82.8891 30.3839 82.7923 29.7058 82.6956 29.0276C82.3085 29.8026 81.5345 31.6432 81.4377 31.8369Z" fill="white"/>
<path d="M106.691 29.0276C107.271 29.7057 107.658 30.1901 107.949 30.7713C108.045 30.3838 108.045 29.7057 108.045 29.4151C108.045 29.4151 106.981 28.1558 106.594 27.7683C106.594 28.1558 106.691 28.6402 106.691 29.0276Z" fill="white"/>
<path d="M106.497 26.1215C106.594 26.2183 107.949 27.8651 108.142 28.1558C108.142 27.7683 107.949 27.187 107.949 26.8964C107.755 26.7027 106.788 25.3465 106.304 24.8621C106.401 25.1527 106.401 25.3465 106.497 25.734C106.497 25.8308 106.497 26.0246 106.497 26.1215Z" fill="white"/>
<path d="M106.304 31.7401C106.304 31.837 107.272 33.0963 107.465 33.3869C107.562 32.9995 107.659 32.5151 107.755 32.0307C107.659 31.837 106.884 30.7714 106.594 30.287C106.497 30.7714 106.497 31.062 106.304 31.7401Z" fill="white"/>
<path d="M105.24 32.8056C105.336 32.9994 106.401 35.1306 106.497 35.518C106.691 35.2274 106.884 34.8399 106.981 34.5493C106.884 34.3556 106.014 32.8056 105.82 32.4182C105.627 32.6119 105.336 32.8056 105.24 32.8056Z" fill="white"/>
<path d="M106.014 23.0216L106.11 23.1185C106.497 23.6997 107.078 24.3778 107.562 24.9591C107.078 23.7966 106.304 22.4404 105.627 21.4717C105.627 21.5686 105.627 21.6654 105.627 21.7623C105.82 22.1498 105.917 22.6341 106.014 23.0216Z" fill="white"/>
<path d="M103.691 33.4837C103.788 33.6775 105.046 36.8742 105.239 37.4555C105.53 37.1649 105.723 36.8742 106.014 36.4868C105.917 36.3899 104.562 33.5806 104.369 33.1931C104.175 33.29 103.885 33.3869 103.691 33.4837Z" fill="white"/>
<path d="M102.047 33.9682C102.143 34.2588 103.788 38.7149 103.885 39.0055C104.078 38.8117 104.369 38.618 104.562 38.3274C104.562 38.2305 103.014 34.2588 102.821 33.7744C102.627 33.8713 102.337 33.8713 102.047 33.9682Z" fill="white"/>
<path d="M100.402 34.2587C100.692 34.9368 102.143 39.6836 102.337 40.3617C102.627 40.1679 102.917 39.8773 103.111 39.6836C103.014 39.3929 101.273 34.3556 101.176 34.1619C100.886 34.1619 100.692 34.1619 100.402 34.2587Z" fill="white"/>
<path d="M98.7568 34.2587C98.7568 34.2587 100.692 40.846 100.789 41.2335C100.982 41.1366 101.272 41.0398 101.466 40.846C101.369 40.3617 99.531 34.2587 99.531 34.2587C99.241 34.2587 98.9503 34.2587 98.7568 34.2587Z" fill="white"/>
<path d="M87.3398 17.9842C89.2749 18.2748 90.7263 18.0811 92.1776 17.8873C92.3711 17.8873 92.6614 17.7905 92.8549 17.7905C93.2419 17.7905 93.6289 17.6936 94.0159 17.5967C95.0803 17.4999 95.9511 17.403 96.8218 17.403C98.4667 17.3061 99.725 17.4999 100.402 17.5967C99.628 17.3061 97.6926 16.7249 94.6932 17.1124C94.403 17.1124 94.0159 17.2092 93.6289 17.2092C92.2744 17.403 90.5328 17.5967 89.2749 17.5967C89.0814 17.5967 88.4042 17.4999 88.1139 17.4999C87.8236 17.5967 87.5334 17.7905 87.3398 17.9842Z" fill="white"/>
<path d="M94.5965 15.853C94.3063 15.853 93.9193 15.853 93.5322 15.853C92.2744 15.9499 90.9199 16.2405 89.7588 16.7249C90.9199 16.7249 91.8874 16.5311 93.0485 16.4343C94.403 16.2405 95.7576 16.0468 97.3057 16.0468C96.4349 15.9499 95.5641 15.853 94.5965 15.853Z" fill="white"/>
<path d="M85.5015 19.3404C88.2106 19.8248 91.0165 19.2436 93.6289 18.6623H93.8224C94.3062 18.5654 94.79 18.4686 95.3705 18.3717C94.4997 18.4686 93.7257 18.5654 92.9516 18.6623C91.597 18.8561 90.049 19.0498 88.4041 18.9529C87.6301 18.9529 86.9528 18.8561 86.2755 18.7592C85.9852 18.9529 85.7917 19.1467 85.5015 19.3404Z" fill="white"/>
<path d="M28.8673 29.2213C30.2218 26.3151 32.1569 26.9932 32.0602 27.5745C32.1569 28.4463 28.964 29.9963 28.8673 29.2213ZM74.7292 24.2808C73.2779 24.4746 71.7298 24.5714 70.2785 24.6683C69.6979 24.7652 69.1174 24.7652 68.5369 24.7652C66.892 24.9589 65.344 25.2496 63.7959 25.5402C62.9251 25.7339 62.0543 25.9277 61.0867 26.0245C60.6997 26.1214 60.2159 26.1214 59.9257 25.7339C59.7322 25.4433 59.4419 25.4433 59.2484 25.7339C58.9581 26.1214 59.0549 26.5089 59.1516 26.8964C59.2484 27.3807 59.5387 27.7682 60.0224 27.962C60.1192 28.0588 60.3127 28.0588 60.4094 28.1557C60.5062 28.2526 60.5062 28.3494 60.5062 28.4463C60.1192 29.5119 59.8289 30.5775 59.5387 31.5462C59.5387 31.6431 59.4419 31.74 59.4419 31.8368V31.74C59.4419 31.3525 59.5387 30.8681 58.4743 29.9963C58.0873 29.7057 56.249 28.0588 56.1522 27.8651C55.9587 27.5745 56.249 27.3807 56.4425 27.3807C56.5392 27.3807 57.1198 27.7682 57.1198 27.7682C58.5711 28.4463 58.2808 27.6713 58.6679 27.5745C58.9581 27.5745 58.8614 26.7995 58.5711 26.412C58.2808 26.0245 57.8938 25.637 57.41 25.5402C56.5392 25.2496 55.3782 24.9589 54.7009 25.2496C54.8944 25.1527 54.8944 25.1527 54.9912 25.0558C55.0879 24.8621 54.8944 24.6683 54.4106 24.7652C53.5398 24.8621 51.508 24.9589 50.1534 25.3464C49.2826 25.5402 48.0248 25.7339 47.2507 26.1214C47.0572 26.2183 46.9605 26.3151 46.8637 26.412C46.9605 26.3151 46.9605 26.2183 46.9605 26.2183C47.0572 26.0245 46.767 25.4433 46.0897 25.4433C45.8962 25.4433 45.0254 25.7339 44.7351 25.4433C44.4448 25.1527 43.9611 25.4433 43.574 25.7339C43.4773 25.8308 42.8 26.7995 42.6065 27.0901C42.026 27.7682 41.5422 28.4463 41.0584 29.1244C40.9617 29.3182 40.7681 29.415 40.6714 29.5119C40.5746 29.6088 40.4779 29.6088 40.3811 29.5119C40.2844 29.3182 40.2844 29.0276 40.1876 28.7369C39.9941 28.4463 39.8973 28.0588 39.7038 27.7682C39.6071 27.5745 39.4136 27.3807 39.3168 27.2839C38.6395 27.0901 37.9622 26.9932 37.285 27.187C36.9947 27.2839 36.8012 27.4776 36.6077 27.6713C36.4142 27.8651 36.1239 28.1557 36.0271 28.4463C35.6401 29.2213 35.2531 29.8994 34.9628 30.6744C34.8661 30.6744 34.7693 30.965 34.6726 31.2556L34.4791 31.3525C31.0926 33.4837 29.5445 31.5462 29.5445 31.5462C30.3186 31.1587 33.8018 30.0931 34.8661 28.0588C35.3499 27.4776 35.0596 27.0901 34.5758 26.412C34.3823 26.2183 34.1888 25.9277 33.9953 25.7339C33.0277 24.9589 31.8667 24.8621 30.6089 25.0558C29.6413 25.2496 28.964 25.0558 28.0932 25.637C27.3192 26.2183 26.0614 27.2839 25.4808 28.0588C24.7068 29.0276 24.0295 30.2869 23.5457 31.1587C23.3522 31.2556 23.1587 31.3525 23.1587 31.3525C21.3204 32.2243 16.5794 34.1618 15.128 34.8399C12.7091 36.0023 13.967 32.9993 14.1605 32.5149C14.1605 32.4181 14.2572 32.2243 14.354 32.1275C15.4183 31.4493 20.6431 29.5119 23.2555 28.1557C24.0295 27.8651 24.3198 27.0901 24.4165 26.9932V26.8964C24.1263 26.7026 23.836 26.7995 23.5457 26.8964C23.3522 26.8964 23.1587 26.7995 22.9652 26.7995C20.4496 27.4776 18.1274 28.3494 15.8053 29.0276C14.9345 29.3182 15.8053 27.5745 16.0956 27.0901C17.0631 26.7026 19.869 25.637 20.5463 25.3464C21.9009 24.7652 23.1587 24.3777 24.4165 23.6996C24.9003 23.409 25.3841 23.0215 25.7711 22.634C25.9646 22.4403 26.0614 22.2465 25.9646 21.9559C25.7711 21.6653 25.4808 21.5684 25.1906 21.5684C24.8035 21.6653 24.4165 21.6653 24.1263 21.7622C23.1587 21.9559 22.1912 22.2465 21.2236 22.5371C19.7723 23.0215 18.4177 23.6027 17.0631 24.0871C16.6761 24.184 16.1923 23.8933 15.9021 23.6996C15.3215 23.409 14.6442 23.409 14.0637 23.5059C13.967 23.5059 13.6767 23.6027 13.6767 23.6996C13.5799 23.7965 13.6767 23.8933 13.7735 23.9902C13.8702 24.3777 14.354 24.9589 13.967 25.1527C13.6767 25.2496 13.2897 25.3464 12.9027 25.4433C12.3221 25.5402 11.8383 25.637 11.1611 25.4433C10.9676 25.4433 10.6773 25.3464 10.387 25.3464C10.1935 25.4433 10.0968 25.4433 10 25.5402C10.1935 25.8308 10.4838 26.3151 10.6773 26.6058C10.774 26.7995 10.9676 26.9932 11.1611 27.0901C11.5481 27.2839 12.0319 27.4776 12.5156 27.3807C12.7091 27.3807 12.9027 27.4776 13.2897 27.4776C12.8059 28.3494 12.4189 29.7057 11.5481 30.2869C10.9676 30.6744 10.774 31.2556 10.8708 31.9337C10.9676 32.2243 11.1611 32.3212 11.0643 32.6118C10.774 33.3868 10.5805 33.8711 10.387 34.6461C10.2903 35.1305 10.387 35.6148 10.4838 36.0992C10.6773 36.7773 11.0643 37.3585 11.6448 37.5523C12.6124 37.9398 13.5799 38.1335 14.5475 37.8429C15.2248 37.6491 15.9021 37.3585 16.5794 36.971C19.1917 35.518 21.6106 34.1618 22.8684 33.3868C22.9652 34.2586 23.449 35.0336 24.0295 35.518C24.5133 35.9055 25.2873 35.7117 25.3841 35.2273C25.5776 34.4524 26.0614 33.8711 26.3516 33.0962C26.5451 32.7087 26.7386 32.2243 27.2224 31.8368C27.3192 32.1275 27.4159 32.4181 27.6094 32.6118C27.803 33.193 28.2867 33.5805 28.7705 33.8711C31.0926 35.2273 33.1245 33.6774 34.092 32.9024C33.8018 33.5805 33.705 34.2586 33.9953 34.6461C34.4791 35.3242 34.6726 35.3242 35.2531 35.1305C35.5434 35.1305 35.6401 34.9367 35.8336 34.6461C36.3174 33.7743 36.8979 32.9024 37.285 31.9337C37.4785 31.5462 37.672 31.1587 38.059 30.6744C38.1558 30.5775 38.2525 30.6744 38.3493 30.7712C38.5428 31.2556 39.1233 32.3212 39.3168 32.8056C39.7038 33.6774 40.0909 34.1618 40.8649 34.6461C41.1552 34.8399 41.4454 34.8399 41.7357 34.5492C42.1227 34.1618 43.3805 31.6431 44.6384 29.8994C45.3156 29.1244 45.9929 27.962 46.4767 27.0901C46.3799 27.3807 46.2832 27.7682 46.2832 27.8651C46.1864 28.2526 45.9929 28.8338 45.7027 29.8025C45.3156 30.8681 45.2189 32.2243 45.9929 33.193C46.767 34.0649 47.7345 34.743 48.7988 34.1618C49.8631 33.8711 51.4112 32.8056 51.508 30.965C51.6047 30.6744 50.9274 30.6744 50.8307 30.8681C50.3469 31.4493 49.6696 31.8368 48.8956 31.9337C48.6053 32.0306 48.3151 31.9337 48.0248 31.9337C47.928 31.8368 47.8313 31.6431 47.8313 31.5462C47.6378 30.6744 48.7021 30.5775 48.8956 30.4806C49.6696 30.19 50.0566 30.0931 50.6372 29.5119C50.7339 29.3182 50.8307 29.1244 50.8307 28.8338C50.8307 28.6401 50.7339 28.4463 50.5404 28.5432C50.2502 28.5432 50.0566 28.6401 49.7664 28.6401C49.4761 28.7369 48.9923 28.9307 48.7988 28.7369C48.6053 28.5432 48.7021 28.2526 48.9923 27.962C49.4761 27.5745 50.3469 27.7682 50.9274 27.4776C51.895 27.0901 52.7658 26.7995 53.6366 26.1214C53.7333 26.1214 54.0236 25.8308 54.3139 25.637C54.2171 25.7339 54.1204 25.8308 54.1204 25.8308C53.9269 26.1214 53.5398 26.8964 53.8301 27.7682C54.2171 28.9307 57.9906 30.965 56.636 31.8368C56.5392 31.9337 55.1847 31.8368 54.5074 31.2556C54.1204 30.965 53.8301 30.5775 53.8301 30.0931C53.7333 29.8025 53.6366 29.5119 53.5398 29.3182C53.5398 29.2213 53.4431 29.1244 53.3463 29.1244C53.0561 29.2213 52.8625 29.415 52.669 29.6088C52.1853 29.9963 51.9917 30.4806 52.1853 31.1587C52.282 31.5462 52.3788 31.9337 52.4755 32.3212C52.669 32.9024 52.8625 33.4837 53.4431 33.7743C54.2171 34.2586 55.2814 34.6461 56.5392 34.3555C57.41 34.0649 58.1841 33.8711 58.8614 33.193C58.9581 33.0962 59.1516 32.8056 59.3451 32.4181C59.2484 32.6118 59.2484 32.7087 59.2484 32.7087C59.1516 33.2899 58.6679 34.8399 59.0549 34.8399C60.1192 34.5492 60.99 32.5149 61.1835 32.1275C61.4738 31.74 62.2478 29.5119 62.4413 28.9307C62.7316 28.0588 66.6985 27.6713 67.6661 27.187C67.7628 27.0901 67.9564 27.0901 68.1499 26.9932C68.7304 26.8964 73.4714 25.4433 74.3422 25.0558C74.7292 24.9589 74.9227 24.7652 75.0195 24.3777C74.9227 24.3777 74.826 24.2808 74.7292 24.2808Z" fill="#FF0023"/>
</svg>
