<svg width="120" height="60" viewBox="0 0 120 60" fill="none" xmlns="http://www.w3.org/2000/svg">
<path d="M120 0H0V60H120V0Z" fill="white"/>
<path d="M87.6699 23.1962C87.5297 23.6284 87.318 24.0058 87.0324 24.3283C86.7456 24.6509 86.3784 24.9008 85.9321 25.0768C85.4846 25.2527 84.9529 25.3407 84.3359 25.3407C83.8667 25.3407 83.4854 25.319 83.1922 25.2744C82.8989 25.2298 82.709 25.1864 82.621 25.1431V21.2263C82.621 20.3912 82.8326 19.6938 83.2585 19.1366C83.6843 18.5794 84.3218 18.3015 85.1722 18.3015C86.0227 18.3015 86.6869 18.6126 87.1638 19.236C87.6393 19.8595 87.879 20.6844 87.879 21.7108C87.879 22.2246 87.8089 22.7627 87.6699 23.1962ZM89.4957 17.2445C89.0189 16.7766 88.4681 16.4196 87.8459 16.1786C87.2224 15.9364 86.5594 15.8153 85.8544 15.8153C85.3405 15.8153 84.8892 15.8777 84.5016 16.0027C84.1127 16.1264 83.7825 16.2742 83.5122 16.4425C83.2406 16.6108 83.0315 16.7689 82.8849 16.9156C82.7383 17.0622 82.6503 17.1578 82.621 17.2012V12.0005L79.5406 12.8904V27.4087C79.6286 27.4227 79.8007 27.4482 80.0583 27.4852C80.3145 27.5222 80.6333 27.5553 81.0145 27.5847C81.3957 27.614 81.828 27.6433 82.3124 27.6726C82.7969 27.702 83.3031 27.716 83.831 27.716C86.2203 27.716 88.0218 27.1626 89.2318 26.0559C90.4418 24.948 91.0461 23.3466 91.0461 21.3806C91.0461 20.4868 90.9071 19.6912 90.6279 18.9938C90.35 18.2977 89.9726 17.715 89.4957 17.2445ZM73.7229 22.3049C73.7229 23.1413 73.5099 23.8375 73.0854 24.3946C72.6595 24.9518 72.022 25.231 71.1703 25.231C70.3212 25.231 69.6569 24.9199 69.1801 24.2965C68.7045 23.673 68.4648 22.8481 68.4648 21.8217C68.4648 21.3079 68.5349 20.7686 68.6752 20.3364C68.8142 19.9041 69.0258 19.5267 69.3127 19.2042C69.5983 18.8803 69.9655 18.6317 70.413 18.4558C70.8605 18.2798 71.3909 18.1918 72.008 18.1918C72.4772 18.1918 72.8584 18.2135 73.1517 18.2581C73.4449 18.3015 73.6349 18.3461 73.7229 18.3895V22.3049ZM75.3077 16.3099C74.8818 16.185 74.3616 16.0715 73.7458 15.9683C73.1287 15.8663 72.4249 15.8153 71.6332 15.8153C70.6501 15.8153 69.7704 15.9657 68.9939 16.2653C68.2162 16.5662 67.5519 16.9882 67.0024 17.5314C66.4529 18.0733 66.0309 18.7299 65.7376 19.5C65.4444 20.2701 65.2978 21.2263 65.2978 22.1507C65.2978 23.0597 65.4367 23.863 65.716 24.5591C65.9939 25.2565 66.3675 25.8392 66.8379 26.3084C67.3071 26.7776 67.8567 27.1295 68.4878 27.3641C69.1176 27.5987 69.7857 27.716 70.4895 27.716C70.988 27.716 71.4317 27.6535 71.8206 27.5286C72.2095 27.4049 72.5384 27.2621 72.8112 27.1002C73.0815 26.9395 73.2945 26.7814 73.4487 26.6271C73.6017 26.4741 73.6935 26.3747 73.7229 26.3301V27.4087L76.8032 27.4074V16.9372C76.7293 16.8926 76.5686 16.8085 76.3187 16.6835C76.0701 16.5598 75.7322 16.4349 75.3077 16.31V16.3099ZM65.2608 16.25C64.951 16.0881 64.5034 15.9491 63.8608 15.8459C63.4936 15.7872 63.1048 15.7592 62.6942 15.7592C62.0198 15.7592 61.3963 15.8216 60.8251 15.9453C60.2526 16.0703 59.7503 16.2092 59.3181 16.3635C58.8846 16.5178 58.5365 16.6682 58.2726 16.8148C58.0087 16.9615 57.8467 17.0571 57.7894 17.1004V27.4087H60.8685V18.7949C61.001 18.721 61.2356 18.6228 61.5735 18.4978C61.9101 18.3729 62.387 18.3104 63.0028 18.3104C63.2081 18.3104 63.4248 18.3257 63.6517 18.355C63.8787 18.3844 64.061 18.4086 64.2892 18.4749C64.3084 18.4813 64.3249 18.4851 64.3428 18.4915C64.6615 17.7188 64.9573 16.9959 65.2302 16.3253C65.2404 16.2997 65.2506 16.2755 65.2608 16.25L65.2608 16.25ZM106.92 22.3049C106.92 23.1413 106.707 23.8375 106.282 24.3946C105.856 24.9518 105.219 25.231 104.367 25.231C103.518 25.231 102.854 24.9199 102.377 24.2965C101.901 23.673 101.662 22.8481 101.662 21.8217C101.662 21.3079 101.732 20.7686 101.871 20.3364C102.011 19.9041 102.223 19.5267 102.509 19.2042C102.795 18.8803 103.162 18.6317 103.609 18.4558C104.056 18.2798 104.588 18.1918 105.205 18.1918C105.673 18.1918 106.055 18.2135 106.348 18.2581C106.642 18.3015 106.832 18.3461 106.92 18.3895V22.3049ZM109.516 16.6835C109.267 16.5598 108.929 16.4349 108.504 16.31C108.079 16.185 107.558 16.0715 106.941 15.9683C106.326 15.8663 105.622 15.8153 104.83 15.8153C103.847 15.8153 102.967 15.9657 102.189 16.2653C101.412 16.5662 100.749 16.9882 100.199 17.5314C99.6484 18.0733 99.2277 18.7299 98.9344 19.5C98.6412 20.2701 98.4946 21.2263 98.4946 22.1507C98.4946 23.0597 98.6335 23.863 98.9115 24.5591C99.1907 25.2565 99.5643 25.8392 100.035 26.3084C100.504 26.7776 101.053 27.1295 101.685 27.3641C102.314 27.5987 102.983 27.716 103.686 27.716C104.185 27.716 104.629 27.6535 105.017 27.5286C105.405 27.4049 105.735 27.2621 106.007 27.1002C106.278 26.9395 106.491 26.7814 106.646 26.6271C106.799 26.4741 106.89 26.3747 106.92 26.3301V27.4087L110 27.4074V16.9372C109.926 16.8926 109.764 16.8085 109.516 16.6835V16.6835ZM94.8124 11.7366C94.3419 11.7366 93.939 11.8985 93.6024 12.2211C93.2646 12.5436 93.095 12.9389 93.095 13.4081C93.095 13.8773 93.2646 14.2776 93.6024 14.6078C93.939 14.9368 94.3419 15.1025 94.8124 15.1025C95.2956 15.1025 95.7062 14.9368 96.0428 14.6078C96.3806 14.2776 96.5489 13.8773 96.5489 13.4081C96.5489 12.9389 96.3806 12.5436 96.0428 12.2211C95.7062 11.8985 95.2956 11.7366 94.8124 11.7366ZM93.2824 27.4074H96.3628V15.8153L93.2824 16.7039V27.4074ZM45.6145 21.1141C45.8797 20.4001 46.15 19.6797 46.4229 18.9581C46.6944 18.2352 46.9456 17.5709 47.1738 16.9653C47.4033 16.3584 47.606 15.8382 47.7833 15.4034C47.9592 14.9687 48.0854 14.6729 48.1594 14.5173C48.2333 14.6729 48.3583 14.9687 48.5355 15.4034C48.7127 15.8382 48.9155 16.3584 49.1437 16.9653C49.3719 17.5709 49.6231 18.2352 49.8959 18.9581C50.1688 19.6797 50.4378 20.4001 50.703 21.1141H45.6145ZM54.1544 21.6496C53.7859 20.687 53.4174 19.7588 53.049 18.8637C52.6792 17.97 52.3401 17.1438 52.0302 16.3826C51.7204 15.6202 51.4412 14.9559 51.19 14.3885C50.9401 13.8212 50.74 13.3826 50.5921 13.0715C50.2682 12.3409 50.1267 12.0132 50.1267 12.0132H46.1908C46.1908 12.0132 46.0493 12.3409 45.7254 13.0715C45.5775 13.3826 45.3786 13.8212 45.1287 14.3885C44.8776 14.9559 44.5971 15.6202 44.2873 16.3826C43.9787 17.1438 43.6383 17.97 43.2698 18.8637C42.9013 19.7588 42.5329 20.687 42.1631 21.6496C41.7947 22.6135 41.4262 23.585 41.0577 24.5642C40.6892 25.5434 40.3424 26.4907 40.0186 27.4074H43.2698L44.5308 24.0045H51.7867L53.049 27.4074H56.3002C55.9763 26.4907 55.6295 25.5434 55.2598 24.5642C54.8913 23.585 54.5228 22.6135 54.1544 21.6496ZM29.5165 11.7366C29.0473 11.7366 28.6432 11.8985 28.3066 12.2211C27.9687 12.5436 27.8004 12.9389 27.8004 13.4081C27.8004 13.8773 27.9687 14.2776 28.3066 14.6078C28.6432 14.9368 29.0473 15.1025 29.5165 15.1025C29.9998 15.1025 30.4103 14.9368 30.7482 14.6078C31.0848 14.2776 31.2543 13.8773 31.2543 13.4081C31.2543 12.9389 31.0848 12.5436 30.7482 12.2211C30.4103 11.8985 29.9998 11.7366 29.5165 11.7366ZM27.9878 27.4074H31.0669V15.8153L27.9878 16.7039V27.4074ZM15.5975 21.1141C15.864 20.4001 16.133 19.6797 16.4059 18.9581C16.6787 18.2352 16.9299 17.5709 17.1581 16.9653C17.3863 16.3584 17.5903 15.8382 17.7675 15.4034C17.9435 14.9687 18.0697 14.6729 18.1424 14.5173C18.2176 14.6729 18.3426 14.9687 18.5185 15.4034C18.697 15.8382 18.8997 16.3584 19.1279 16.9653C19.3562 17.5709 19.6073 18.2352 19.8789 18.9581C20.153 19.6797 20.4221 20.4001 20.6873 21.1141H15.5975ZM24.1386 21.6496C23.7702 20.687 23.4004 19.7588 23.032 18.8637C22.6635 17.97 22.3243 17.1438 22.0145 16.3826C21.7047 15.6202 21.4242 14.9559 21.173 14.3885C20.9231 13.8212 20.7242 13.3826 20.5763 13.0715C20.2512 12.3409 20.111 12.0132 20.111 12.0132H16.1751C16.1751 12.0132 16.0336 12.3409 15.7097 13.0715C15.5618 13.3826 15.3629 13.8212 15.1117 14.3885C14.8618 14.9559 14.5813 15.6202 14.2715 16.3826C13.9617 17.1438 13.6226 17.97 13.2541 18.8637C12.8856 19.7588 12.5159 20.687 12.1474 21.6496C11.7789 22.6135 11.4105 23.585 11.0407 24.5642C10.6722 25.5434 10.3254 26.4907 10.0029 27.4074H13.2541L14.515 24.0045H21.771L23.032 27.4074H26.2832C25.9593 26.4907 25.6125 25.5434 25.2441 24.5642C24.8756 23.585 24.5071 22.6135 24.1386 21.6496ZM40.5197 18.4915C40.8371 17.7188 41.1342 16.9959 41.4071 16.3252C41.4172 16.2997 41.4275 16.2755 41.4376 16.25C41.1278 16.0881 40.6803 15.9491 40.0377 15.8459C39.6705 15.7872 39.2816 15.7592 38.8711 15.7592C38.1966 15.7592 37.5732 15.8216 37.002 15.9453C36.4295 16.0703 35.9272 16.2092 35.4949 16.3635C35.0614 16.5178 34.7134 16.6682 34.4494 16.8148C34.1855 16.9615 34.0236 17.0571 33.9662 17.1004V27.4087H37.0453V18.7949C37.1779 18.7209 37.4112 18.6228 37.7504 18.4978C38.087 18.3729 38.5638 18.3104 39.1796 18.3104C39.3849 18.3104 39.6004 18.3257 39.8286 18.355C40.0556 18.3844 40.2379 18.4086 40.4661 18.4749C40.4852 18.4813 40.5018 18.4851 40.5197 18.4915" fill="#E81142"/>
<path d="M69.4488 40.2682C69.4488 40.9759 69.269 41.5649 68.9095 42.0366C68.5487 42.5084 68.0093 42.7443 67.2902 42.7443C66.5699 42.7443 66.0089 42.4803 65.6047 41.9538C65.2018 41.4259 65.0004 40.7272 65.0004 39.859C65.0004 39.4242 65.059 38.969 65.1776 38.6031C65.2949 38.2372 65.4747 37.9172 65.7169 37.6443C65.9592 37.3715 66.269 37.1611 66.6477 37.0119C67.0263 36.8627 67.4751 36.7875 67.9979 36.7875C68.3944 36.7875 68.717 36.8066 68.9656 36.8436C69.2129 36.8806 69.3748 36.9188 69.4488 36.9558V40.2682ZM86.4648 34.875L83.8536 35.6286V42.5721H80.7924C80.4545 42.5721 80.1816 42.525 79.9751 42.4306C79.7673 42.3363 79.6117 42.1998 79.5059 42.0175C79.3988 41.8365 79.3299 41.6133 79.2981 41.3507C79.2675 41.088 79.2509 40.7821 79.2509 40.4302V34.875L76.6588 35.6235V40.4302C76.6588 40.7821 76.641 41.088 76.6027 41.3507C76.5645 41.6133 76.4931 41.8365 76.386 42.0175C76.2802 42.1998 76.1259 42.3363 75.927 42.4306C75.7256 42.525 75.4565 42.5721 75.1187 42.5721H72.0561V35.7242C71.9937 35.6872 71.8572 35.6158 71.6456 35.51C71.434 35.4054 71.1496 35.2996 70.7901 35.1938C70.4293 35.088 69.9894 34.9923 69.4679 34.9056C68.9465 34.8189 68.351 34.7743 67.6804 34.7743C66.8478 34.7743 66.1045 34.9018 65.4453 35.1568C64.7874 35.4118 64.2265 35.7688 63.7611 36.2278C63.2957 36.6868 62.9387 37.2427 62.6901 37.8942C62.4415 38.5457 62.3178 39.3553 62.3178 40.1382C62.3178 40.9083 62.4364 41.5878 62.6722 42.1769C62.9068 42.7659 63.2243 43.2594 63.6208 43.6571C64.0186 44.0537 64.484 44.352 65.0182 44.5509C65.5512 44.7485 66.116 44.848 66.7114 44.848C67.1334 44.848 67.5095 44.7957 67.8385 44.6899C68.1674 44.5853 68.4467 44.4642 68.6762 44.3265C68.9057 44.1901 69.0867 44.0575 69.2155 43.9274C69.3468 43.7961 69.4246 43.712 69.4488 43.675V44.7893H72.0561V44.788L75.6822 44.7893C76.1705 44.7893 76.6282 44.7014 77.0541 44.5254C77.4787 44.3507 77.8178 44.0129 78.0677 43.5105C78.3189 44.0129 78.6338 44.3507 79.0163 44.5254C79.3988 44.7014 79.8336 44.7893 80.3219 44.7893H86.4648V34.875ZM78.0919 45.6908C77.6903 45.6908 77.3461 45.8284 77.0579 46.1038C76.7698 46.3792 76.6257 46.7171 76.6257 47.1175C76.6257 47.5191 76.7698 47.8595 77.0579 48.1413C77.3461 48.423 77.6903 48.5646 78.0919 48.5646C78.505 48.5646 78.8544 48.423 79.1425 48.1413C79.4307 47.8595 79.5747 47.5191 79.5747 47.1175C79.5747 46.7171 79.4307 46.3792 79.1425 46.1038C78.8544 45.8284 78.505 45.6908 78.0919 45.6908ZM43.9299 42.6716C42.9482 42.961 41.5177 42.6779 41.4093 42.627V37.2363C41.4093 37.2363 42.442 36.5045 43.7068 36.7454C44.9716 36.9864 45.8628 37.9937 45.8628 39.8194C45.8628 41.2665 45.1858 42.3018 43.9299 42.6716ZM57.0763 42.5721H55.3283C54.9905 42.5721 54.7189 42.525 54.5123 42.4306C54.3058 42.3363 54.149 42.1998 54.0431 42.0175C53.936 41.8365 53.8672 41.6133 53.8353 41.3507C53.8034 41.088 53.7894 40.7821 53.7894 40.4302V31.3166L51.177 32.0713V40.4302C51.177 40.7821 51.1617 41.088 51.1311 41.3507C51.0992 41.6133 51.0303 41.8365 50.9232 42.0175C50.8174 42.1998 50.6644 42.3363 50.4642 42.4306C50.2628 42.525 49.9938 42.5721 49.6559 42.5721H47.9168C48.3261 41.8059 48.5467 40.8509 48.5467 39.7455C48.5467 36.8576 46.8956 35.0765 44.5203 34.8075C43.1548 34.6532 41.8135 35.1288 41.408 35.2894L41.4093 31.3166L38.7994 32.0535V42.5721H37.7093C37.3714 42.5721 37.0986 42.525 36.8933 42.4306C36.6855 42.3363 36.5287 42.1998 36.4229 42.0175C36.317 41.8365 36.2469 41.6133 36.2163 41.3507C36.1844 41.088 36.1691 40.7821 36.1691 40.4302V34.875L33.5771 35.6235V40.4302C33.5771 40.7821 33.558 41.088 33.5197 41.3507C33.484 41.6133 33.4113 41.8365 33.3042 42.0175C33.1971 42.1998 33.0441 42.3363 32.844 42.4306C32.6438 42.525 32.3748 42.5721 32.0369 42.5721H28.9744V34.8776L26.3645 35.6311C26.3645 35.6337 26.3632 35.6349 26.3632 35.6375V44.7052C26.3632 45.2687 26.2281 45.6601 25.959 45.8794C25.69 46.0987 25.3241 46.2084 24.8612 46.2084C24.5591 46.2084 24.2849 46.1701 24.0338 46.0962C23.7839 46.0197 23.6258 45.97 23.5646 45.9457L22.9437 47.6925C22.9692 47.704 23.0508 47.7397 23.1885 47.7958C23.3262 47.8519 23.5021 47.9092 23.715 47.9653C23.9267 48.0214 24.1715 48.0712 24.4469 48.1145C24.7223 48.1579 25.0104 48.1808 25.3113 48.1808C25.7996 48.1808 26.2663 48.1209 26.7112 48.0023C27.1549 47.8825 27.5425 47.6772 27.8766 47.3814C28.2068 47.0881 28.4733 46.6993 28.6735 46.2186C28.8724 45.7417 28.9705 45.14 28.9731 44.4145V44.7893H32.6004C33.0887 44.7893 33.5452 44.7014 33.971 44.5254C34.3969 44.3507 34.736 44.0129 34.9859 43.5105C35.2358 44.0129 35.552 44.3507 35.9345 44.5254C36.317 44.7014 36.7518 44.7893 37.2401 44.7893H50.2195C50.7078 44.7893 51.1642 44.7014 51.5913 44.5254C52.0172 44.3507 52.3551 44.0129 52.6049 43.5105C52.8549 44.0129 53.1723 44.3507 53.5535 44.5254C53.936 44.7014 54.3708 44.7893 54.8591 44.7893H59.6875V31.3166L57.0763 32.0701V42.5721ZM74.1764 45.6908C73.7748 45.6908 73.4306 45.8284 73.1424 46.1038C72.8543 46.3792 72.7102 46.7171 72.7102 47.1175C72.7102 47.5191 72.8543 47.8595 73.1424 48.1413C73.4306 48.423 73.7748 48.5646 74.1764 48.5646C74.5895 48.5646 74.9402 48.423 75.227 48.1413C75.5165 47.8595 75.6605 47.5191 75.6605 47.1175C75.6605 46.7171 75.5165 46.3792 75.227 46.1038C74.9402 45.8284 74.5895 45.6908 74.1764 45.6908ZM82.024 45.6908C81.6109 45.6908 81.2603 45.831 80.9734 46.1128C80.6853 46.3958 80.5399 46.7362 80.5399 47.1366C80.5399 47.5382 80.6853 47.8748 80.9734 48.1515C81.2603 48.4269 81.6109 48.5646 82.024 48.5646C82.4256 48.5646 82.7699 48.4269 83.058 48.1515C83.3462 47.8748 83.4902 47.5382 83.4902 47.1366C83.4902 46.7362 83.3462 46.3958 83.058 46.1128C82.7699 45.831 82.4256 45.6908 82.024 45.6908ZM107.368 32.0764V44.8072H109.998V31.3166L107.368 32.0764ZM102.755 41.3316C102.755 41.8964 102.62 42.2865 102.351 42.5058C102.082 42.7251 101.715 42.8348 101.252 42.8348H96.6965C96.5843 42.7494 96.4772 42.6563 96.3765 42.5492C96.1317 42.2878 95.9379 41.9589 95.7951 41.5636C95.6498 41.1684 95.5784 40.7094 95.5784 40.1866C95.5784 39.1807 95.8346 38.4055 96.3485 37.8623C96.8623 37.3192 97.5202 37.0489 98.3209 37.0489C98.6842 37.0489 99.0094 37.0948 99.2975 37.1891C99.5806 37.2809 99.8228 37.3893 100.027 37.5143L101.044 35.5393C100.858 35.3927 100.529 35.2282 100.059 35.0472C99.5895 34.8661 98.915 34.7743 98.0404 34.7743C97.3251 34.7743 96.6583 34.8993 96.0386 35.1479C95.4177 35.3965 94.8771 35.7548 94.413 36.224C93.9502 36.6932 93.5843 37.2593 93.314 37.9235C93.045 38.5865 92.9111 39.3413 92.9111 40.1866C92.9111 41.0574 93.045 41.8288 93.314 42.4995C93.3612 42.6155 93.4147 42.7251 93.467 42.8348H91.0483V34.8776L88.4372 35.6311V44.7052C88.4372 45.2687 88.3033 45.6601 88.033 45.8794C87.764 46.0987 87.3981 46.2084 86.934 46.2084C86.6343 46.2084 86.3589 46.1701 86.1078 46.0962C85.8579 46.0197 85.701 45.97 85.6386 45.9457L85.0189 47.6925C85.0432 47.704 85.1248 47.7397 85.2625 47.7958C85.4002 47.8519 85.5748 47.9092 85.789 47.9653C86.0019 48.0214 86.2455 48.0712 86.5209 48.1145C86.7963 48.1579 87.0844 48.1808 87.3853 48.1808C87.8736 48.1808 88.3403 48.1209 88.784 48.0023C89.2302 47.8825 89.6178 47.6772 89.9493 47.3814C90.2808 47.0881 90.5473 46.6993 90.7474 46.2186C90.9476 45.7367 91.0483 45.1285 91.0483 44.3928V44.8072H101.703C102.192 44.8072 102.657 44.7473 103.103 44.6287C103.547 44.5101 103.938 44.3023 104.276 44.009C104.615 43.7145 104.884 43.3256 105.085 42.8437C105.285 42.3618 105.386 41.751 105.386 41.0128V31.3166L102.755 32.0764V41.3316ZM69.3889 33.8155C69.802 33.8155 70.1526 33.674 70.4395 33.3922C70.7289 33.1105 70.873 32.77 70.873 32.3684C70.873 31.9681 70.7289 31.6302 70.4395 31.3548C70.1526 31.0781 69.802 30.9404 69.3889 30.9404C68.9885 30.9404 68.643 31.0781 68.3549 31.3548C68.0667 31.6302 67.9226 31.9681 67.9226 32.3684C67.9226 32.77 68.0667 33.1105 68.3549 33.3922C68.643 33.674 68.9885 33.8155 69.3889 33.8155ZM14.8947 34.0616C15.3078 34.0616 15.6571 33.9213 15.9453 33.6396C16.2347 33.3565 16.3788 33.0161 16.3788 32.6158C16.3788 32.2141 16.2347 31.8763 15.9453 31.6009C15.6571 31.3255 15.3078 31.1878 14.8947 31.1878C14.4931 31.1878 14.1488 31.3255 13.8607 31.6009C13.5738 31.8763 13.4284 32.2141 13.4284 32.6158C13.4284 33.0161 13.5738 33.3565 13.8607 33.6396C14.1488 33.9213 14.4931 34.0616 14.8947 34.0616ZM65.4734 33.8155C65.8878 33.8155 66.2371 33.674 66.5253 33.3922C66.8134 33.1105 66.9575 32.77 66.9575 32.3684C66.9575 31.9681 66.8134 31.6302 66.5253 31.3548C66.2371 31.0781 65.8878 30.9404 65.4734 30.9404C65.073 30.9404 64.7275 31.0781 64.4407 31.3548C64.1525 31.6302 64.0072 31.9681 64.0072 32.3684C64.0072 32.77 64.1525 33.1105 64.4407 33.3922C64.7275 33.674 65.073 33.8155 65.4734 33.8155ZM17.2049 39.1666C17.2049 40.8369 17.2049 42.7239 14.9087 42.7239C12.6112 42.7239 12.6112 40.8369 12.6112 39.1666V36.9456L10 37.6979V39.0608C10 39.145 10.0013 39.2278 10.0025 39.3107C10.0229 40.267 10.1555 41.0893 10.4029 41.7765C10.6706 42.5211 11.0302 43.128 11.4815 43.5985C11.9329 44.0677 12.4607 44.4094 13.0625 44.6223C13.6656 44.8352 14.3018 44.9411 14.9712 44.9411C15.5959 44.9411 16.1977 44.848 16.7791 44.6606C17.3567 44.4719 17.8743 44.1557 18.3257 43.7107C18.777 43.2657 19.1378 42.678 19.4043 41.9448C19.672 41.2117 19.8072 40.3014 19.8072 39.2113V34.8776L17.2049 35.626L17.2049 39.1666ZM34.9859 45.6908C34.5856 45.6908 34.2413 45.8284 33.9532 46.1038C33.665 46.3792 33.521 46.7171 33.521 47.1175C33.521 47.5191 33.665 47.8595 33.9532 48.1413C34.2413 48.423 34.5856 48.5646 34.9859 48.5646C35.4003 48.5646 35.7496 48.423 36.0378 48.1413C36.3259 47.8595 36.47 47.5191 36.47 47.1175C36.47 46.7171 36.3259 46.3792 36.0378 46.1038C35.7496 45.8284 35.4003 45.6908 34.9859 45.6908ZM24.3895 31.3L21.7783 32.0535V44.7881H24.3895V31.3ZM31.0717 45.6908C30.6701 45.6908 30.3258 45.8284 30.0377 46.1038C29.7495 46.3792 29.6055 46.7171 29.6055 47.1175C29.6055 47.5191 29.7495 47.8595 30.0377 48.1413C30.3258 48.423 30.6701 48.5646 31.0717 48.5646C31.4848 48.5646 31.8354 48.423 32.1223 48.1413C32.4104 47.8595 32.5558 47.5191 32.5558 47.1175C32.5558 46.7171 32.4104 46.3792 32.1223 46.1038C31.8354 45.8284 31.4848 45.6908 31.0717 45.6908Z" fill="#E81142"/>
</svg>
