<svg width="120" height="60" viewBox="0 0 120 60" fill="none" xmlns="http://www.w3.org/2000/svg">
<path d="M120 0H0V60H120V0Z" fill="white"/>
<path d="M39.8824 15.1765C39.8824 16.2353 38.8235 18.3529 36.7059 18.3529C34.5882 18.3529 33.5294 16.2353 33.5294 15.1765C33.5294 13.0588 34.5882 12 36.7059 12C38.8235 12 39.8824 13.0588 39.8824 15.1765Z" fill="#00D590"/>
<path d="M84.3529 31.0588H75.8823V20.4706H70.5882V34.2353C70.5882 41.6471 76.9412 48 84.3529 48V42.7059C81.1765 42.7059 76.9412 39.5294 75.8823 36.3529H84.3529V31.0588Z" fill="#00D590"/>
<path d="M47.2941 31.0588C48.353 27.8823 51.5294 25.7647 55.7647 25.7647C58.9412 25.7647 62.1177 27.8823 63.1765 31.0588H47.2941ZM25.0588 42.7059C21.8824 42.7059 18.7059 39.5294 17.6471 36.3529H33.5294C32.4706 39.5294 29.2941 42.7059 25.0588 42.7059ZM55.7647 20.4706C48.353 20.4706 43.0588 24.7059 42 31.0588H38.8236V20.4706H34.5883V31.0588H16.5883H13.4118H12.353V34.2353C12.353 41.6471 17.6471 48 25.0588 48C32.4706 48 37.7647 42.7059 38.8236 36.3529H42C43.0588 42.7059 48.353 48 55.7647 48C60 48 64.2353 44.8235 67.4118 41.6471L62.1177 38.4706C61.0588 40.5882 58.9412 42.7059 55.7647 42.7059C51.5294 42.7059 48.353 39.5294 47.2941 36.3529H68.4706C69.5294 35.2941 69.5294 35.2941 69.5294 34.2353C69.5294 26.8235 63.1765 20.4706 55.7647 20.4706Z" fill="#00D590"/>
<path d="M107.647 31.0588H99.1765V20.4706H94.9412V34.2353C94.9412 41.6471 100.235 48 107.647 48V42.7059C104.471 42.7059 101.294 39.5294 100.235 36.3529H107.647V31.0588Z" fill="black"/>
<path d="M92.8235 15.1765C92.8235 16.2353 91.7647 18.3529 89.6471 18.3529C87.5294 18.3529 86.4706 16.2353 86.4706 15.1765C86.4706 13.0588 87.5294 12 89.6471 12C91.7647 12 92.8235 13.0588 92.8235 15.1765Z" fill="black"/>
<path d="M91.7647 48H86.4706V20.4706H91.7647V48Z" fill="black"/>
</svg>
