<svg width="120" height="60" viewBox="0 0 120 60" fill="none" xmlns="http://www.w3.org/2000/svg">
<path d="M120 0H0V60H120V0Z" fill="white"/>
<path d="M87.6699 32.1962C87.5297 32.6284 87.318 33.0058 87.0324 33.3283C86.7456 33.6509 86.3784 33.9008 85.9321 34.0768C85.4846 34.2527 84.9529 34.3407 84.3359 34.3407C83.8667 34.3407 83.4854 34.319 83.1922 34.2744C82.8989 34.2298 82.709 34.1864 82.621 34.1431V30.2263C82.621 29.3912 82.8326 28.6938 83.2585 28.1366C83.6843 27.5794 84.3218 27.3015 85.1722 27.3015C86.0227 27.3015 86.6869 27.6126 87.1638 28.236C87.6393 28.8595 87.879 29.6844 87.879 30.7108C87.879 31.2246 87.8089 31.7627 87.6699 32.1962ZM89.4957 26.2445C89.0189 25.7766 88.4681 25.4196 87.8459 25.1786C87.2224 24.9364 86.5594 24.8153 85.8544 24.8153C85.3405 24.8153 84.8892 24.8777 84.5016 25.0027C84.1127 25.1264 83.7825 25.2742 83.5122 25.4425C83.2406 25.6108 83.0315 25.7689 82.8849 25.9156C82.7383 26.0622 82.6503 26.1578 82.621 26.2012V21.0005L79.5406 21.8904V36.4087C79.6286 36.4227 79.8007 36.4482 80.0583 36.4852C80.3145 36.5222 80.6333 36.5553 81.0145 36.5847C81.3957 36.614 81.828 36.6433 82.3124 36.6726C82.7969 36.702 83.3031 36.716 83.831 36.716C86.2203 36.716 88.0218 36.1626 89.2318 35.0559C90.4418 33.948 91.0461 32.3466 91.0461 30.3806C91.0461 29.4868 90.9071 28.6912 90.6279 27.9938C90.35 27.2977 89.9726 26.715 89.4957 26.2445ZM73.7229 31.3049C73.7229 32.1413 73.5099 32.8375 73.0854 33.3946C72.6595 33.9518 72.022 34.231 71.1703 34.231C70.3212 34.231 69.6569 33.9199 69.1801 33.2965C68.7045 32.673 68.4648 31.8481 68.4648 30.8217C68.4648 30.3079 68.5349 29.7686 68.6752 29.3364C68.8142 28.9041 69.0258 28.5267 69.3127 28.2042C69.5983 27.8803 69.9655 27.6317 70.413 27.4558C70.8605 27.2798 71.3909 27.1918 72.008 27.1918C72.4772 27.1918 72.8584 27.2135 73.1517 27.2581C73.4449 27.3015 73.6349 27.3461 73.7229 27.3895V31.3049ZM75.3077 25.3099C74.8818 25.185 74.3616 25.0715 73.7458 24.9683C73.1287 24.8663 72.4249 24.8153 71.6332 24.8153C70.6501 24.8153 69.7704 24.9657 68.9939 25.2653C68.2162 25.5662 67.5519 25.9882 67.0024 26.5314C66.4529 27.0733 66.0309 27.7299 65.7376 28.5C65.4444 29.2701 65.2978 30.2263 65.2978 31.1507C65.2978 32.0597 65.4367 32.863 65.716 33.5591C65.9939 34.2565 66.3675 34.8392 66.8379 35.3084C67.3071 35.7776 67.8567 36.1295 68.4878 36.3641C69.1176 36.5987 69.7857 36.716 70.4895 36.716C70.988 36.716 71.4317 36.6535 71.8206 36.5286C72.2095 36.4049 72.5384 36.2621 72.8112 36.1002C73.0815 35.9395 73.2945 35.7814 73.4487 35.6271C73.6017 35.4741 73.6935 35.3747 73.7229 35.3301V36.4087L76.8032 36.4074V25.9372C76.7293 25.8926 76.5686 25.8085 76.3187 25.6835C76.0701 25.5598 75.7322 25.4349 75.3077 25.31V25.3099ZM65.2608 25.25C64.951 25.0881 64.5034 24.9491 63.8608 24.8459C63.4936 24.7872 63.1048 24.7592 62.6942 24.7592C62.0198 24.7592 61.3963 24.8216 60.8251 24.9453C60.2526 25.0703 59.7503 25.2092 59.3181 25.3635C58.8846 25.5178 58.5365 25.6682 58.2726 25.8148C58.0087 25.9615 57.8467 26.0571 57.7894 26.1004V36.4087H60.8685V27.7949C61.001 27.721 61.2356 27.6228 61.5735 27.4978C61.9101 27.3729 62.387 27.3104 63.0028 27.3104C63.2081 27.3104 63.4248 27.3257 63.6517 27.355C63.8787 27.3844 64.061 27.4086 64.2892 27.4749C64.3084 27.4813 64.3249 27.4851 64.3428 27.4915C64.6615 26.7188 64.9573 25.9959 65.2302 25.3253C65.2404 25.2997 65.2506 25.2755 65.2608 25.25L65.2608 25.25ZM106.92 31.3049C106.92 32.1413 106.707 32.8375 106.282 33.3946C105.856 33.9518 105.219 34.231 104.367 34.231C103.518 34.231 102.854 33.9199 102.377 33.2965C101.901 32.673 101.662 31.8481 101.662 30.8217C101.662 30.3079 101.732 29.7686 101.871 29.3364C102.011 28.9041 102.223 28.5267 102.509 28.2042C102.795 27.8803 103.162 27.6317 103.609 27.4558C104.056 27.2798 104.588 27.1918 105.205 27.1918C105.673 27.1918 106.055 27.2135 106.348 27.2581C106.642 27.3015 106.832 27.3461 106.92 27.3895V31.3049ZM109.516 25.6835C109.267 25.5598 108.929 25.4349 108.504 25.31C108.079 25.185 107.558 25.0715 106.941 24.9683C106.326 24.8663 105.622 24.8153 104.83 24.8153C103.847 24.8153 102.967 24.9657 102.189 25.2653C101.412 25.5662 100.749 25.9882 100.199 26.5314C99.6484 27.0733 99.2277 27.7299 98.9344 28.5C98.6412 29.2701 98.4946 30.2263 98.4946 31.1507C98.4946 32.0597 98.6335 32.863 98.9115 33.5591C99.1907 34.2565 99.5643 34.8392 100.035 35.3084C100.504 35.7776 101.053 36.1295 101.685 36.3641C102.314 36.5987 102.983 36.716 103.686 36.716C104.185 36.716 104.629 36.6535 105.017 36.5286C105.405 36.4049 105.735 36.2621 106.007 36.1002C106.278 35.9395 106.491 35.7814 106.646 35.6271C106.799 35.4741 106.89 35.3747 106.92 35.3301V36.4087L110 36.4074V25.9372C109.926 25.8926 109.764 25.8085 109.516 25.6835V25.6835ZM94.8124 20.7366C94.3419 20.7366 93.939 20.8985 93.6024 21.2211C93.2646 21.5436 93.095 21.9389 93.095 22.4081C93.095 22.8773 93.2646 23.2776 93.6024 23.6078C93.939 23.9368 94.3419 24.1025 94.8124 24.1025C95.2956 24.1025 95.7062 23.9368 96.0428 23.6078C96.3806 23.2776 96.5489 22.8773 96.5489 22.4081C96.5489 21.9389 96.3806 21.5436 96.0428 21.2211C95.7062 20.8985 95.2956 20.7366 94.8124 20.7366ZM93.2824 36.4074H96.3628V24.8153L93.2824 25.7039V36.4074ZM45.6145 30.1141C45.8797 29.4001 46.15 28.6797 46.4229 27.9581C46.6944 27.2352 46.9456 26.5709 47.1738 25.9653C47.4033 25.3584 47.606 24.8382 47.7833 24.4034C47.9592 23.9687 48.0854 23.6729 48.1594 23.5173C48.2333 23.6729 48.3583 23.9687 48.5355 24.4034C48.7127 24.8382 48.9155 25.3584 49.1437 25.9653C49.3719 26.5709 49.6231 27.2352 49.8959 27.9581C50.1688 28.6797 50.4378 29.4001 50.703 30.1141H45.6145ZM54.1544 30.6496C53.7859 29.687 53.4174 28.7588 53.049 27.8637C52.6792 26.97 52.3401 26.1438 52.0302 25.3826C51.7204 24.6202 51.4412 23.9559 51.19 23.3885C50.9401 22.8212 50.74 22.3826 50.5921 22.0715C50.2682 21.3409 50.1267 21.0132 50.1267 21.0132H46.1908C46.1908 21.0132 46.0493 21.3409 45.7254 22.0715C45.5775 22.3826 45.3786 22.8212 45.1287 23.3885C44.8776 23.9559 44.5971 24.6202 44.2873 25.3826C43.9787 26.1438 43.6383 26.97 43.2698 27.8637C42.9013 28.7588 42.5329 29.687 42.1631 30.6496C41.7947 31.6135 41.4262 32.585 41.0577 33.5642C40.6892 34.5434 40.3424 35.4907 40.0186 36.4074H43.2698L44.5308 33.0045H51.7867L53.049 36.4074H56.3002C55.9763 35.4907 55.6295 34.5434 55.2598 33.5642C54.8913 32.585 54.5228 31.6135 54.1544 30.6496ZM29.5165 20.7366C29.0473 20.7366 28.6432 20.8985 28.3066 21.2211C27.9687 21.5436 27.8004 21.9389 27.8004 22.4081C27.8004 22.8773 27.9687 23.2776 28.3066 23.6078C28.6432 23.9368 29.0473 24.1025 29.5165 24.1025C29.9998 24.1025 30.4103 23.9368 30.7482 23.6078C31.0848 23.2776 31.2543 22.8773 31.2543 22.4081C31.2543 21.9389 31.0848 21.5436 30.7482 21.2211C30.4103 20.8985 29.9998 20.7366 29.5165 20.7366ZM27.9878 36.4074H31.0669V24.8153L27.9878 25.7039V36.4074ZM15.5975 30.1141C15.864 29.4001 16.133 28.6797 16.4059 27.9581C16.6787 27.2352 16.9299 26.5709 17.1581 25.9653C17.3863 25.3584 17.5903 24.8382 17.7675 24.4034C17.9435 23.9687 18.0697 23.6729 18.1424 23.5173C18.2176 23.6729 18.3426 23.9687 18.5185 24.4034C18.697 24.8382 18.8997 25.3584 19.1279 25.9653C19.3562 26.5709 19.6073 27.2352 19.8789 27.9581C20.153 28.6797 20.4221 29.4001 20.6873 30.1141H15.5975ZM24.1386 30.6496C23.7702 29.687 23.4004 28.7588 23.032 27.8637C22.6635 26.97 22.3243 26.1438 22.0145 25.3826C21.7047 24.6202 21.4242 23.9559 21.173 23.3885C20.9231 22.8212 20.7242 22.3826 20.5763 22.0715C20.2512 21.3409 20.111 21.0132 20.111 21.0132H16.1751C16.1751 21.0132 16.0336 21.3409 15.7097 22.0715C15.5618 22.3826 15.3629 22.8212 15.1117 23.3885C14.8618 23.9559 14.5813 24.6202 14.2715 25.3826C13.9617 26.1438 13.6226 26.97 13.2541 27.8637C12.8856 28.7588 12.5159 29.687 12.1474 30.6496C11.7789 31.6135 11.4105 32.585 11.0407 33.5642C10.6722 34.5434 10.3254 35.4907 10.0029 36.4074H13.2541L14.515 33.0045H21.771L23.032 36.4074H26.2832C25.9593 35.4907 25.6125 34.5434 25.2441 33.5642C24.8756 32.585 24.5071 31.6135 24.1386 30.6496ZM40.5197 27.4915C40.8371 26.7188 41.1342 25.9959 41.4071 25.3252C41.4172 25.2997 41.4275 25.2755 41.4376 25.25C41.1278 25.0881 40.6803 24.9491 40.0377 24.8459C39.6705 24.7872 39.2816 24.7592 38.8711 24.7592C38.1966 24.7592 37.5732 24.8216 37.002 24.9453C36.4295 25.0703 35.9272 25.2092 35.4949 25.3635C35.0614 25.5178 34.7134 25.6682 34.4494 25.8148C34.1855 25.9615 34.0236 26.0571 33.9662 26.1004V36.4087H37.0453V27.7949C37.1779 27.7209 37.4112 27.6228 37.7504 27.4978C38.087 27.3729 38.5638 27.3104 39.1796 27.3104C39.3849 27.3104 39.6004 27.3257 39.8286 27.355C40.0556 27.3844 40.2379 27.4086 40.4661 27.4749C40.4852 27.4813 40.5018 27.4851 40.5197 27.4915" fill="#E81142"/>
</svg>
