<svg width="790" height="118" viewBox="0 0 790 118" fill="none" xmlns="http://www.w3.org/2000/svg">
<path d="M308.073 5.09424C282.091 5.09424 261.03 26.1911 261.03 52.1608H278.609C278.609 35.9366 291.821 22.6473 308.073 22.6473C324.269 22.6473 337.537 35.9366 337.537 52.1608C337.537 68.4402 324.269 81.6743 308.073 81.6743V99.2822C333.999 99.2822 355.06 78.1858 355.06 52.1608C355.06 26.1911 333.999 5.09424 308.073 5.09424Z" fill="white"/>
<path d="M538.478 51.6624C538.478 77.6874 517.361 98.7844 491.435 98.7844V81.1758C507.688 81.1758 520.899 67.9418 520.899 51.6624H538.478Z" fill="white"/>
<path d="M559.595 22.6473C575.847 22.6473 589.059 35.9366 589.059 52.1608C589.059 68.4402 575.847 81.6743 559.595 81.6743V99.2822C585.521 99.2822 606.638 78.1858 606.638 52.1608C606.638 26.1911 585.521 5.09424 559.595 5.09424V22.6473Z" fill="white"/>
<path d="M423.276 22.6473C439.472 22.6473 452.74 35.9366 452.74 52.1608C452.74 68.4402 439.472 81.6743 423.276 81.6743C407.023 81.6743 393.811 68.4402 393.811 52.1608C393.811 35.9366 407.023 22.6473 423.276 22.6473ZM423.276 99.2822C449.202 99.2822 470.263 78.1858 470.263 52.1608C470.263 26.1911 449.202 5.09424 423.276 5.09424C397.294 5.09424 376.233 26.1911 376.233 52.1608C376.233 78.1858 397.294 99.2822 423.276 99.2822Z" fill="white"/>
<path d="M15.5888 51.3856C19.9559 51.3856 23.5491 49.1707 25.2627 46.7344V50.7765H31.8963V20.5432H25.2627V24.5854C23.5491 22.149 19.9559 19.9341 15.5888 19.9341C7.29688 19.9341 1.05029 27.0218 1.05029 35.6599C1.05029 44.298 7.29688 51.3856 15.5888 51.3856ZM16.805 45.3501C11.4981 45.3501 7.7944 41.0863 7.7944 35.6599C7.7944 30.2333 11.4981 25.9697 16.805 25.9697C22.1118 25.9697 25.8156 30.2333 25.8156 35.6599C25.8156 41.0863 22.1118 45.3501 16.805 45.3501ZM48.7013 51.3856C54.8926 51.3856 59.5914 47.8418 59.5914 42.0277C59.5914 36.9888 56.4404 34.4417 51.1336 32.8359L48.0932 31.8946C45.1081 31.0086 44.4447 29.7904 44.4447 28.3507C44.4447 26.4681 46.4901 25.5267 48.4802 25.5267C50.9677 25.5267 52.8472 26.6896 54.2293 28.5722L58.8175 25.0838C56.7168 21.706 53.1789 19.9341 48.5907 19.9341C42.5652 19.9341 37.8112 23.2565 37.8112 28.5722C37.756 33.1127 40.4094 36.3797 45.7162 37.8194L48.3696 38.5393C52.018 39.702 53.0131 40.6988 53.0131 42.4153C53.0131 44.5749 51.023 45.6269 48.7013 45.6269C45.6056 45.6269 42.6205 44.1318 41.4597 41.474L36.5398 44.9624C38.6957 49.3369 43.2839 51.3856 48.7013 51.3856ZM79.3814 50.7765H86.0706V26.4681H94.6936V20.5432H86.0706V16.2242C86.0706 12.4589 87.6732 11.1299 91.1005 11.1299C92.3722 11.1299 93.6992 11.296 94.6936 11.6836V5.75878C93.4227 5.37118 91.8193 5.03894 89.719 5.03894C83.9142 5.03894 79.3814 8.69354 79.3814 15.4489V20.5432H73.1348V26.4681H79.3814V50.7765ZM109.785 51.3856C114.097 51.3856 117.745 49.1707 119.459 46.7344V50.7765H126.093V20.5432H119.459V24.5854C117.745 22.149 114.097 19.9341 109.785 19.9341C101.494 19.9341 95.2465 27.0218 95.2465 35.6599C95.2465 44.298 101.494 51.3856 109.785 51.3856ZM111.001 45.3501C105.694 45.3501 101.99 41.0863 101.99 35.6599C101.99 30.2333 105.694 25.9697 111.001 25.9697C116.308 25.9697 119.957 30.2333 119.957 35.6599C119.957 41.0863 116.308 45.3501 111.001 45.3501ZM142.843 51.3856C149.089 51.3856 153.788 47.8418 153.788 42.0277C153.788 36.9888 150.637 34.4417 145.33 32.8359L142.234 31.8946C139.305 31.0086 138.641 29.7904 138.641 28.3507C138.641 26.4681 140.686 25.5267 142.677 25.5267C145.164 25.5267 147.044 26.6896 148.425 28.5722L153.014 25.0838C150.913 21.706 147.376 19.9341 142.787 19.9341C136.761 19.9341 132.008 23.2565 132.008 28.5722C131.953 33.1127 134.606 36.3797 139.913 37.8194L142.566 38.5393C146.159 39.702 147.21 40.6988 147.21 42.4153C147.21 44.5749 145.219 45.6269 142.843 45.6269C139.802 45.6269 136.817 44.1318 135.601 41.474L130.736 44.9624C132.892 49.3369 137.48 51.3856 142.843 51.3856ZM171.532 51.0534C173.633 51.0534 175.125 50.8319 176.508 50.3889V44.4641C175.512 44.9071 174.186 45.0732 172.914 45.0732C169.487 45.0732 167.828 43.7442 167.828 39.9789V26.4681H176.508V20.5432H167.828V12.1266H161.195V20.5432H154.949V26.4681H161.195V41.031C161.195 47.8971 165.728 51.0534 171.532 51.0534Z" fill="#004FFF"/>
<path d="M15.5888 99.7808C19.9559 99.7808 23.5491 97.5105 25.2627 95.13V99.1721H31.8963V68.9385H25.2627V72.9807C23.5491 70.5443 19.9559 68.3295 15.5888 68.3295C7.29688 68.3295 1.05029 75.4172 1.05029 84.0552C1.05029 92.6932 7.29688 99.7808 15.5888 99.7808ZM16.805 93.6896C11.4981 93.6896 7.79441 89.4819 7.79441 84.0552C7.79441 78.5734 11.4981 74.3651 16.805 74.3651C22.1118 74.3651 25.8156 78.5734 25.8156 84.0552C25.8156 89.4819 22.1118 93.6896 16.805 93.6896ZM48.7013 99.7808C54.8926 99.7808 59.5914 96.1819 59.5914 90.3673C59.5914 85.3843 56.4404 82.837 51.1336 81.1759L48.0932 80.2899C45.1081 79.404 44.4447 78.1857 44.4447 76.7461C44.4447 74.8634 46.4901 73.8667 48.4802 73.8667C50.9677 73.8667 52.8472 75.0849 54.2293 76.9676L58.8175 73.4791C56.7168 70.046 53.1789 68.3295 48.5907 68.3295C42.5652 68.3295 37.8112 71.6518 37.8112 76.9676C37.756 81.5081 40.4094 84.7747 45.7162 86.2151L48.3696 86.9349C52.018 88.0978 53.0131 89.0387 53.0131 90.8105C53.0131 92.9152 51.023 94.0226 48.7013 94.0226C45.6056 94.0226 42.6205 92.5275 41.4597 89.8695L36.5398 93.3574C38.6957 97.7325 43.2839 99.7808 48.7013 99.7808ZM83.638 111.797V95.13C85.3518 97.5105 89.0002 99.7808 93.3674 99.7808C101.604 99.7808 107.906 92.6932 107.906 84.0552C107.906 75.4172 101.604 68.3295 93.3674 68.3295C89.0002 68.3295 85.3518 70.5443 83.638 72.9807V68.9385H77.0044V111.797H83.638ZM92.151 93.6896C86.7886 93.6896 83.0851 89.4819 83.0851 84.0552C83.0851 78.5734 86.7886 74.3651 92.151 74.3651C97.4582 74.3651 101.162 78.5734 101.162 84.0552C101.162 89.4819 97.4582 93.6896 92.151 93.6896ZM126.48 99.7808C135.435 99.7808 142.345 92.8042 142.345 84.0552C142.345 75.251 135.435 68.3295 126.48 68.3295C117.579 68.3295 110.67 75.251 110.67 84.0552C110.67 92.8042 117.579 99.7808 126.48 99.7808ZM126.48 93.5794C121.117 93.5794 117.358 89.4264 117.358 84.0552C117.358 78.6841 121.117 74.4758 126.48 74.4758C131.787 74.4758 135.546 78.6841 135.546 84.0552C135.546 89.4264 131.787 93.5794 126.48 93.5794ZM156.828 99.7808C163.02 99.7808 167.718 96.1819 167.718 90.3673C167.718 85.3843 164.622 82.837 159.26 81.1759L156.22 80.2899C153.235 79.404 152.571 78.1857 152.571 76.7461C152.571 74.8634 154.617 73.8667 156.607 73.8667C159.095 73.8667 160.974 75.0849 162.356 76.9676L166.944 73.4791C164.844 70.046 161.361 68.3295 156.773 68.3295C150.692 68.3295 145.938 71.6518 145.938 76.9676C145.883 81.5081 148.536 84.7747 153.843 86.2151L156.496 86.9349C160.145 88.0978 161.14 89.0387 161.14 90.8105C161.14 92.9152 159.15 94.0226 156.828 94.0226C153.732 94.0226 150.748 92.5275 149.586 89.8695L144.666 93.3574C146.823 97.7325 151.411 99.7808 156.828 99.7808ZM182.422 99.7808C188.614 99.7808 193.313 96.1819 193.313 90.3673C193.313 85.3843 190.217 82.837 184.855 81.1759L181.815 80.2899C178.829 79.404 178.166 78.1857 178.166 76.7461C178.166 74.8634 180.211 73.8667 182.202 73.8667C184.689 73.8667 186.568 75.0849 187.95 76.9676L192.539 73.4791C190.438 70.046 186.955 68.3295 182.367 68.3295C176.286 68.3295 171.532 71.6518 171.532 76.9676C171.477 81.5081 174.131 84.7747 179.437 86.2151L182.091 86.9349C185.74 88.0978 186.734 89.0387 186.734 90.8105C186.734 92.9152 184.744 94.0226 182.422 94.0226C179.327 94.0226 176.342 92.5275 175.181 89.8695L170.261 93.3574C172.417 97.7325 177.005 99.7808 182.422 99.7808ZM201.715 62.3492C204.203 62.3492 206.137 60.3559 206.137 57.8641C206.137 55.4277 204.203 53.4343 201.715 53.4343C199.283 53.4343 197.238 55.4277 197.238 57.8641C197.238 60.3559 199.283 62.3492 201.715 62.3492ZM198.398 99.1721H205.032V68.9385H198.398V99.1721ZM228.525 99.7808C236.817 99.7808 243.064 92.6932 243.064 84.0552C243.064 75.4172 236.817 68.3295 228.525 68.3295C224.159 68.3295 220.511 70.5443 218.796 72.9807V53.8219H212.163V99.1721H218.796V95.13C220.511 97.5105 224.159 99.7808 228.525 99.7808ZM227.31 93.6896C221.947 93.6896 218.244 89.4819 218.244 84.0552C218.244 78.5734 221.947 74.3651 227.31 74.3651C232.616 74.3651 236.32 78.5734 236.32 84.0552C236.32 89.4819 232.616 93.6896 227.31 93.6896ZM248.039 99.1721H254.673V53.8219H248.039V99.1721ZM275.458 99.7808C281.76 99.7808 286.514 97.1229 289.223 92.7487L284.137 89.0942C282.478 91.8077 279.77 93.6896 275.513 93.6896C270.428 93.6896 266.503 90.5338 266.227 85.4945H289.941C289.996 84.4981 289.996 83.9998 289.996 83.3354C289.996 73.5899 283.418 68.3295 275.458 68.3295C266.282 68.3295 259.703 75.1403 259.703 84.0552C259.703 93.3028 266.282 99.7808 275.458 99.7808ZM266.503 80.6775C267.498 76.1924 271.257 73.9221 275.181 73.9221C279.051 73.9221 282.589 76.3031 283.308 80.6775H266.503ZM298.509 99.6152C301.384 99.6152 303.761 97.2893 303.761 94.3547C303.761 91.5302 301.384 89.0942 298.509 89.0942C295.69 89.0942 293.314 91.5302 293.314 94.3547C293.314 97.2893 295.69 99.6152 298.509 99.6152Z" fill="white"/>
<path d="M674.797 5.09424C648.872 5.09424 627.754 26.1911 627.754 52.1608H645.334C645.334 35.9366 658.545 22.6473 674.797 22.6473C691.05 22.6473 704.261 35.9366 704.261 52.1608C704.261 68.4402 691.05 81.6743 674.797 81.6743V99.2822C700.723 99.2822 721.841 78.1858 721.841 52.1608C721.841 26.1911 700.723 5.09424 674.797 5.09424Z" fill="white"/>
<path d="M790 81.6743C773.748 81.6743 760.536 68.4402 760.536 52.1608C760.536 35.9366 773.748 22.6473 790 22.6473V5.09424C764.074 5.09424 742.957 26.1911 742.957 52.1608C742.957 78.1858 764.074 99.2822 790 99.2822V81.6743Z" fill="white"/>
</svg>
