<svg width="943" height="140" viewBox="0 0 943 140" fill="none" xmlns="http://www.w3.org/2000/svg">
<path d="M367.738 6.05833C336.724 6.05833 311.584 31.1477 311.584 62.032H332.567C332.567 42.7375 348.338 26.9332 367.738 26.9332C387.071 26.9332 402.908 42.7375 402.908 62.032C402.908 81.3923 387.071 97.1308 367.738 97.1308V118.071C398.685 118.071 423.825 92.9821 423.825 62.032C423.825 31.1477 398.685 6.05833 367.738 6.05833Z" fill="white"/>
<path d="M642.765 61.4393C642.765 92.3895 617.559 117.479 586.612 117.479V96.5381C606.012 96.5381 621.782 80.7996 621.782 61.4393H642.765Z" fill="white"/>
<path d="M667.972 26.9332C687.372 26.9332 703.142 42.7375 703.142 62.032C703.142 81.3923 687.372 97.1308 667.972 97.1308V118.071C698.919 118.071 724.126 92.9821 724.126 62.032C724.126 31.1477 698.919 6.05833 667.972 6.05833V26.9332Z" fill="white"/>
<path d="M505.252 26.9332C524.585 26.9332 540.422 42.7375 540.422 62.032C540.422 81.3923 524.585 97.1308 505.252 97.1308C485.852 97.1308 470.081 81.3923 470.081 62.032C470.081 42.7375 485.852 26.9332 505.252 26.9332ZM505.252 118.071C536.199 118.071 561.339 92.9821 561.339 62.032C561.339 31.1477 536.199 6.05833 505.252 6.05833C474.238 6.05833 449.098 31.1477 449.098 62.032C449.098 92.9821 474.238 118.071 505.252 118.071Z" fill="white"/>
<path d="M18.6079 61.1101C23.8208 61.1101 28.1099 58.476 30.1554 55.5786V60.3857H38.0737V24.4309H30.1554V29.238C28.1099 26.3406 23.8208 23.7065 18.6079 23.7065C8.71009 23.7065 1.25372 32.1355 1.25372 42.4083C1.25372 52.6811 8.71009 61.1101 18.6079 61.1101ZM20.0596 53.9323C13.725 53.9323 9.30397 48.8617 9.30397 42.4083C9.30397 35.9548 13.725 30.8843 20.0596 30.8843C26.3942 30.8843 30.8153 35.9548 30.8153 42.4083C30.8153 48.8617 26.3942 53.9323 20.0596 53.9323ZM58.1333 61.1101C65.5237 61.1101 71.1325 56.8956 71.1325 49.9812C71.1325 43.9887 67.3713 40.9596 61.0367 39.0499L57.4075 37.9304C53.8442 36.8768 53.0524 35.428 53.0524 33.7159C53.0524 31.477 55.4939 30.3575 57.8694 30.3575C60.8387 30.3575 63.0822 31.7404 64.7319 33.9793L70.2087 29.8307C67.7012 25.8137 63.4781 23.7065 58.0013 23.7065C50.8089 23.7065 45.1341 27.6576 45.1341 33.9793C45.0682 39.3791 48.2355 43.2644 54.5701 44.9765L57.7374 45.8326C62.0924 47.2154 63.2802 48.4008 63.2802 50.4422C63.2802 53.0104 60.9047 54.2615 58.1333 54.2615C54.4381 54.2615 50.8749 52.4835 49.4892 49.3227L43.6165 53.4713C46.1899 58.6736 51.6667 61.1101 58.1333 61.1101ZM94.7553 60.3857H102.74V31.477H113.033V24.4309H102.74V19.2945C102.74 14.8166 104.653 13.2361 108.744 13.2361C110.262 13.2361 111.846 13.4337 113.033 13.8946V6.84855C111.516 6.38759 109.602 5.99248 107.095 5.99248C100.166 5.99248 94.7553 10.3387 94.7553 18.3725V24.4309H87.2989V31.477H94.7553V60.3857ZM131.047 61.1101C136.194 61.1101 140.549 58.476 142.595 55.5786V60.3857H150.513V24.4309H142.595V29.238C140.549 26.3406 136.194 23.7065 131.047 23.7065C121.15 23.7065 113.693 32.1355 113.693 42.4083C113.693 52.6811 121.15 61.1101 131.047 61.1101ZM132.499 53.9323C126.164 53.9323 121.743 48.8617 121.743 42.4083C121.743 35.9548 126.164 30.8843 132.499 30.8843C138.834 30.8843 143.189 35.9548 143.189 42.4083C143.189 48.8617 138.834 53.9323 132.499 53.9323ZM170.507 61.1101C177.963 61.1101 183.572 56.8956 183.572 49.9812C183.572 43.9887 179.811 40.9596 173.476 39.0499L169.781 37.9304C166.284 36.8768 165.492 35.428 165.492 33.7159C165.492 31.477 167.933 30.3575 170.309 30.3575C173.278 30.3575 175.522 31.7404 177.171 33.9793L182.648 29.8307C180.141 25.8137 175.918 23.7065 170.441 23.7065C163.248 23.7065 157.574 27.6576 157.574 33.9793C157.508 39.3791 160.675 43.2644 167.01 44.9765L170.177 45.8326C174.466 47.2154 175.72 48.4008 175.72 50.4422C175.72 53.0104 173.344 54.2615 170.507 54.2615C166.878 54.2615 163.314 52.4835 161.863 49.3227L156.056 53.4713C158.629 58.6736 164.106 61.1101 170.507 61.1101ZM204.753 60.715C207.261 60.715 209.042 60.4516 210.692 59.9247V52.8787C209.504 53.4055 207.921 53.603 206.403 53.603C202.312 53.603 200.332 52.0226 200.332 47.5447V31.477H210.692V24.4309H200.332V14.4215H192.414V24.4309H184.958V31.477H192.414V48.7959C192.414 56.9614 197.825 60.715 204.753 60.715Z" fill="#004FFF"/>
<path d="M18.6079 118.664C23.8208 118.664 28.1099 115.964 30.1554 113.133V117.94H38.0737V81.9849H30.1554V86.7921C28.1099 83.8946 23.8208 81.2606 18.6079 81.2606C8.71009 81.2606 1.25372 89.6896 1.25372 99.9624C1.25372 110.235 8.71009 118.664 18.6079 118.664ZM20.0596 111.42C13.725 111.42 9.30397 106.416 9.30397 99.9624C9.30397 93.4431 13.725 88.4384 20.0596 88.4384C26.3942 88.4384 30.8153 93.4431 30.8153 99.9624C30.8153 106.416 26.3942 111.42 20.0596 111.42ZM58.1333 118.664C65.5237 118.664 71.1325 114.384 71.1325 107.469C71.1325 101.543 67.3713 98.5136 61.0367 96.5381L57.4075 95.4845C53.8442 94.4309 53.0524 92.9821 53.0524 91.27C53.0524 89.031 55.4939 87.8457 57.8694 87.8457C60.8387 87.8457 63.0822 89.2944 64.7319 91.5334L70.2087 87.3848C67.7012 83.302 63.4781 81.2606 58.0013 81.2606C50.8089 81.2606 45.1341 85.2117 45.1341 91.5334C45.0682 96.9332 48.2355 100.818 54.5701 102.531L57.7374 103.387C62.0924 104.77 63.2802 105.889 63.2802 107.996C63.2802 110.499 60.9047 111.816 58.1333 111.816C54.4381 111.816 50.8749 110.038 49.4892 106.877L43.6165 111.025C46.1899 116.228 51.6667 118.664 58.1333 118.664ZM99.8362 132.954V113.133C101.882 115.964 106.237 118.664 111.45 118.664C121.282 118.664 128.804 110.235 128.804 99.9624C128.804 89.6896 121.282 81.2606 111.45 81.2606C106.237 81.2606 101.882 83.8946 99.8362 86.7921V81.9849H91.9179V132.954H99.8362ZM109.998 111.42C103.597 111.42 99.1763 106.416 99.1763 99.9624C99.1763 93.4431 103.597 88.4384 109.998 88.4384C116.333 88.4384 120.754 93.4431 120.754 99.9624C120.754 106.416 116.333 111.42 109.998 111.42ZM150.975 118.664C161.665 118.664 169.913 110.367 169.913 99.9624C169.913 89.492 161.665 81.2606 150.975 81.2606C140.351 81.2606 132.103 89.492 132.103 99.9624C132.103 110.367 140.351 118.664 150.975 118.664ZM150.975 111.289C144.574 111.289 140.087 106.35 140.087 99.9624C140.087 93.5748 144.574 88.5701 150.975 88.5701C157.31 88.5701 161.797 93.5748 161.797 99.9624C161.797 106.35 157.31 111.289 150.975 111.289ZM187.201 118.664C194.592 118.664 200.2 114.384 200.2 107.469C200.2 101.543 196.505 98.5136 190.104 96.5381L186.475 95.4845C182.912 94.4309 182.12 92.9821 182.12 91.27C182.12 89.031 184.562 87.8457 186.937 87.8457C189.907 87.8457 192.15 89.2944 193.8 91.5334L199.276 87.3848C196.769 83.302 192.612 81.2606 187.135 81.2606C179.877 81.2606 174.202 85.2117 174.202 91.5334C174.136 96.9332 177.303 100.818 183.638 102.531L186.805 103.387C191.16 104.77 192.348 105.889 192.348 107.996C192.348 110.499 189.973 111.816 187.201 111.816C183.506 111.816 179.943 110.038 178.557 106.877L172.684 111.025C175.258 116.228 180.735 118.664 187.201 118.664ZM217.752 118.664C225.143 118.664 230.752 114.384 230.752 107.469C230.752 101.543 227.056 98.5136 220.656 96.5381L217.027 95.4845C213.463 94.4309 212.672 92.9821 212.672 91.27C212.672 89.031 215.113 87.8457 217.489 87.8457C220.458 87.8457 222.701 89.2944 224.351 91.5334L229.828 87.3848C227.32 83.302 223.163 81.2606 217.686 81.2606C210.428 81.2606 204.753 85.2117 204.753 91.5334C204.687 96.9332 207.855 100.818 214.189 102.531L217.357 103.387C221.712 104.77 222.899 105.889 222.899 107.996C222.899 110.499 220.524 111.816 217.752 111.816C214.057 111.816 210.494 110.038 209.108 106.877L203.236 111.025C205.809 116.228 211.286 118.664 217.752 118.664ZM240.781 74.1486C243.751 74.1486 246.06 71.778 246.06 68.8147C246.06 65.9172 243.751 63.5466 240.781 63.5466C237.878 63.5466 235.437 65.9172 235.437 68.8147C235.437 71.778 237.878 74.1486 240.781 74.1486ZM236.822 117.94H244.741V81.9849H236.822V117.94ZM272.784 118.664C282.682 118.664 290.139 110.235 290.139 99.9624C290.139 89.6896 282.682 81.2606 272.784 81.2606C267.572 81.2606 263.217 83.8946 261.171 86.7921V64.0075H253.253V117.94H261.171V113.133C263.217 115.964 267.572 118.664 272.784 118.664ZM271.333 111.42C264.932 111.42 260.511 106.416 260.511 99.9624C260.511 93.4431 264.932 88.4384 271.333 88.4384C277.667 88.4384 282.088 93.4431 282.088 99.9624C282.088 106.416 277.667 111.42 271.333 111.42ZM296.077 117.94H303.996V64.0075H296.077V117.94ZM328.806 118.664C336.329 118.664 342.003 115.503 345.237 110.301L339.166 105.955C337.186 109.182 333.953 111.42 328.872 111.42C322.802 111.42 318.117 107.667 317.787 101.674H346.094C346.16 100.489 346.16 99.8965 346.16 99.1063C346.16 87.5165 338.308 81.2606 328.806 81.2606C317.853 81.2606 310 89.3603 310 99.9624C310 110.96 317.853 118.664 328.806 118.664ZM318.117 95.9454C319.304 90.6115 323.791 87.9116 328.476 87.9116C333.095 87.9116 337.318 90.7432 338.176 95.9454H318.117ZM356.322 118.467C359.753 118.467 362.591 115.701 362.591 112.211C362.591 108.852 359.753 105.955 356.322 105.955C352.957 105.955 350.12 108.852 350.12 112.211C350.12 115.701 352.957 118.467 356.322 118.467Z" fill="white"/>
<path d="M805.486 6.05833C774.539 6.05833 749.332 31.1477 749.332 62.032H770.316C770.316 42.7375 786.086 26.9332 805.486 26.9332C824.886 26.9332 840.656 42.7375 840.656 62.032C840.656 81.3923 824.886 97.1308 805.486 97.1308V118.071C836.433 118.071 861.64 92.9821 861.64 62.032C861.64 31.1477 836.433 6.05833 805.486 6.05833Z" fill="white"/>
<path d="M943 97.1308C923.6 97.1308 907.83 81.3923 907.83 62.032C907.83 42.7375 923.6 26.9332 943 26.9332V6.05833C912.053 6.05833 886.846 31.1477 886.846 62.032C886.846 92.9821 912.053 118.071 943 118.071V97.1308Z" fill="white"/>
</svg>
