<?xml version="1.0" encoding="UTF-8"?>
<!DOCTYPE svg PUBLIC "-//W3C//DTD SVG 1.0//EN" "http://www.w3.org/TR/2001/REC-SVG-20010904/DTD/svg10.dtd">
<!-- Creator: CorelDRAW X7 -->
<svg xmlns="http://www.w3.org/2000/svg" xml:space="preserve" width="14291px" height="2126px" version="1.0" style="shape-rendering:geometricPrecision; text-rendering:geometricPrecision; image-rendering:optimizeQuality; fill-rule:evenodd; clip-rule:evenodd"
viewBox="0 0 14291 2126"
 xmlns:xlink="http://www.w3.org/1999/xlink">
 <defs>
  <style type="text/css">
   <![CDATA[
    .fil1 {fill:#004FFF;fill-rule:nonzero}
    .fil2 {fill:white;fill-rule:nonzero}
    .fil0 {fill:white;fill-rule:nonzero}
   ]]>
  </style>
 </defs>
 <g id="Слой_x0020_1">
  <metadata id="CorelCorpID_0Corel-Layer"/>
  <path class="fil0" d="M5573 92c-470,0 -851,381 -851,850l318 0c0,-293 239,-533 533,-533 293,0 533,240 533,533 0,294 -240,533 -533,533l0 318c469,0 850,-381 850,-851 0,-469 -381,-850 -850,-850z"/>
  <path class="fil0" d="M9741 933c0,470 -382,851 -851,851l0 -318c294,0 533,-239 533,-533l318 0z"/>
  <path class="fil0" d="M10123 409c294,0 533,240 533,533 0,294 -239,533 -533,533l0 318c469,0 851,-381 851,-851l0 0c0,-469 -382,-850 -851,-850l0 317z"/>
  <path class="fil0" d="M7657 409c293,0 533,240 533,533 0,294 -240,533 -533,533 -294,0 -533,-239 -533,-533l0 0c0,-293 239,-533 533,-533zm0 1384c469,0 850,-381 850,-851 0,-469 -381,-850 -850,-850l0 0c-470,0 -851,381 -851,850 0,470 381,851 851,851z"/>
  <path class="fil1" d="M282 928c79,0 144,-40 175,-84l0 73 120 0 0 -546 -120 0 0 73c-31,-44 -96,-84 -175,-84 -150,0 -263,128 -263,284 0,156 113,284 263,284zm22 -109c-96,0 -163,-77 -163,-175 0,-98 67,-175 163,-175 96,0 163,77 163,175 0,98 -67,175 -163,175zm577 109c112,0 197,-64 197,-169 0,-91 -57,-137 -153,-166l-55 -17c-54,-16 -66,-38 -66,-64 0,-34 37,-51 73,-51 45,0 79,21 104,55l83 -63c-38,-61 -102,-93 -185,-93 -109,0 -195,60 -195,156 -1,82 47,141 143,167l48 13c66,21 84,39 84,70 0,39 -36,58 -78,58 -56,0 -110,-27 -131,-75l-89 63c39,79 122,116 220,116zm555 -11l121 0 0 -439 156 0 0 -107 -156 0 0 -78c0,-68 29,-92 91,-92 23,0 47,3 65,10l0 -107c-23,-7 -52,-13 -90,-13 -105,0 -187,66 -187,188l0 92 -113 0 0 107 113 0 0 439zm550 11c78,0 144,-40 175,-84l0 73 120 0 0 -546 -120 0 0 73c-31,-44 -97,-84 -175,-84 -150,0 -263,128 -263,284 0,156 113,284 263,284zm22 -109c-96,0 -163,-77 -163,-175 0,-98 67,-175 163,-175 96,0 162,77 162,175 0,98 -66,175 -162,175zm576 109c113,0 198,-64 198,-169 0,-91 -57,-137 -153,-166l-56 -17c-53,-16 -65,-38 -65,-64 0,-34 37,-51 73,-51 45,0 79,21 104,55l83 -63c-38,-61 -102,-93 -185,-93 -109,0 -195,60 -195,156 -1,82 47,141 143,167l48 13c65,21 84,39 84,70 0,39 -36,58 -79,58 -55,0 -109,-27 -131,-75l-88 63c39,79 122,116 219,116zm519 -6c38,0 65,-4 90,-12l0 -107c-18,8 -42,11 -65,11 -62,0 -92,-24 -92,-92l0 -244 157 0 0 -107 -157 0 0 -152 -120 0 0 152 -113 0 0 107 113 0 0 263c0,124 82,181 187,181z"/>
  <path class="fil2" d="M282 1802c79,0 144,-41 175,-84l0 73 120 0 0 -546 -120 0 0 73c-31,-44 -96,-84 -175,-84 -150,0 -263,128 -263,284 0,156 113,284 263,284zm22 -110c-96,0 -163,-76 -163,-174 0,-99 67,-175 163,-175 96,0 163,76 163,175 0,98 -67,174 -163,174zm577 110c112,0 197,-65 197,-170 0,-90 -57,-136 -153,-166l-55 -16c-54,-16 -66,-38 -66,-64 0,-34 37,-52 73,-52 45,0 79,22 104,56l83 -63c-38,-62 -102,-93 -185,-93 -109,0 -195,60 -195,156 -1,82 47,141 143,167l48 13c66,21 84,38 84,70 0,38 -36,58 -78,58 -56,0 -110,-27 -131,-75l-89 63c39,79 122,116 220,116zm632 217l0 -301c31,43 97,84 176,84 149,0 263,-128 263,-284 0,-156 -114,-284 -263,-284 -79,0 -145,40 -176,84l0 -73 -120 0 0 774 120 0zm154 -327c-97,0 -164,-76 -164,-174 0,-99 67,-175 164,-175 96,0 163,76 163,175 0,98 -67,174 -163,174zm621 110c162,0 287,-126 287,-284 0,-159 -125,-284 -287,-284 -161,0 -286,125 -286,284 0,158 125,284 286,284zm0 -112c-97,0 -165,-75 -165,-172 0,-97 68,-173 165,-173 96,0 164,76 164,173 0,97 -68,172 -164,172zm549 112c112,0 197,-65 197,-170 0,-90 -56,-136 -153,-166l-55 -16c-54,-16 -66,-38 -66,-64 0,-34 37,-52 73,-52 45,0 79,22 104,56l83 -63c-38,-62 -101,-93 -184,-93 -110,0 -196,60 -196,156 -1,82 47,141 143,167l48 13c66,21 84,38 84,70 0,38 -36,58 -78,58 -56,0 -110,-27 -131,-75l-89 63c39,79 122,116 220,116zm463 0c112,0 197,-65 197,-170 0,-90 -56,-136 -153,-166l-55 -16c-54,-16 -66,-38 -66,-64 0,-34 37,-52 73,-52 45,0 79,22 104,56l83 -63c-38,-62 -101,-93 -184,-93 -110,0 -196,60 -196,156 -1,82 47,141 143,167l48 13c66,21 84,38 84,70 0,38 -36,58 -78,58 -56,0 -110,-27 -131,-75l-89 63c39,79 122,116 220,116zm349 -676c45,0 80,-36 80,-81 0,-44 -35,-80 -80,-80 -44,0 -81,36 -81,80 0,45 37,81 81,81zm-60 665l120 0 0 -546 -120 0 0 546zm545 11c150,0 263,-128 263,-284 0,-156 -113,-284 -263,-284 -79,0 -145,40 -176,84l0 -346 -120 0 0 819 120 0 0 -73c31,43 97,84 176,84zm-22 -110c-97,0 -164,-76 -164,-174 0,-99 67,-175 164,-175 96,0 163,76 163,175 0,98 -67,174 -163,174zm375 99l120 0 0 -819 -120 0 0 819zm496 11c114,0 200,-48 249,-127l-92 -66c-30,49 -79,83 -156,83 -92,0 -163,-57 -168,-148l429 0c1,-18 1,-27 1,-39 0,-176 -119,-271 -263,-271 -166,0 -285,123 -285,284 0,167 119,284 285,284zm-162 -345c18,-81 86,-122 157,-122 70,0 134,43 147,122l-304 0zm579 342c52,0 95,-42 95,-95 0,-51 -43,-95 -95,-95 -51,0 -94,44 -94,95 0,53 43,95 94,95z"/>
  <path class="fil0" d="M12207 92c-469,0 -851,381 -851,850l318 0c0,-293 239,-533 533,-533 294,0 533,240 533,533 0,294 -239,533 -533,533l0 318c469,0 851,-381 851,-851 0,-469 -382,-850 -851,-850z"/>
  <path class="fil0" d="M14291 1475c-294,0 -533,-239 -533,-533 0,-293 239,-533 533,-533l0 -317c-469,0 -851,381 -851,850l0 0c0,470 382,851 851,851l0 -318z"/>
 </g>
</svg>
