<?xml version="1.0" encoding="UTF-8"?>
<!DOCTYPE svg PUBLIC "-//W3C//DTD SVG 1.0//EN" "http://www.w3.org/TR/2001/REC-SVG-20010904/DTD/svg10.dtd">
<!-- Creator: CorelDRAW X7 -->
<svg xmlns="http://www.w3.org/2000/svg" xml:space="preserve" width="1181px" height="437px" version="1.0" style="shape-rendering:geometricPrecision; text-rendering:geometricPrecision; image-rendering:optimizeQuality; fill-rule:evenodd; clip-rule:evenodd"
viewBox="0 0 1181 437"
 xmlns:xlink="http://www.w3.org/1999/xlink">
 <defs>
  <style type="text/css">
   <![CDATA[
    .fil0 {fill:#FF5389;fill-rule:nonzero}
    .fil1 {fill:white;fill-rule:nonzero}
   ]]>
  </style>
 </defs>
 <g id="Слой_x0020_1">
  <metadata id="CorelCorpID_0Corel-Layer"/>
  <g id="_729601824">
   <path class="fil0" d="M62 190c17,0 32,-9 39,-19l0 16 26 0 0 -121 -26 0 0 16c-7,-10 -22,-19 -39,-19 -34,0 -59,29 -59,63 0,35 25,64 59,64zm4 -25c-21,0 -36,-17 -36,-39 0,-22 15,-39 36,-39 22,0 37,17 37,39 0,22 -15,39 -37,39zm123 25c25,0 44,-15 44,-38 0,-20 -13,-30 -34,-37l-12 -4c-12,-3 -15,-8 -15,-14 0,-8 8,-12 16,-12 10,0 18,5 23,13l19 -14c-9,-14 -23,-21 -41,-21 -25,0 -44,13 -44,35 0,18 11,31 32,37l11 3c14,5 19,9 19,16 0,8 -8,13 -18,13 -12,0 -24,-6 -29,-17l-20 14c9,17 27,26 49,26zm126 -3l27 0 0 -98 35 0 0 -23 -35 0 0 -18c0,-15 6,-21 20,-21 5,0 11,1 15,3l0 -24c-5,-2 -12,-3 -20,-3 -24,0 -42,15 -42,42l0 21 -25 0 0 23 25 0 0 98zm114 3c16,0 29,-7 36,-19l0 16 27 0 0 -121 -27 0 0 59c0,27 -12,40 -30,40 -15,0 -24,-12 -24,-31l0 -68 -27 0 0 72c0,32 17,52 45,52zm85 -3l27 0 0 -60c0,-26 14,-40 32,-40 15,0 25,12 25,31l0 69 27 0 0 -73c0,-31 -19,-51 -47,-51 -16,0 -29,7 -37,19l0 -16 -27 0 0 121z"/>
   <path class="fil1" d="M62 385c17,0 32,-9 39,-19l0 16 26 0 0 -122 -26 0 0 17c-7,-10 -22,-19 -39,-19 -34,0 -59,29 -59,63 0,35 25,64 59,64zm4 -25c-21,0 -36,-17 -36,-39 0,-22 15,-39 36,-39 22,0 37,17 37,39 0,22 -15,39 -37,39zm123 25c25,0 44,-15 44,-38 0,-20 -13,-31 -34,-37l-13 -4c-12,-3 -14,-8 -14,-14 0,-8 8,-12 16,-12 10,0 18,5 23,13l19 -14c-9,-14 -23,-21 -41,-21 -25,0 -44,13 -44,35 0,18 10,31 32,37l11 3c14,5 18,9 18,16 0,8 -8,13 -17,13 -13,0 -25,-7 -29,-17l-20 14c9,17 27,26 49,26zm141 48l0 -67c7,10 22,19 39,19 34,0 59,-29 59,-64 0,-34 -25,-63 -59,-63 -17,0 -32,9 -39,19l0 -17 -27 0 0 173 27 0zm34 -73c-21,0 -36,-17 -36,-39 0,-22 15,-39 36,-39 22,0 37,17 37,39 0,22 -15,39 -37,39zm135 25c36,0 64,-28 64,-64 0,-35 -28,-63 -64,-63 -36,0 -64,28 -64,63 0,36 28,64 64,64zm0 -25c-22,0 -37,-17 -37,-39 0,-21 15,-38 37,-38 21,0 37,17 37,38 0,22 -16,39 -37,39zm116 25c25,0 44,-15 44,-38 0,-20 -13,-31 -34,-37l-12 -4c-12,-3 -15,-8 -15,-14 0,-8 8,-12 16,-12 10,0 18,5 23,13l19 -14c-9,-14 -23,-21 -41,-21 -25,0 -44,13 -44,35 0,18 11,31 32,37l11 3c14,5 19,9 19,16 0,8 -9,13 -18,13 -12,0 -24,-7 -29,-17l-20 14c9,17 27,26 49,26zm97 0c25,0 44,-15 44,-38 0,-20 -13,-31 -34,-37l-12 -4c-12,-3 -15,-8 -15,-14 0,-8 8,-12 16,-12 10,0 18,5 23,13l19 -14c-9,-14 -23,-21 -41,-21 -25,0 -44,13 -44,35 0,18 11,31 32,37l11 3c14,5 18,9 18,16 0,8 -8,13 -17,13 -12,0 -24,-7 -29,-17l-20 14c9,17 27,26 49,26zm72 -151c10,0 17,-8 17,-18 0,-10 -7,-18 -17,-18 -10,0 -18,8 -18,18 0,10 8,18 18,18zm-14 148l27 0 0 -122 -27 0 0 122zm115 3c34,0 59,-29 59,-64 0,-34 -25,-63 -59,-63 -17,0 -32,9 -39,19l0 -77 -27 0 0 182 27 0 0 -16c7,10 22,19 39,19zm-4 -25c-22,0 -37,-17 -37,-39 0,-22 15,-39 37,-39 21,0 36,17 36,39 0,22 -15,39 -36,39zm78 22l27 0 0 -182 -27 0 0 182zm106 3c25,0 44,-11 55,-29l-20 -14c-7,11 -18,18 -35,18 -21,0 -36,-13 -38,-33l96 0c0,-4 0,-6 0,-9 0,-39 -26,-60 -58,-60 -37,0 -64,28 -64,63 0,38 27,64 64,64zm-36 -77c3,-18 19,-27 35,-27 15,0 29,9 32,27l-67 0zm122 76c12,0 22,-9 22,-21 0,-11 -10,-21 -22,-21 -11,0 -21,10 -21,21 0,12 10,21 21,21z"/>
  </g>
 </g>
</svg>
