<?xml version="1.0" encoding="UTF-8"?>
<!DOCTYPE svg PUBLIC "-//W3C//DTD SVG 1.0//EN" "http://www.w3.org/TR/2001/REC-SVG-20010904/DTD/svg10.dtd">
<!-- Creator: CorelDRAW X7 -->
<svg xmlns="http://www.w3.org/2000/svg" xml:space="preserve" width="2669px" height="496px" version="1.0" style="shape-rendering:geometricPrecision; text-rendering:geometricPrecision; image-rendering:optimizeQuality; fill-rule:evenodd; clip-rule:evenodd"
viewBox="0 0 2669 496"
 xmlns:xlink="http://www.w3.org/1999/xlink">
 <defs>
  <style type="text/css">
   <![CDATA[
    .fil1 {fill:black;fill-rule:nonzero}
    .fil0 {fill:#004EFF;fill-rule:nonzero}
   ]]>
  </style>
 </defs>
 <g id="Слой_x0020_1">
  <metadata id="CorelCorpID_0Corel-Layer"/>
  <g id="_311886312">
   <path class="fil0" d="M390 50c0,23 -19,42 -42,42 -24,0 -43,-19 -43,-42 0,-24 19,-43 43,-43 23,0 42,19 42,43z"/>
   <path class="fil0" d="M986 271l-114 0 0 -147 -68 0 0 181c0,100 82,182 182,182l0 -68c-51,0 -94,-34 -109,-80l109 0 0 -68z"/>
   <path class="fil0" d="M491 271c14,-46 57,-80 108,-80 51,0 94,34 109,80l-217 0zm-291 148c-51,0 -94,-34 -108,-80l217 0c-15,46 -58,80 -109,80zm399 -295c-88,0 -162,63 -178,147l-39 0 0 -147 -68 0 0 147 -228 0 -43 0 -24 0 0 34c0,100 81,182 181,182 89,0 163,-64 179,-148l3 0 39 0c16,84 90,148 178,148 64,0 119,-33 152,-82l-57 -38c-20,31 -55,52 -95,52 -51,0 -94,-34 -108,-80l287 0c2,-11 3,-22 3,-34 0,-100 -82,-181 -182,-181z"/>
   <path class="fil1" d="M1776 419c-63,0 -114,-51 -114,-114 0,-63 51,-114 114,-114 62,0 113,51 113,114 0,63 -51,114 -113,114zm113 -295l0 40c-31,-25 -70,-40 -113,-40 -101,0 -182,81 -182,181 0,100 81,182 182,182 43,0 82,-15 113,-40l0 40 68 0 0 -363 -68 0z"/>
   <path class="fil1" d="M1193 271l-114 0 0 -147 -68 0 0 181c0,100 82,182 182,182l0 -68c-51,0 -94,-34 -109,-80l109 0 0 -68z"/>
   <path class="fil1" d="M1287 271c14,-46 58,-80 109,-80 51,0 94,34 108,80l-217 0zm109 -147c-101,0 -182,81 -182,181 0,100 81,182 182,182 63,0 119,-33 151,-82l-56 -38c-21,31 -56,52 -95,52 -51,0 -95,-34 -109,-80l287 0c2,-11 3,-22 3,-34 0,-100 -81,-181 -181,-181z"/>
   <path class="fil1" d="M2462 124c-61,0 -114,30 -147,76 -33,-46 -87,-76 -148,-76 -43,0 -83,15 -114,40l0 -40 -68 0 0 181 0 34 0 148 68 0 0 -148 0 -34c0,-63 51,-114 114,-114 63,0 114,51 114,114l0 34 0 148 67 0 0 -148 0 -34c0,-63 52,-114 114,-114 63,0 114,51 114,114l0 182 68 0 0 -182c0,-100 -82,-181 -182,-181z"/>
  </g>
 </g>
</svg>
