<svg width="24" height="24" viewBox="0 0 24 24" fill="none" xmlns="http://www.w3.org/2000/svg">
<rect width="24" height="24" fill="#7B519D"/>
<path d="M18.1698 5.31065C17.747 4.92053 16.0384 3.68019 12.2326 3.66334C12.2326 3.66334 7.7446 3.3927 5.55677 5.39951C4.33889 6.61763 3.91047 8.40002 3.86528 10.6098C3.82009 12.8196 3.76162 16.9609 7.75353 18.0838H7.75736L7.75481 19.7972C7.75481 19.7972 7.72928 20.4909 8.18604 20.6324C8.73855 20.8039 9.06281 20.2767 9.5903 19.7084C9.87983 19.3964 10.2797 18.9381 10.5809 18.5878C13.3111 18.8175 15.4108 18.2924 15.6493 18.2147C16.2005 18.036 19.3197 17.6364 19.8271 13.4954C20.3507 9.22725 19.5738 6.52751 18.1698 5.31065ZM18.6324 13.1893C18.2043 16.6468 15.6743 16.8641 15.2078 17.0137C15.0094 17.0775 13.1653 17.5364 10.8462 17.385C10.8462 17.385 9.11821 19.4696 8.57847 20.0117C8.49421 20.0964 8.39515 20.1307 8.32902 20.1138C8.23609 20.0911 8.21055 19.981 8.21158 19.8202C8.21311 19.5904 8.22638 16.9729 8.22638 16.9729C8.22638 16.9729 8.22434 16.9729 8.22638 16.9729C4.84953 16.0353 5.04638 12.5107 5.08468 10.665C5.12298 8.81925 5.4697 7.30725 6.49966 6.29031C8.35021 4.61414 12.1624 4.86461 12.1624 4.86461C15.3817 4.87865 16.9243 5.8481 17.282 6.17287C18.4698 7.1898 19.0749 9.62325 18.6324 13.1883V13.1893Z" fill="white"/>
<path fill-rule="evenodd" clip-rule="evenodd" d="M11.5917 6.91027C11.5925 6.7914 11.6896 6.69571 11.8084 6.69654C13.0575 6.70524 14.1133 7.12107 14.961 7.94743C15.8158 8.78071 16.2385 9.91514 16.2492 11.3241C16.2501 11.443 16.1545 11.54 16.0356 11.541C15.9168 11.5419 15.8197 11.4462 15.8188 11.3274C15.8087 10.0071 15.4159 8.9921 14.6605 8.25567C13.898 7.51234 12.9512 7.13498 11.8054 7.127C11.6866 7.12617 11.5909 7.02914 11.5917 6.91027ZM11.9717 8.01257C11.9803 7.89401 12.0835 7.80494 12.202 7.81362C13.1059 7.87977 13.8334 8.1886 14.3633 8.76706L14.3634 8.76714C14.8876 9.3399 15.1367 10.0524 15.1186 10.8882C15.116 11.007 15.0176 11.1013 14.8988 11.0987C14.7799 11.0961 14.6857 10.9977 14.6883 10.8789C14.7042 10.1418 14.4875 9.54031 14.0458 9.05776C13.6056 8.5772 12.9901 8.30291 12.1706 8.24294C12.0521 8.23426 11.963 8.13112 11.9717 8.01257ZM12.2979 9.17213C12.3041 9.05342 12.4054 8.96221 12.5241 8.96841C12.9682 8.99158 13.3377 9.12601 13.6009 9.39812C13.8631 9.66918 13.9916 10.0479 14.0141 10.5026C14.02 10.6214 13.9286 10.7224 13.8098 10.7283C13.6911 10.7342 13.5901 10.6427 13.5842 10.524C13.5649 10.1347 13.4581 9.86964 13.2915 9.69738C13.1259 9.52617 12.8732 9.41767 12.5017 9.39829C12.383 9.3921 12.2917 9.29084 12.2979 9.17213Z" fill="white"/>
<path d="M12.5555 13.396C12.5555 13.396 12.8581 13.4215 13.021 13.2209L13.3386 12.8213C13.4918 12.6231 13.8615 12.4968 14.2235 12.6985C14.4948 12.8532 14.7582 13.0214 15.0127 13.2025C15.253 13.3791 15.745 13.7897 15.7465 13.7897C15.9809 13.9876 16.035 14.2781 15.8754 14.5845C15.8754 14.5863 15.8742 14.5894 15.8742 14.5909C15.6984 14.8956 15.4753 15.1703 15.2131 15.4049C15.2101 15.4064 15.2101 15.4079 15.2073 15.4094C14.9795 15.5997 14.7558 15.7079 14.536 15.734C14.5037 15.7396 14.4708 15.7417 14.438 15.7401C14.3411 15.741 14.2447 15.7262 14.1525 15.6962L14.1454 15.6857C13.8068 15.5902 13.2416 15.3512 12.3002 14.8319C11.7554 14.5349 11.2368 14.1923 10.7499 13.8078C10.5058 13.6152 10.273 13.4087 10.0526 13.1894L10.0291 13.166L10.0056 13.1425L9.98216 13.1187C9.97424 13.1111 9.96658 13.1031 9.95867 13.0952C9.73937 12.8748 9.5329 12.642 9.34028 12.398C8.95582 11.9111 8.61324 11.3925 8.3162 10.8479C7.79688 9.9063 7.5579 9.34153 7.46241 9.00247L7.45194 8.99532C7.42201 8.90317 7.40727 8.80676 7.40828 8.70987C7.4065 8.67707 7.40847 8.64418 7.41416 8.61183C7.44156 8.3926 7.5499 8.16877 7.73918 7.94034C7.74071 7.93753 7.74224 7.93753 7.74377 7.93447C7.97823 7.67234 8.253 7.44928 8.55773 7.2737C8.55926 7.2737 8.56233 7.27217 8.56411 7.27217C8.8705 7.1126 9.16105 7.16672 9.35867 7.39983C9.3602 7.40136 9.76999 7.89336 9.9459 8.13362C10.127 8.38836 10.2952 8.65201 10.4499 8.92357C10.6516 9.28536 10.5252 9.65583 10.3271 9.80851L9.92752 10.1261C9.72582 10.289 9.75237 10.5916 9.75237 10.5916C9.75237 10.5916 10.3442 12.8315 12.5555 13.396Z" fill="white"/>
</svg>
