<svg width="24" height="24" viewBox="0 0 24 24" fill="none" xmlns="http://www.w3.org/2000/svg">
<rect width="24" height="24" fill="#00AFF0"/>
<path fill-rule="evenodd" clip-rule="evenodd" d="M19.5596 11.9627C19.5596 12.4239 19.5162 12.885 19.4337 13.3357C19.8034 14.0004 20 14.7522 20 15.517C20 16.7146 19.5351 17.8408 18.6901 18.6871C17.8452 19.5344 16.7226 20 15.5281 20C14.7544 20 13.9968 19.7983 13.3276 19.4188C12.8933 19.4961 12.4484 19.5367 12.0044 19.5367C10.9847 19.5367 9.9949 19.3364 9.06363 18.9407C8.16332 18.5601 7.35584 18.0134 6.66162 17.3181C5.96802 16.6226 5.42322 15.8131 5.04321 14.9109C4.64868 13.9771 4.44897 12.9854 4.44897 11.9627C4.44897 11.5249 4.48828 11.0866 4.56275 10.6575C4.19568 9.99541 4 9.24599 4 8.48381C4 7.28626 4.46545 6.16023 5.31006 5.31346C6.15478 4.46633 7.27807 4 8.47274 4C9.20462 4 9.92746 4.18294 10.5703 4.52556C10.5709 4.52544 10.5715 4.52538 10.5721 4.52532C10.5727 4.52526 10.5733 4.5252 10.5738 4.52507C11.0424 4.43488 11.5238 4.38961 12.0045 4.38961C13.0243 4.38961 14.0138 4.5898 14.9449 4.98479C15.8443 5.36633 16.6528 5.91207 17.3461 6.6076C18.0403 7.30299 18.5849 8.11294 18.9655 9.0149C19.36 9.94868 19.5596 10.9404 19.5596 11.9627ZM8.14956 14.2869C8.14956 15.2783 9.35034 16.601 12.0345 16.601C14.5885 16.601 15.8538 15.3672 15.8537 13.7147C15.8537 12.6477 15.363 11.5149 13.4273 11.0825L11.6602 10.6894C10.9883 10.5359 10.2144 10.333 10.2144 9.69766C10.2144 9.06129 10.7571 8.61652 11.737 8.61652C12.8954 8.61652 13.3122 9.08457 13.6567 9.47157C13.8994 9.74423 14.1064 9.97653 14.5116 9.97653C15.0275 9.97653 15.479 9.67257 15.479 9.14985C15.479 7.92988 13.5313 7.01447 11.8789 7.01447C10.0852 7.01447 8.17519 7.77803 8.17519 9.81149C8.17519 10.7909 8.5241 11.8329 10.4468 12.3162L12.8341 12.9136C13.5565 13.0921 13.7374 13.4994 13.7374 13.867C13.7374 14.4781 13.1316 15.0753 12.0345 15.0753C10.7972 15.0753 10.3734 14.5243 10.0151 14.0584C9.75283 13.7173 9.52574 13.422 9.04023 13.422C8.5241 13.422 8.14956 13.7785 8.14956 14.2869Z" fill="white"/>
</svg>
