<svg width="24" height="24" viewBox="0 0 24 24" fill="none" xmlns="http://www.w3.org/2000/svg">
<rect width="24" height="24" fill="#34AADF"/>
<path d="M4.64925 11.1473C4.64925 11.1473 12.0343 8.11517 14.5956 7.04747C15.5774 6.62043 18.9071 5.25377 18.9071 5.25377C18.9071 5.25377 20.4439 4.65591 20.3158 6.10791C20.2731 6.70583 19.9316 8.79844 19.5901 11.0619C19.0778 14.265 18.5229 17.7669 18.5229 17.7669C18.5229 17.7669 18.4375 18.7492 17.7118 18.92C16.9862 19.0908 15.7908 18.3221 15.5774 18.1513C15.4066 18.0232 12.3758 16.1013 11.2659 15.1618C10.9671 14.9056 10.6256 14.3931 11.3086 13.7952C12.8454 12.3858 14.681 10.6349 15.7908 9.5245C16.3031 9.01199 16.8154 7.81621 14.681 9.26822C11.6501 11.3609 8.66194 13.3254 8.66194 13.3254C8.66194 13.3254 7.97891 13.7524 6.69828 13.3681C5.41759 12.9838 3.9235 12.4713 3.9235 12.4713C3.9235 12.4713 2.89905 11.8307 4.64925 11.1473Z" fill="white"/>
</svg>
