<svg width="24" height="24" viewBox="0 0 24 24" fill="none" xmlns="http://www.w3.org/2000/svg">
<rect width="24" height="24" fill="#4ECC5C"/>
<path d="M8.38265 16.8333L8.62349 16.9761C9.63546 17.5767 10.7957 17.8943 11.9788 17.8949H11.9814C15.615 17.8949 18.5723 14.9383 18.5737 11.3045C18.5742 9.54338 17.8892 7.88763 16.6446 6.64183C15.3998 5.39627 13.7449 4.70984 11.9838 4.7091C8.34744 4.7091 5.39014 7.66526 5.38876 11.2991C5.38828 12.5443 5.73662 13.7571 6.39663 14.8062L6.5535 15.0556L5.88737 17.4875L8.38265 16.8333ZM3.98316 19.3713L5.10838 15.2627C4.41433 14.0602 4.04921 12.6961 4.04978 11.2987C4.05148 6.92688 7.60929 3.37012 11.9816 3.37012C14.1032 3.37103 16.0946 4.19674 17.5921 5.69549C19.0895 7.19422 19.9138 9.18641 19.9131 11.3051C19.9113 15.6767 16.3527 19.2342 11.9816 19.2342C11.9813 19.2342 11.9817 19.2342 11.9816 19.2342H11.9782C10.6508 19.2337 9.34645 18.9007 8.18799 18.2689L3.98316 19.3713Z" fill="white"/>
<path d="M4.32304 11.3029C4.32256 12.6518 4.67501 13.9687 5.34519 15.1297L4.25884 19.0961L8.3179 18.0318C9.43626 18.6412 10.6954 18.963 11.9769 18.9634H11.9802C16.2002 18.9634 19.6351 15.5294 19.6369 11.3089C19.6377 9.26358 18.842 7.34061 17.3963 5.89363C15.9508 4.44684 14.0283 3.64964 11.9798 3.64868C7.75959 3.64868 4.32468 7.08222 4.32285 11.3029M11.9801 18.9633H11.9801H11.9801C11.9799 18.9633 11.98 18.9633 11.9801 18.9633Z" fill="url(#paint0_linear_497_21)"/>
<path d="M4.0496 11.3007C4.04912 12.698 4.41424 14.0623 5.10829 15.2646L3.98298 19.3731L8.18768 18.2706C9.3462 18.9024 10.6505 19.2353 11.9779 19.2359H11.9813C16.3524 19.2359 19.911 15.6784 19.9128 11.3068C19.9136 9.18801 19.0892 7.19586 17.5918 5.6972C16.0942 4.19855 14.1029 3.37274 11.9813 3.37183C7.60921 3.37183 4.0513 6.92859 4.04947 11.3004M6.5534 15.0575L6.39645 14.8082C5.73644 13.7589 5.38811 12.5461 5.38859 11.301C5.39003 7.66743 8.34726 4.71104 11.9836 4.71104C13.7445 4.71172 15.3995 5.39823 16.6444 6.64377C17.8891 7.8894 18.5741 9.54529 18.5736 11.3062C18.572 14.94 15.6147 17.8966 11.9811 17.8966H11.9785C10.7954 17.8959 9.63508 17.5783 8.62317 16.9779L8.38233 16.8351L5.88709 17.4893L6.5534 15.0575ZM11.9813 19.2359H11.9813H11.9813C11.9811 19.2359 11.9812 19.2359 11.9813 19.2359Z" fill="url(#paint1_linear_497_21)"/>
<path fill-rule="evenodd" clip-rule="evenodd" d="M9.99896 7.98549C9.85048 7.65544 9.69425 7.64883 9.55302 7.64303C9.43745 7.63811 9.30526 7.63843 9.17323 7.63843C9.04103 7.63843 8.82633 7.68803 8.64478 7.88636C8.46306 8.08469 7.95107 8.5641 7.95107 9.53913C7.95107 10.5143 8.66133 11.4565 8.76028 11.5888C8.8594 11.7209 10.1313 13.7858 12.1456 14.5802C13.8197 15.2403 14.1604 15.109 14.5238 15.076C14.8871 15.043 15.6963 14.5967 15.8614 14.1339C16.0266 13.6712 16.0266 13.2745 15.9771 13.1917C15.9276 13.1091 15.7954 13.0595 15.5972 12.9605C15.3989 12.8614 14.4246 12.3819 14.243 12.3157C14.0613 12.2497 13.9292 12.2167 13.797 12.4151C13.6649 12.6133 13.2853 13.0595 13.1696 13.1917C13.0541 13.3242 12.9384 13.3407 12.7402 13.2416C12.542 13.1421 11.9037 12.9331 11.1465 12.258C10.5573 11.7327 10.1596 11.084 10.0439 10.8855C9.92835 10.6874 10.0316 10.58 10.131 10.4812C10.22 10.3924 10.3292 10.2498 10.4283 10.1342C10.5272 10.0184 10.5602 9.93583 10.6263 9.80364C10.6924 9.67136 10.6593 9.55562 10.6098 9.45649C10.5602 9.35736 10.1751 8.37732 9.99884 7.98543" fill="white"/>
<defs>
<linearGradient id="paint0_linear_497_21" x1="11.948" y1="19.0945" x2="11.948" y2="3.64706" gradientUnits="userSpaceOnUse">
<stop stop-color="#20B038"/>
<stop offset="1" stop-color="#60D66A"/>
</linearGradient>
<linearGradient id="paint1_linear_497_21" x1="11.948" y1="19.3735" x2="11.948" y2="3.37231" gradientUnits="userSpaceOnUse">
<stop stop-color="#F9F9F9"/>
<stop offset="1" stop-color="white"/>
</linearGradient>
</defs>
</svg>
