<svg width="31" height="31" viewBox="0 0 31 31" fill="none" xmlns="http://www.w3.org/2000/svg">
<path fill-rule="evenodd" clip-rule="evenodd" d="M19.2651 26C19.2651 26 21.3706 26 21.3706 24.0001V18.6666H20.3179V22.4714H10.843V19.5833H9.79022V24.0001C9.79025 26 11.8958 26 11.8958 26H19.2651ZM9.79022 11.3333V5.99992C9.79022 4 11.8958 4 11.8958 4H19.2651C19.2651 4 21.3706 4 21.3706 5.99992V11.3333H20.3179V6.49614H10.843V11.3333H9.79022ZM15.5804 25.1673C14.9993 25.1673 14.5277 24.7199 14.5277 24.1688C14.5277 23.6177 14.9993 23.1704 15.5804 23.1704C16.1616 23.1704 16.6332 23.6177 16.6332 24.1688C16.6332 24.72 16.1616 25.1673 15.5804 25.1673ZM14.0013 5.21911C14.0013 5.09531 14.0634 4.99844 14.1413 4.99844H17.0195C17.0964 4.99844 17.1596 5.09731 17.1596 5.21911V5.27803C17.1596 5.40183 17.0964 5.49869 17.0195 5.49869H14.1413C14.0644 5.49869 14.0013 5.39983 14.0013 5.27803V5.21911Z" fill="white"/>
<path fill-rule="evenodd" clip-rule="evenodd" d="M16 21.16L19.4815 20.3862C20.4347 20.8958 21.4991 21.1616 22.58 21.16C26.2141 21.16 29.16 18.2141 29.16 14.58C29.16 10.9459 26.2141 8 22.58 8C18.9459 8 16 10.9459 16 14.58C15.9984 15.6609 16.2642 16.7253 16.7738 17.6785L16 21.16ZM24.6082 15.1527L25.4576 16.0003C25.67 16.2122 25.67 16.5755 25.4576 16.8177L24.8812 17.3929C24.2745 17.9983 22.6667 17.3323 21.2409 15.9095C19.8152 14.4867 19.1781 12.8823 19.7545 12.2768L20.3309 11.7017C20.5432 11.4898 20.9073 11.4898 21.1499 11.7017L21.9994 12.5493C22.3027 12.852 22.1814 13.3666 21.787 13.4877C21.514 13.5785 21.332 13.8813 21.423 14.1537C21.5746 14.7894 22.3937 15.5765 23.0004 15.7279C23.2735 15.7884 23.5768 15.6371 23.6678 15.3646C23.7892 14.9711 24.3049 14.85 24.6082 15.1527Z" fill="white"/>
<path fill-rule="evenodd" clip-rule="evenodd" d="M15.1646 8.00001L11.6819 8.77408C10.7284 8.26431 9.66354 7.99838 8.5823 8.00001C4.94692 8.00001 2.00003 10.9469 2.00003 14.5823C2.00003 18.2177 4.94692 21.1646 8.5823 21.1646C12.2177 21.1646 15.1646 18.2177 15.1646 14.5823C15.1662 13.501 14.9003 12.4362 14.3905 11.4827L15.1646 8.00001ZM10 16H5V17H10V16ZM5 14H12V15H5V14ZM12 12H5V13H12V12Z" fill="white"/>
</svg>
