<?xml version="1.0" encoding="UTF-8"?>
<svg xmlns="http://www.w3.org/2000/svg" xmlns:xlink="http://www.w3.org/1999/xlink" width="595.2756pt" height="595.2756pt" viewBox="0 0 595.2756 595.2756" version="1.1">
<g id="surface1">
<path style=" stroke:none;fill-rule:nonzero;fill:rgb(10.195923%,10.195923%,9.411621%);fill-opacity:1;" d="M 119.296875 209.605469 C 130.480469 209.605469 140.507812 210.832031 149.378906 213.292969 C 158.25 215.753906 165.742188 219.332031 171.851562 224.027344 C 177.964844 228.722656 182.664062 234.464844 185.941406 241.246094 C 189.222656 248.03125 190.863281 255.746094 190.863281 264.394531 C 190.863281 276.320312 187.878906 286.386719 181.917969 294.585938 C 175.953125 302.785156 167.378906 309.046875 156.199219 313.371094 L 193.097656 366.148438 L 156.199219 366.148438 L 123.324219 319.1875 L 71.214844 319.1875 L 71.214844 366.148438 L 38.789062 366.148438 L 38.789062 209.605469 Z M 71.214844 226.375 L 71.214844 302.414062 L 119.296875 302.414062 C 131.078125 302.414062 140.171875 299.320312 146.582031 293.132812 C 152.992188 286.945312 156.199219 277.367188 156.199219 264.394531 C 156.199219 251.421875 152.992188 241.84375 146.582031 235.65625 C 140.171875 229.46875 131.078125 226.375 119.296875 226.375 Z M 71.214844 226.375 "/>
<path style=" stroke:none;fill-rule:nonzero;fill:rgb(10.195923%,10.195923%,9.411621%);fill-opacity:1;" d="M 250.125 366.148438 L 218.816406 366.148438 L 218.816406 252.09375 L 250.125 252.09375 Z M 251.246094 221.902344 C 251.246094 226.375 249.714844 230.289062 246.660156 233.644531 C 243.601562 237 239.539062 238.675781 234.472656 238.675781 C 229.402344 238.675781 225.339844 237 222.28125 233.644531 C 219.226562 230.289062 217.699219 226.375 217.699219 221.902344 C 217.699219 217.429688 219.226562 213.515625 222.28125 210.164062 C 225.339844 206.808594 229.402344 205.132812 234.472656 205.132812 C 239.390625 205.132812 243.417969 206.808594 246.546875 210.164062 C 249.679688 213.515625 251.246094 217.429688 251.246094 221.902344 "/>
<path style=" stroke:none;fill-rule:nonzero;fill:rgb(10.195923%,10.195923%,9.411621%);fill-opacity:1;" d="M 405.554688 366.148438 L 374.246094 366.148438 L 374.246094 295.703125 C 374.246094 284.96875 371.558594 277.253906 366.191406 272.558594 C 360.828125 267.859375 353.074219 265.511719 342.933594 265.511719 L 313.863281 265.511719 L 313.863281 366.148438 L 282.554688 366.148438 L 282.554688 249.859375 L 342.933594 249.859375 C 364.253906 249.859375 380.023438 253.695312 390.234375 261.375 C 400.445312 269.054688 405.554688 280.496094 405.554688 295.703125 Z M 405.554688 366.148438 "/>
<path style=" stroke:none;fill-rule:nonzero;fill:rgb(10.195923%,10.195923%,9.411621%);fill-opacity:1;" d="M 461.460938 329.25 C 461.460938 343.414062 470.035156 350.496094 487.179688 350.496094 L 518.488281 350.496094 L 518.488281 308.003906 L 487.179688 308.003906 C 470.035156 308.003906 461.460938 315.085938 461.460938 329.25 Z M 518.488281 292.347656 C 518.488281 281.613281 515.695312 273.710938 510.101562 268.644531 C 504.511719 263.574219 497.246094 261.039062 488.300781 261.039062 C 481.589844 261.039062 475.03125 262.046875 468.617188 264.058594 C 462.207031 266.070312 456.46875 268.792969 451.398438 272.222656 L 443.570312 258.804688 C 446.851562 256.566406 450.46875 254.628906 454.417969 252.988281 C 458.367188 251.347656 462.433594 249.96875 466.605469 248.851562 C 470.78125 247.734375 474.917969 246.875 479.019531 246.28125 C 483.117188 245.683594 486.957031 245.386719 490.535156 245.386719 C 500.078125 245.386719 508.5 246.503906 515.804688 248.738281 C 523.113281 250.976562 529.300781 254.183594 534.367188 258.355469 C 539.4375 262.53125 543.277344 267.488281 545.886719 273.226562 C 548.496094 278.96875 549.796875 285.34375 549.796875 292.347656 L 549.796875 366.148438 L 487.179688 366.148438 C 466.90625 366.148438 451.957031 363.09375 442.339844 356.980469 C 432.726562 350.867188 427.917969 341.625 427.917969 329.25 C 427.917969 316.875 432.726562 307.632812 442.339844 301.519531 C 451.957031 295.40625 466.90625 292.347656 487.179688 292.347656 Z M 518.488281 292.347656 "/>
<path style=" stroke:none;fill-rule:nonzero;fill:rgb(10.195923%,10.195923%,9.411621%);fill-opacity:1;" d="M 13.230469 187.785156 C 13.136719 129.449219 14.910156 122.78125 54.488281 103.394531 C 125.3125 71.964844 184.921875 61.113281 249.914062 52.660156 C 310.042969 49.230469 379.054688 45.867188 427.816406 72.609375 C 349.210938 57.472656 266.121094 62.078125 214.367188 75.699219 C 141.507812 93.175781 59.410156 136.082031 13.230469 187.785156 "/>
<path style=" stroke:none;fill-rule:nonzero;fill:rgb(10.195923%,10.195923%,9.411621%);fill-opacity:1;" d="M 158.269531 105.390625 C 172.089844 100.753906 185.707031 95.671875 199.757812 91.5625 C 249.417969 77.035156 300.882812 71.359375 353.382812 74.324219 C 378.964844 75.765625 404.492188 79.453125 429.648438 83.664062 C 449.324219 86.960938 468.65625 92.027344 487.667969 97.394531 C 509.648438 103.597656 523.246094 118.320312 537.554688 132.550781 C 415.167969 85.9375 289.609375 71.523438 158.910156 106.984375 C 158.699219 106.453125 158.484375 105.921875 158.269531 105.390625 "/>
<path style=" stroke:none;fill-rule:nonzero;fill:rgb(10.195923%,10.195923%,9.411621%);fill-opacity:1;" d="M 273.277344 102.414062 C 291.5625 102.414062 309.691406 101.503906 327.640625 102.582031 C 382.390625 105.871094 435.917969 114.464844 486.066406 132.976562 C 510.539062 142.007812 533.78125 153.402344 556.832031 164.71875 C 573.597656 172.949219 584.070312 185.796875 590.378906 202.40625 C 586.957031 200.757812 584.566406 199.671875 582.253906 198.484375 C 542.347656 177.988281 502.203125 157.867188 458.984375 142.074219 C 409.136719 123.855469 357.023438 112.1875 303.007812 105.789062 C 293.140625 104.617188 283.253906 103.542969 273.277344 102.414062 "/>
<path style=" stroke:none;fill-rule:nonzero;fill:rgb(10.195923%,10.195923%,9.411621%);fill-opacity:1;" d="M 84.070312 493.464844 C 87.621094 493.464844 90.882812 492.917969 93.855469 491.820312 C 96.832031 490.722656 99.386719 488.976562 101.527344 486.574219 C 103.664062 484.175781 105.335938 481.097656 106.535156 477.339844 C 107.734375 473.582031 108.335938 469.042969 108.335938 463.71875 C 108.335938 458.398438 107.734375 453.859375 106.535156 450.101562 C 105.335938 446.34375 103.664062 443.265625 101.527344 440.863281 C 99.386719 438.464844 96.832031 436.714844 93.855469 435.621094 C 90.882812 434.523438 87.621094 433.976562 84.070312 433.976562 L 64.503906 433.976562 L 64.503906 493.464844 Z M 42.585938 504.421875 L 42.585938 394.839844 L 64.503906 394.839844 L 64.503906 423.019531 L 84.070312 423.019531 C 91.273438 423.019531 97.820312 423.957031 103.71875 425.835938 C 109.613281 427.714844 114.648438 430.429688 118.824219 433.976562 C 123 437.523438 126.207031 441.804688 128.453125 446.8125 C 130.695312 451.824219 131.816406 457.457031 131.816406 463.71875 C 131.816406 469.980469 130.695312 475.617188 128.453125 480.628906 C 126.207031 485.636719 123 489.914062 118.824219 493.464844 C 114.648438 497.011719 109.613281 499.726562 103.71875 501.605469 C 97.820312 503.484375 91.273438 504.421875 84.070312 504.421875 Z M 42.585938 504.421875 "/>
<path style=" stroke:none;fill-rule:nonzero;fill:rgb(10.195923%,10.195923%,9.411621%);fill-opacity:1;" d="M 211.65625 433.976562 L 192.871094 433.976562 C 185.773438 433.976562 180.347656 435.882812 176.589844 439.691406 C 172.832031 443.5 170.953125 449.160156 170.953125 456.675781 L 170.953125 504.421875 L 149.039062 504.421875 L 149.039062 456.675781 C 149.039062 446.03125 152.402344 437.757812 159.136719 431.863281 C 165.867188 425.964844 175.546875 423.019531 188.175781 423.019531 L 211.65625 423.019531 Z M 211.65625 433.976562 "/>
<path style=" stroke:none;fill-rule:nonzero;fill:rgb(10.195923%,10.195923%,9.411621%);fill-opacity:1;" d="M 263.316406 497.378906 C 266.65625 497.378906 269.785156 496.75 272.710938 495.5 C 275.632812 494.246094 278.1875 492.289062 280.378906 489.628906 C 282.570312 486.96875 284.320312 483.496094 285.625 479.21875 C 286.929688 474.9375 287.582031 469.773438 287.582031 463.71875 C 287.582031 457.667969 286.929688 452.5 285.625 448.222656 C 284.320312 443.941406 282.570312 440.472656 280.378906 437.8125 C 278.1875 435.152344 275.632812 433.195312 272.710938 431.941406 C 269.785156 430.6875 266.65625 430.0625 263.316406 430.0625 C 259.976562 430.0625 256.847656 430.6875 253.921875 431.941406 C 251 433.195312 248.445312 435.152344 246.253906 437.8125 C 244.0625 440.472656 242.3125 443.941406 241.007812 448.222656 C 239.703125 452.5 239.050781 457.667969 239.050781 463.71875 C 239.050781 469.773438 239.703125 474.9375 241.007812 479.21875 C 242.3125 483.496094 244.0625 486.96875 246.253906 489.628906 C 248.445312 492.289062 251 494.246094 253.921875 495.5 C 256.847656 496.75 259.976562 497.378906 263.316406 497.378906 Z M 263.316406 419.886719 C 270.308594 419.886719 276.753906 420.851562 282.648438 422.785156 C 288.546875 424.714844 293.582031 427.53125 297.757812 431.238281 C 301.929688 434.941406 305.191406 439.535156 307.539062 445.011719 C 309.890625 450.492188 311.0625 456.726562 311.0625 463.71875 C 311.0625 470.816406 309.890625 477.078125 307.539062 482.503906 C 305.191406 487.933594 301.929688 492.5 297.757812 496.203125 C 293.582031 499.910156 288.546875 502.726562 282.648438 504.65625 C 276.753906 506.589844 270.308594 507.554688 263.316406 507.554688 C 256.21875 507.554688 249.75 506.589844 243.90625 504.65625 C 238.058594 502.726562 233.050781 499.910156 228.875 496.203125 C 224.703125 492.5 221.441406 487.933594 219.09375 482.503906 C 216.742188 477.078125 215.570312 470.816406 215.570312 463.71875 C 215.570312 456.726562 216.742188 450.492188 219.09375 445.011719 C 221.441406 439.535156 224.703125 434.941406 228.875 431.238281 C 233.050781 427.53125 238.058594 424.714844 243.90625 422.785156 C 249.75 420.851562 256.21875 419.886719 263.316406 419.886719 "/>
<path style=" stroke:none;fill-rule:nonzero;fill:rgb(10.195923%,10.195923%,9.411621%);fill-opacity:1;" d="M 416.730469 489.550781 L 418.296875 489.550781 L 436.300781 423.019531 L 459 423.019531 L 437.082031 504.421875 L 404.207031 504.421875 L 389.335938 448.066406 L 387.769531 448.066406 L 372.898438 504.421875 L 340.023438 504.421875 L 318.105469 423.019531 L 340.804688 423.019531 L 358.808594 489.550781 L 360.375 489.550781 L 376.03125 430.84375 L 401.078125 430.84375 Z M 416.730469 489.550781 "/>
<path style=" stroke:none;fill-rule:nonzero;fill:rgb(10.195923%,10.195923%,9.411621%);fill-opacity:1;" d="M 491.875 440.238281 C 491.875 442.640625 492.941406 444.832031 495.082031 446.8125 C 497.222656 448.796875 500.847656 450.519531 505.960938 451.980469 L 530.226562 459.023438 C 537.742188 461.214844 543.535156 464.191406 547.605469 467.945312 C 551.675781 471.703125 553.710938 476.558594 553.710938 482.503906 C 553.710938 486.261719 552.925781 489.679688 551.359375 492.757812 C 549.796875 495.839844 547.238281 498.472656 543.691406 500.664062 C 540.140625 502.855469 535.550781 504.554688 529.914062 505.753906 C 524.277344 506.953125 517.339844 507.554688 509.09375 507.554688 C 504.816406 507.554688 500.613281 507.242188 496.492188 506.613281 C 492.371094 505.988281 488.457031 505.125 484.75 504.03125 C 481.046875 502.933594 477.679688 501.683594 474.652344 500.273438 C 471.625 498.863281 469.019531 497.378906 466.828125 495.8125 L 473.089844 486.417969 C 477.472656 489.132812 482.609375 491.507812 488.507812 493.542969 C 494.40625 495.578125 501.265625 496.59375 509.09375 496.59375 C 516.921875 496.59375 522.398438 495.550781 525.53125 493.464844 C 528.660156 491.375 530.226562 488.765625 530.226562 485.636719 C 530.226562 483.238281 529.132812 481.070312 526.941406 479.140625 C 524.75 477.210938 520.886719 475.460938 515.355469 473.894531 L 491.089844 466.851562 C 484.410156 464.867188 478.957031 462.023438 474.730469 458.320312 C 470.503906 454.613281 468.390625 449.632812 468.390625 443.371094 C 468.390625 440.03125 469.148438 436.925781 470.660156 434.054688 C 472.175781 431.183594 474.550781 428.707031 477.785156 426.617188 C 481.019531 424.53125 485.140625 422.886719 490.152344 421.6875 C 495.160156 420.488281 501.214844 419.886719 508.3125 419.886719 C 516.972656 419.886719 524.828125 421.0625 531.871094 423.410156 C 538.914062 425.757812 544.628906 428.496094 549.011719 431.628906 L 542.75 441.019531 C 538.472656 438.308594 533.621094 435.933594 528.191406 433.898438 C 522.765625 431.863281 516.136719 430.84375 508.3125 430.84375 C 502.78125 430.84375 498.65625 431.734375 495.945312 433.507812 C 493.230469 435.28125 491.875 437.523438 491.875 440.238281 "/>
</g>
</svg>
