<?xml version="1.0" encoding="UTF-8"?>
<!DOCTYPE svg PUBLIC "-//W3C//DTD SVG 1.0//EN" "http://www.w3.org/TR/2001/REC-SVG-20010904/DTD/svg10.dtd">
<!-- Creator: CorelDRAW X7 -->
<svg xmlns="http://www.w3.org/2000/svg" xml:space="preserve" width="501px" height="193px" version="1.0" style="shape-rendering:geometricPrecision; text-rendering:geometricPrecision; image-rendering:optimizeQuality; fill-rule:evenodd; clip-rule:evenodd"
viewBox="0 0 501 193"
 xmlns:xlink="http://www.w3.org/1999/xlink">
 <defs>
  <style type="text/css">
   <![CDATA[
    .fil2 {fill:#004EFF;fill-rule:nonzero}
    .fil3 {fill:white;fill-rule:nonzero}
    .fil1 {fill:white;fill-rule:nonzero}
    .fil0 {fill:#3342B5;fill-rule:nonzero}
   ]]>
  </style>
 </defs>
 <g id="Слой_x0020_1">
  <metadata id="CorelCorpID_0Corel-Layer"/>
  <path class="fil0" d="M379 192c57,0 103,-46 103,-103l-38 0c0,36 -29,64 -65,64l-379 0 0 39 379 0z"/>
  <path class="fil0" d="M65 57c5,0 9,-3 11,-6l0 5 9 0 0 -36 -9 0 0 5c-2,-3 -6,-6 -11,-6 -10,0 -18,8 -18,19 0,10 8,19 18,19zm1 -7c-6,0 -11,-6 -11,-12 0,-7 5,-12 11,-12 7,0 11,5 11,12 0,6 -4,12 -11,12z"/>
  <path class="fil0" d="M102 57c7,0 13,-4 13,-11 0,-7 -4,-10 -10,-12l-4 -1c-3,-1 -4,-2 -4,-4 0,-2 2,-3 5,-3 3,0 5,1 7,3l5 -4c-2,-4 -7,-6 -12,-6 -8,0 -13,4 -13,10 0,6 3,10 9,12l4 0c4,2 5,3 5,5 0,3 -2,4 -5,4 -4,0 -7,-2 -9,-5l-6 4c3,5 8,8 15,8z"/>
  <path class="fil0" d="M149 56l0 -18c0,-8 4,-12 9,-12 5,0 8,4 8,9l0 21 8 0 0 -22c0,-9 -6,-15 -14,-15 -5,0 -9,2 -11,6l0 -24 -8 0 0 55 8 0z"/>
  <path class="fil0" d="M183 12c3,0 5,-3 5,-6 0,-3 -2,-5 -5,-5 -3,0 -6,2 -6,5 0,3 3,6 6,6zm-4 44l8 0 0 -36 -8 0 0 36z"/>
  <path class="fil0" d="M209 49c-6,0 -11,-5 -11,-12 0,-6 5,-11 11,-11 6,0 11,5 11,11 0,7 -5,12 -11,12zm-1 23c11,0 19,-6 19,-18l0 -34 -8 0 0 5c-2,-4 -6,-6 -11,-6 -10,0 -18,8 -18,18 0,11 8,19 18,19 5,0 9,-3 11,-6l0 4c0,7 -5,11 -11,11 -5,0 -9,-2 -12,-5l-5 5c4,5 10,7 17,7z"/>
  <path class="fil0" d="M241 56l0 -18c0,-8 4,-12 9,-12 5,0 8,4 8,9l0 21 8 0 0 -22c0,-9 -5,-15 -14,-15 -5,0 -9,2 -11,6l0 -24 -8 0 0 55 8 0z"/>
  <path class="fil1" d="M65 115c5,0 9,-2 11,-5l0 5 9 0 0 -37 -9 0 0 5c-2,-3 -6,-6 -11,-6 -10,0 -18,9 -18,19 0,11 8,19 18,19zm1 -7c-6,0 -11,-5 -11,-12 0,-6 5,-11 11,-11 7,0 11,5 11,11 0,7 -4,12 -11,12z"/>
  <path class="fil1" d="M102 115c7,0 13,-4 13,-11 0,-6 -4,-9 -10,-11l-4 -1c-3,-1 -4,-3 -4,-5 0,-2 2,-3 5,-3 3,0 5,2 7,4l5 -4c-2,-5 -7,-7 -12,-7 -8,0 -13,4 -13,11 0,5 3,9 9,11l4 1c4,1 5,2 5,5 0,2 -2,3 -5,3 -4,0 -7,-1 -9,-5l-6 5c3,5 8,7 15,7z"/>
  <path class="fil1" d="M149 130l0 -20c2,3 6,5 11,5 10,0 18,-8 18,-19 0,-10 -8,-19 -18,-19 -5,0 -9,3 -11,6l0 -5 -8 0 0 52 8 0zm10 -22c-7,0 -11,-5 -11,-12 0,-6 4,-11 11,-11 6,0 11,5 11,11 0,7 -5,12 -11,12z"/>
  <path class="fil1" d="M198 115c10,0 19,-8 19,-19 0,-10 -9,-19 -19,-19 -11,0 -20,9 -20,19 0,11 9,19 20,19zm0 -7c-7,0 -11,-5 -11,-12 0,-6 4,-11 11,-11 6,0 11,5 11,11 0,7 -5,12 -11,12z"/>
  <path class="fil1" d="M231 115c8,0 13,-4 13,-11 0,-6 -3,-9 -10,-11l-4 -1c-3,-1 -4,-3 -4,-5 0,-2 2,-3 5,-3 3,0 5,2 7,4l5 -4c-2,-5 -6,-7 -12,-7 -7,0 -13,4 -13,11 0,5 3,9 10,11l3 1c4,1 5,2 5,5 0,2 -2,3 -5,3 -4,0 -7,-1 -9,-5l-6 5c3,5 9,7 15,7z"/>
  <path class="fil1" d="M259 115c8,0 13,-4 13,-11 0,-6 -3,-9 -10,-11l-4 -1c-3,-1 -4,-3 -4,-5 0,-2 2,-3 5,-3 3,0 5,2 7,4l5 -4c-2,-5 -6,-7 -12,-7 -7,0 -13,4 -13,11 0,5 3,9 10,11l3 1c4,1 5,2 5,5 0,2 -2,3 -5,3 -4,0 -7,-1 -9,-5l-6 5c3,5 9,7 15,7z"/>
  <path class="fil1" d="M280 70c3,0 5,-2 5,-5 0,-3 -2,-6 -5,-6 -3,0 -6,3 -6,6 0,3 3,5 6,5zm-4 45l8 0 0 -37 -8 0 0 37z"/>
  <path class="fil1" d="M309 115c10,0 18,-8 18,-19 0,-10 -8,-19 -18,-19 -5,0 -10,3 -12,6l0 -23 -8 0 0 55 8 0 0 -5c2,3 7,5 12,5zm-1 -7c-7,0 -11,-5 -11,-12 0,-6 4,-11 11,-11 6,0 10,5 10,11 0,7 -4,12 -10,12z"/>
  <polygon class="fil1" points="330,115 338,115 338,60 330,60 "/>
  <path class="fil1" d="M360 115c8,0 13,-3 17,-8l-7 -5c-2,4 -5,6 -10,6 -6,0 -11,-4 -11,-10l28 0c0,-1 0,-2 0,-3 0,-11 -7,-18 -17,-18 -11,0 -19,9 -19,19 0,11 8,19 19,19zm-11 -23c1,-5 6,-8 11,-8 4,0 8,3 9,8l-20 0z"/>
  <path class="fil1" d="M385 115c3,0 6,-3 6,-6 0,-4 -3,-7 -6,-7 -4,0 -6,3 -6,7 0,3 2,6 6,6z"/>
  <g id="_559219720">
   <g id="_312732800">
    <path class="fil2" d="M-696 202c0,24 -20,44 -43,44 -25,0 -44,-20 -44,-44 0,-23 19,-43 44,-43 23,0 43,20 43,43z"/>
    <path class="fil2" d="M-89 428l-116 0 0 -151 -69 0 0 186c0,102 83,186 185,186l0 -70c-52,0 -96,-34 -111,-81l111 0 0 -70z"/>
    <path class="fil2" d="M-594 428c15,-47 59,-81 111,-81 52,0 95,34 110,81l-221 0zm-296 151c-52,0 -96,-34 -111,-81l221 0c-14,47 -58,81 -110,81zm407 -302c-91,0 -167,66 -183,151l-40 0 0 -151 -68 0 0 151 -232 0 -44 0 -26 0 0 35c0,102 84,186 186,186 90,0 165,-66 181,-151l3 0 40 0c16,85 92,151 183,151 64,0 121,-34 155,-85l-58 -38c-21,32 -57,53 -97,53 -52,0 -96,-34 -111,-81l292 0c2,-12 3,-23 3,-35 0,-102 -82,-186 -184,-186l0 0z"/>
    <path class="fil3" d="M716 579c-64,0 -116,-52 -116,-116 0,-64 52,-116 116,-116 64,0 116,52 116,116 0,64 -52,116 -116,116zm116 -302l0 42c-32,-26 -72,-42 -116,-42 -102,0 -185,84 -185,186 0,102 83,186 185,186 44,0 84,-16 116,-42l0 42 69 0 0 -372 -69 0 0 0z"/>
    <path class="fil3" d="M122 428l-116 0 0 -151 -69 0 0 186c0,102 83,186 185,186l0 -70c-52,0 -96,-34 -111,-81l111 0 0 -70z"/>
    <path class="fil3" d="M218 428c14,-47 58,-81 110,-81 52,0 96,34 111,81l-221 0zm110 -151c-102,0 -184,84 -184,186 0,102 82,186 184,186 66,0 123,-34 155,-85l-58 -38c-20,32 -56,53 -97,53 -52,0 -96,-34 -110,-81l293 0c2,-12 3,-23 3,-35 0,-102 -84,-186 -186,-186z"/>
    <path class="fil3" d="M1416 277c-62,0 -117,31 -151,79 -33,-48 -88,-79 -150,-79 -44,0 -84,16 -116,42l0 -42 -69 0 0 186 0 35 0 151 69 0 0 -151 0 -35c0,-64 52,-116 116,-116 64,0 116,52 116,116l0 35 0 151 69 0 0 -151 0 -35c0,-64 52,-116 116,-116 65,0 117,52 117,116l0 186 68 0 0 -186c0,-102 -83,-186 -185,-186z"/>
   </g>
  </g>
 </g>
</svg>
