<svg width="6" height="9" viewBox="0 0 6 9" fill="none" xmlns="http://www.w3.org/2000/svg">
<path d="M2.52282 7.07143H1.77282V0.321429C1.77282 0.23618 1.74409 0.154424 1.69294 0.0941442C1.6418 0.0338647 1.57243 0 1.5001 0H1.22737C1.15504 0 1.08567 0.0338647 1.03453 0.0941442C0.98338 0.154424 0.954646 0.23618 0.954646 0.321429V7.07143H0.204652C0.164684 7.0714 0.125586 7.08518 0.092188 7.11105C0.05879 7.13693 0.0325556 7.17377 0.0167262 7.21702C0.000896856 7.26028 -0.00383391 7.30805 0.00311848 7.35443C0.0100709 7.40082 0.0284018 7.44379 0.0558463 7.47804L1.21493 8.92446C1.23405 8.9483 1.25709 8.96728 1.28264 8.98026C1.3082 8.99323 1.33574 8.99992 1.36356 8.99992C1.39139 8.99992 1.41893 8.99323 1.44448 8.98026C1.47004 8.96728 1.49308 8.9483 1.5122 8.92446L2.67128 7.47804C2.69871 7.44382 2.71703 7.40088 2.72399 7.35453C2.73096 7.30818 2.72626 7.26044 2.71047 7.21721C2.69468 7.17397 2.6685 7.13713 2.63515 7.11122C2.60181 7.08531 2.56275 7.07148 2.52282 7.07143V7.07143ZM5.94415 1.52196L4.78507 0.0755357C4.76595 0.0517034 4.74291 0.0327192 4.71736 0.0197447C4.6918 0.00677007 4.66426 7.8014e-05 4.63644 7.8014e-05C4.60861 7.8014e-05 4.58107 0.00677007 4.55552 0.0197447C4.52996 0.0327192 4.50692 0.0517034 4.4878 0.0755357L3.32872 1.52196C3.30128 1.5562 3.28296 1.59915 3.276 1.64552C3.26904 1.69188 3.27376 1.73964 3.28957 1.78288C3.30537 1.82613 3.33158 1.86297 3.36495 1.88886C3.39833 1.91475 3.4374 1.92856 3.47735 1.92857H4.22735V8.67857C4.22735 8.76382 4.25608 8.84558 4.30723 8.90586C4.35837 8.96614 4.42774 9 4.50007 9H4.7728C4.84513 9 4.9145 8.96614 4.96565 8.90586C5.01679 8.84558 5.04552 8.76382 5.04552 8.67857V1.92857H5.79552C5.83547 1.92856 5.87455 1.91475 5.90792 1.88886C5.94129 1.86297 5.9675 1.82613 5.98331 1.78288C5.99912 1.73964 6.00383 1.69188 5.99687 1.64552C5.98992 1.59915 5.97159 1.5562 5.94415 1.52196V1.52196Z" fill="#0050FF"/>
</svg>
