<svg width="120" height="60" viewBox="0 0 120 60" fill="none" xmlns="http://www.w3.org/2000/svg">
<rect width="120" height="60" fill="white"/>
<path d="M36.088 38H38.75L40.51 33.908H47.506L49.288 38H51.972L45.152 22.38H42.908L36.088 38ZM44.008 25.856L46.516 31.62H41.5L44.008 25.856ZM54.9083 24.602C55.8103 24.602 56.5143 23.876 56.5143 22.974C56.5143 22.094 55.8103 21.368 54.9083 21.368C54.0283 21.368 53.2803 22.094 53.2803 22.974C53.2803 23.876 54.0283 24.602 54.9083 24.602ZM53.6983 38H56.1183V27H53.6983V38ZM59.3702 38H61.7902V32.632C61.7902 30.432 63.0442 29.266 64.4302 29.266C64.8702 29.266 65.2222 29.31 65.6402 29.464V26.978C65.3542 26.912 65.0242 26.89 64.6942 26.89C63.4402 26.89 62.2082 27.704 61.7902 28.958V27H59.3702V38ZM67.7276 38H70.1476V21.5H67.7276V38ZM74.6095 24.602C75.5115 24.602 76.2155 23.876 76.2155 22.974C76.2155 22.094 75.5115 21.368 74.6095 21.368C73.7295 21.368 72.9815 22.094 72.9815 22.974C72.9815 23.876 73.7295 24.602 74.6095 24.602ZM73.3995 38H75.8195V27H73.3995V38ZM79.0714 38H81.4914V32.588C81.4914 30.212 82.7234 28.98 84.3294 28.98C85.7374 28.98 86.6174 30.014 86.6174 31.774V38H89.0374V31.378C89.0374 28.584 87.3874 26.78 84.8354 26.78C83.4054 26.78 82.1734 27.374 81.4914 28.496V27H79.0714V38ZM97.1059 38.22C99.4159 38.22 101.132 37.252 102.122 35.668L100.274 34.348C99.6799 35.316 98.6899 36.02 97.1279 36.02C95.2799 36.02 93.8499 34.854 93.7399 33.028H102.386C102.408 32.676 102.408 32.478 102.408 32.236C102.408 28.694 100.01 26.78 97.1059 26.78C93.7619 26.78 91.3639 29.266 91.3639 32.5C91.3639 35.866 93.7619 38.22 97.1059 38.22ZM93.8499 31.268C94.2019 29.64 95.5879 28.826 97.0179 28.826C98.4259 28.826 99.7019 29.684 99.9659 31.268H93.8499ZM108.394 38.22C110.66 38.22 112.376 36.922 112.376 34.81C112.376 32.984 111.232 32.06 109.296 31.466L108.174 31.136C107.096 30.806 106.854 30.366 106.854 29.838C106.854 29.156 107.602 28.804 108.328 28.804C109.23 28.804 109.912 29.244 110.418 29.926L112.09 28.65C111.32 27.418 110.044 26.78 108.372 26.78C106.172 26.78 104.434 27.99 104.434 29.926C104.412 31.576 105.38 32.764 107.316 33.292L108.284 33.556C109.604 33.974 109.978 34.326 109.978 34.964C109.978 35.734 109.252 36.13 108.394 36.13C107.272 36.13 106.194 35.58 105.754 34.612L103.972 35.888C104.764 37.472 106.436 38.22 108.394 38.22Z" fill="#9E9B9B"/>
<mask id="path-3-outside-1" maskUnits="userSpaceOnUse" x="5" y="14" width="30" height="30" fill="black">
<rect fill="white" x="5" y="14" width="30" height="30"/>
<path d="M20.0002 15C12.2804 15 6 21.2804 6 29C6 36.7196 12.2804 43 20.0002 43C27.7196 43 34 36.7196 34 29C34 21.2804 27.7196 15 20.0002 15V15ZM20.0002 15.9138C23.3103 15.9138 26.335 17.1516 28.6421 19.1854L25.5173 22.3102H24.74C24.7353 22.3037 24.7344 22.2958 24.7294 22.2894L23.2359 20.4172C22.8058 19.878 22.1633 19.5688 21.4735 19.5688H19.6637C18.9075 19.5688 18.2056 19.9447 17.7861 20.5743L16.631 22.3101H16.1115V21.3963C16.1115 21.144 15.9072 20.9394 15.6546 20.9394H12.9133C12.6608 20.9394 12.4564 21.144 12.4564 21.3963V22.3101H12.2217C11.3432 22.3101 10.6289 23.0247 10.6289 23.9027V34.881C10.6289 35.5071 10.9953 36.0448 11.5223 36.3047L10.1853 37.6421C8.15149 35.335 6.91378 32.3102 6.91378 29C6.91378 21.7841 12.7841 15.9138 20.0002 15.9138V15.9138ZM12.2219 35.56C11.8476 35.56 11.5429 35.2555 11.5429 34.8812V28.2498H15.1891C15.1509 28.495 15.1252 28.7443 15.1252 29C15.1252 30.045 15.4588 31.012 16.0208 31.8066L12.2674 35.56H12.2219ZM17.7912 29C17.7912 27.7822 18.7822 26.7912 20.0002 26.7912C20.3055 26.7912 20.5965 26.8537 20.8612 26.9663L17.9664 29.8611C17.8536 29.5964 17.7912 29.3054 17.7912 29V29ZM22.2088 29C22.2088 30.2178 21.2178 31.2088 20.0002 31.2088C19.4217 31.2088 18.8987 30.9804 18.5045 30.6151L21.6152 27.5044C21.9804 27.8986 22.2088 28.4216 22.2088 29V29ZM17.8557 31.2639C18.4157 31.7946 19.1696 32.1226 20.0002 32.1226C21.722 32.1226 23.1226 30.7218 23.1226 29C23.1226 28.1695 22.7947 27.4156 22.264 26.8556L22.8566 26.263C23.539 26.975 23.961 27.9383 23.961 29C23.961 31.1843 22.1843 32.9612 20.0002 32.9612C18.9385 32.9612 17.9751 32.5389 17.2631 31.8565L17.8557 31.2639ZM21.5404 26.2871C21.0853 26.0277 20.5605 25.8774 20.0002 25.8774C18.2784 25.8774 16.8774 27.2782 16.8774 29C16.8774 29.5603 17.0277 30.0852 17.2871 30.5403L16.6777 31.1497C16.2753 30.5298 16.0389 29.7926 16.0389 29C16.0389 26.8157 17.8161 25.0388 20.0001 25.0388C20.7926 25.0388 21.5299 25.2751 22.1497 25.6776L21.5404 26.2871ZM16.6172 32.5024C17.4948 33.3503 18.6864 33.875 20.0002 33.875C22.688 33.875 24.8748 31.6881 24.8748 29C24.8748 28.7443 24.8491 28.495 24.8109 28.2498H25.169C25.4169 28.7349 25.9161 29.0712 26.4971 29.0712C27.078 29.0712 27.5774 28.7348 27.8251 28.2498H28.9047V34.8812C28.9047 35.2555 28.5999 35.56 28.2256 35.56H13.5596L16.6172 32.5024ZM25.9143 27.5748C25.9143 27.2537 26.1758 26.9921 26.4971 26.9921C26.8184 26.9921 27.0798 27.2535 27.0798 27.5748C27.0798 27.8962 26.8184 28.1574 26.4971 28.1574C26.1758 28.1574 25.9143 27.8962 25.9143 27.5748ZM28.9047 27.336H27.9694C27.854 26.6246 27.2402 26.0784 26.4971 26.0784C25.754 26.0784 25.1401 26.6246 25.0248 27.336H24.5761C24.3398 26.6883 23.9727 26.1039 23.5024 25.6172L25.8956 23.224H28.2255C28.5998 23.224 28.9045 23.5285 28.9045 23.9028V27.336H28.9047ZM22.8067 25.0208C22.0123 24.4588 21.0452 24.1251 20.0002 24.1251C17.8971 24.1251 16.1063 25.4662 15.424 27.336H11.5429V23.9028C11.5429 23.5285 11.8476 23.224 12.2219 23.224H24.6034L22.8067 25.0208ZM15.198 22.3102H13.3704V21.8533H15.198V22.3102ZM17.7293 22.3102L18.5471 21.0807C18.7966 20.7062 19.2142 20.4827 19.6638 20.4827H21.4735C21.8835 20.4827 22.2659 20.6667 22.5216 20.9873L23.5766 22.3102H17.7293ZM20.0002 42.0862C16.4226 42.0862 13.1768 40.6419 10.8122 38.3074L12.6458 36.4738H28.2255C29.104 36.4738 29.8183 35.7592 29.8183 34.8812V23.9029C29.8183 23.0248 29.104 22.3103 28.2255 22.3103H26.8094L29.3074 19.8123C31.6419 22.1769 33.0862 25.4226 33.0862 29.0001C33.0862 36.2159 27.2159 42.0862 20.0002 42.0862V42.0862Z"/>
</mask>
<path d="M20.0002 15C12.2804 15 6 21.2804 6 29C6 36.7196 12.2804 43 20.0002 43C27.7196 43 34 36.7196 34 29C34 21.2804 27.7196 15 20.0002 15V15ZM20.0002 15.9138C23.3103 15.9138 26.335 17.1516 28.6421 19.1854L25.5173 22.3102H24.74C24.7353 22.3037 24.7344 22.2958 24.7294 22.2894L23.2359 20.4172C22.8058 19.878 22.1633 19.5688 21.4735 19.5688H19.6637C18.9075 19.5688 18.2056 19.9447 17.7861 20.5743L16.631 22.3101H16.1115V21.3963C16.1115 21.144 15.9072 20.9394 15.6546 20.9394H12.9133C12.6608 20.9394 12.4564 21.144 12.4564 21.3963V22.3101H12.2217C11.3432 22.3101 10.6289 23.0247 10.6289 23.9027V34.881C10.6289 35.5071 10.9953 36.0448 11.5223 36.3047L10.1853 37.6421C8.15149 35.335 6.91378 32.3102 6.91378 29C6.91378 21.7841 12.7841 15.9138 20.0002 15.9138V15.9138ZM12.2219 35.56C11.8476 35.56 11.5429 35.2555 11.5429 34.8812V28.2498H15.1891C15.1509 28.495 15.1252 28.7443 15.1252 29C15.1252 30.045 15.4588 31.012 16.0208 31.8066L12.2674 35.56H12.2219ZM17.7912 29C17.7912 27.7822 18.7822 26.7912 20.0002 26.7912C20.3055 26.7912 20.5965 26.8537 20.8612 26.9663L17.9664 29.8611C17.8536 29.5964 17.7912 29.3054 17.7912 29V29ZM22.2088 29C22.2088 30.2178 21.2178 31.2088 20.0002 31.2088C19.4217 31.2088 18.8987 30.9804 18.5045 30.6151L21.6152 27.5044C21.9804 27.8986 22.2088 28.4216 22.2088 29V29ZM17.8557 31.2639C18.4157 31.7946 19.1696 32.1226 20.0002 32.1226C21.722 32.1226 23.1226 30.7218 23.1226 29C23.1226 28.1695 22.7947 27.4156 22.264 26.8556L22.8566 26.263C23.539 26.975 23.961 27.9383 23.961 29C23.961 31.1843 22.1843 32.9612 20.0002 32.9612C18.9385 32.9612 17.9751 32.5389 17.2631 31.8565L17.8557 31.2639ZM21.5404 26.2871C21.0853 26.0277 20.5605 25.8774 20.0002 25.8774C18.2784 25.8774 16.8774 27.2782 16.8774 29C16.8774 29.5603 17.0277 30.0852 17.2871 30.5403L16.6777 31.1497C16.2753 30.5298 16.0389 29.7926 16.0389 29C16.0389 26.8157 17.8161 25.0388 20.0001 25.0388C20.7926 25.0388 21.5299 25.2751 22.1497 25.6776L21.5404 26.2871ZM16.6172 32.5024C17.4948 33.3503 18.6864 33.875 20.0002 33.875C22.688 33.875 24.8748 31.6881 24.8748 29C24.8748 28.7443 24.8491 28.495 24.8109 28.2498H25.169C25.4169 28.7349 25.9161 29.0712 26.4971 29.0712C27.078 29.0712 27.5774 28.7348 27.8251 28.2498H28.9047V34.8812C28.9047 35.2555 28.5999 35.56 28.2256 35.56H13.5596L16.6172 32.5024ZM25.9143 27.5748C25.9143 27.2537 26.1758 26.9921 26.4971 26.9921C26.8184 26.9921 27.0798 27.2535 27.0798 27.5748C27.0798 27.8962 26.8184 28.1574 26.4971 28.1574C26.1758 28.1574 25.9143 27.8962 25.9143 27.5748ZM28.9047 27.336H27.9694C27.854 26.6246 27.2402 26.0784 26.4971 26.0784C25.754 26.0784 25.1401 26.6246 25.0248 27.336H24.5761C24.3398 26.6883 23.9727 26.1039 23.5024 25.6172L25.8956 23.224H28.2255C28.5998 23.224 28.9045 23.5285 28.9045 23.9028V27.336H28.9047ZM22.8067 25.0208C22.0123 24.4588 21.0452 24.1251 20.0002 24.1251C17.8971 24.1251 16.1063 25.4662 15.424 27.336H11.5429V23.9028C11.5429 23.5285 11.8476 23.224 12.2219 23.224H24.6034L22.8067 25.0208ZM15.198 22.3102H13.3704V21.8533H15.198V22.3102ZM17.7293 22.3102L18.5471 21.0807C18.7966 20.7062 19.2142 20.4827 19.6638 20.4827H21.4735C21.8835 20.4827 22.2659 20.6667 22.5216 20.9873L23.5766 22.3102H17.7293ZM20.0002 42.0862C16.4226 42.0862 13.1768 40.6419 10.8122 38.3074L12.6458 36.4738H28.2255C29.104 36.4738 29.8183 35.7592 29.8183 34.8812V23.9029C29.8183 23.0248 29.104 22.3103 28.2255 22.3103H26.8094L29.3074 19.8123C31.6419 22.1769 33.0862 25.4226 33.0862 29.0001C33.0862 36.2159 27.2159 42.0862 20.0002 42.0862V42.0862Z" fill="#9E9B9B"/>
<path d="M20.0002 15C12.2804 15 6 21.2804 6 29C6 36.7196 12.2804 43 20.0002 43C27.7196 43 34 36.7196 34 29C34 21.2804 27.7196 15 20.0002 15V15ZM20.0002 15.9138C23.3103 15.9138 26.335 17.1516 28.6421 19.1854L25.5173 22.3102H24.74C24.7353 22.3037 24.7344 22.2958 24.7294 22.2894L23.2359 20.4172C22.8058 19.878 22.1633 19.5688 21.4735 19.5688H19.6637C18.9075 19.5688 18.2056 19.9447 17.7861 20.5743L16.631 22.3101H16.1115V21.3963C16.1115 21.144 15.9072 20.9394 15.6546 20.9394H12.9133C12.6608 20.9394 12.4564 21.144 12.4564 21.3963V22.3101H12.2217C11.3432 22.3101 10.6289 23.0247 10.6289 23.9027V34.881C10.6289 35.5071 10.9953 36.0448 11.5223 36.3047L10.1853 37.6421C8.15149 35.335 6.91378 32.3102 6.91378 29C6.91378 21.7841 12.7841 15.9138 20.0002 15.9138V15.9138ZM12.2219 35.56C11.8476 35.56 11.5429 35.2555 11.5429 34.8812V28.2498H15.1891C15.1509 28.495 15.1252 28.7443 15.1252 29C15.1252 30.045 15.4588 31.012 16.0208 31.8066L12.2674 35.56H12.2219ZM17.7912 29C17.7912 27.7822 18.7822 26.7912 20.0002 26.7912C20.3055 26.7912 20.5965 26.8537 20.8612 26.9663L17.9664 29.8611C17.8536 29.5964 17.7912 29.3054 17.7912 29V29ZM22.2088 29C22.2088 30.2178 21.2178 31.2088 20.0002 31.2088C19.4217 31.2088 18.8987 30.9804 18.5045 30.6151L21.6152 27.5044C21.9804 27.8986 22.2088 28.4216 22.2088 29V29ZM17.8557 31.2639C18.4157 31.7946 19.1696 32.1226 20.0002 32.1226C21.722 32.1226 23.1226 30.7218 23.1226 29C23.1226 28.1695 22.7947 27.4156 22.264 26.8556L22.8566 26.263C23.539 26.975 23.961 27.9383 23.961 29C23.961 31.1843 22.1843 32.9612 20.0002 32.9612C18.9385 32.9612 17.9751 32.5389 17.2631 31.8565L17.8557 31.2639ZM21.5404 26.2871C21.0853 26.0277 20.5605 25.8774 20.0002 25.8774C18.2784 25.8774 16.8774 27.2782 16.8774 29C16.8774 29.5603 17.0277 30.0852 17.2871 30.5403L16.6777 31.1497C16.2753 30.5298 16.0389 29.7926 16.0389 29C16.0389 26.8157 17.8161 25.0388 20.0001 25.0388C20.7926 25.0388 21.5299 25.2751 22.1497 25.6776L21.5404 26.2871ZM16.6172 32.5024C17.4948 33.3503 18.6864 33.875 20.0002 33.875C22.688 33.875 24.8748 31.6881 24.8748 29C24.8748 28.7443 24.8491 28.495 24.8109 28.2498H25.169C25.4169 28.7349 25.9161 29.0712 26.4971 29.0712C27.078 29.0712 27.5774 28.7348 27.8251 28.2498H28.9047V34.8812C28.9047 35.2555 28.5999 35.56 28.2256 35.56H13.5596L16.6172 32.5024ZM25.9143 27.5748C25.9143 27.2537 26.1758 26.9921 26.4971 26.9921C26.8184 26.9921 27.0798 27.2535 27.0798 27.5748C27.0798 27.8962 26.8184 28.1574 26.4971 28.1574C26.1758 28.1574 25.9143 27.8962 25.9143 27.5748ZM28.9047 27.336H27.9694C27.854 26.6246 27.2402 26.0784 26.4971 26.0784C25.754 26.0784 25.1401 26.6246 25.0248 27.336H24.5761C24.3398 26.6883 23.9727 26.1039 23.5024 25.6172L25.8956 23.224H28.2255C28.5998 23.224 28.9045 23.5285 28.9045 23.9028V27.336H28.9047ZM22.8067 25.0208C22.0123 24.4588 21.0452 24.1251 20.0002 24.1251C17.8971 24.1251 16.1063 25.4662 15.424 27.336H11.5429V23.9028C11.5429 23.5285 11.8476 23.224 12.2219 23.224H24.6034L22.8067 25.0208ZM15.198 22.3102H13.3704V21.8533H15.198V22.3102ZM17.7293 22.3102L18.5471 21.0807C18.7966 20.7062 19.2142 20.4827 19.6638 20.4827H21.4735C21.8835 20.4827 22.2659 20.6667 22.5216 20.9873L23.5766 22.3102H17.7293ZM20.0002 42.0862C16.4226 42.0862 13.1768 40.6419 10.8122 38.3074L12.6458 36.4738H28.2255C29.104 36.4738 29.8183 35.7592 29.8183 34.8812V23.9029C29.8183 23.0248 29.104 22.3103 28.2255 22.3103H26.8094L29.3074 19.8123C31.6419 22.1769 33.0862 25.4226 33.0862 29.0001C33.0862 36.2159 27.2159 42.0862 20.0002 42.0862V42.0862Z" stroke="#9E9B9B" stroke-width="0.2" mask="url(#path-3-outside-1)"/>
</svg>
