<svg width="13" height="15" viewBox="0 0 13 15" fill="none" xmlns="http://www.w3.org/2000/svg">
<path d="M12.0714 0H1.85714C0.831362 0 0 0.839356 0 1.875V13.125C0 14.1606 0.831362 15 1.85714 15H12.0714C12.5842 15 13 14.5802 13 14.0625V0.9375C13 0.419824 12.5842 0 12.0714 0ZM12.0714 14.0625H1.85714C1.34527 14.0625 0.928571 13.6418 0.928571 13.125V1.875C0.928571 1.3582 1.34527 0.9375 1.85714 0.9375H12.0714V14.0625ZM3.25 12.1875H9.75C10.0054 12.1875 10.2143 11.9766 10.2143 11.7188C10.2143 11.4609 10.0054 11.25 9.75 11.25H3.25C2.99464 11.25 2.78571 11.4609 2.78571 11.7188C2.78571 11.9766 2.99464 12.1875 3.25 12.1875ZM6.5 9.375C8.55127 9.375 10.2143 7.696 10.2143 5.625C10.2143 3.554 8.55127 1.875 6.5 1.875C4.44873 1.875 2.78571 3.554 2.78571 5.625C2.78571 7.696 4.44873 9.375 6.5 9.375ZM9.23871 5.15625H8.1044C8.06116 4.36436 7.91462 3.65186 7.69205 3.09346C8.49614 3.48135 9.08549 4.2416 9.23871 5.15625ZM8.1044 6.09375H9.23871C9.0852 7.0084 8.49614 7.76865 7.69205 8.15654C7.91491 7.59814 8.06116 6.88564 8.1044 6.09375V6.09375ZM6.5 2.85088C6.72315 3.06914 7.1027 3.85928 7.17989 5.15625H5.81982C5.8973 3.85957 6.27685 3.06914 6.5 2.85088ZM7.17989 6.09375C7.1027 7.39043 6.72315 8.18086 6.5 8.39912C6.27685 8.18086 5.8973 7.39072 5.82011 6.09375H7.17989ZM5.30795 3.09346C5.08509 3.65186 4.93884 4.36436 4.8956 5.15625H3.76129C3.91451 4.2416 4.50386 3.48135 5.30795 3.09346ZM4.8956 6.09375C4.93884 6.88564 5.08538 7.59814 5.30795 8.15654C4.50386 7.76865 3.91451 7.0084 3.76129 6.09375H4.8956V6.09375Z" fill="black"/>
</svg>
