<svg width="31" height="31" viewBox="0 0 31 31" fill="none" xmlns="http://www.w3.org/2000/svg">
<rect width="31" height="31" fill="#00E1A0"/>
<path d="M26.3255 8.93433L19.6685 15.5485L26.3255 22.1627C26.4458 21.9111 26.5188 21.6331 26.5188 21.3361V9.76084C26.5188 9.46387 26.4458 9.18585 26.3255 8.93433Z" fill="white"/>
<path d="M24.5894 7.83167H6.49766C6.20069 7.83167 5.92267 7.90468 5.67114 8.02502L14.1795 16.4905C14.9318 17.2428 16.1552 17.2428 16.9075 16.4905L25.4159 8.02502C25.1644 7.90468 24.8864 7.83167 24.5894 7.83167Z" fill="white"/>
<path d="M4.76171 8.93433C4.64137 9.18585 4.56836 9.46387 4.56836 9.76084V21.3361C4.56836 21.6331 4.64137 21.9112 4.76171 22.1627L11.4187 15.5485L4.76171 8.93433Z" fill="white"/>
<path d="M18.7589 16.4579L17.8169 17.3999C16.5634 18.6534 14.5237 18.6534 13.2701 17.3999L12.3282 16.4579L5.67114 23.072C5.92267 23.1924 6.20069 23.2654 6.49766 23.2654H24.5894C24.8864 23.2654 25.1644 23.1924 25.4159 23.072L18.7589 16.4579Z" fill="white"/>
</svg>
