<svg width="31" height="31" viewBox="0 0 31 31" fill="none" xmlns="http://www.w3.org/2000/svg">
<path d="M26.3255 8.93437L19.6685 15.5485L26.3255 22.1627C26.4458 21.9112 26.5188 21.6331 26.5188 21.3362V9.76089C26.5188 9.46392 26.4458 9.1859 26.3255 8.93437Z" fill="white"/>
<path d="M24.5894 7.83176H6.49766C6.20069 7.83176 5.92267 7.90477 5.67114 8.02511L14.1795 16.4906C14.9318 17.2429 16.1552 17.2429 16.9075 16.4906L25.4159 8.02511C25.1644 7.90477 24.8864 7.83176 24.5894 7.83176Z" fill="white"/>
<path d="M4.76171 8.93437C4.64137 9.1859 4.56836 9.46392 4.56836 9.76089V21.3362C4.56836 21.6332 4.64137 21.9112 4.76171 22.1627L11.4187 15.5485L4.76171 8.93437Z" fill="white"/>
<path d="M18.7589 16.4579L17.8169 17.3999C16.5634 18.6534 14.5237 18.6534 13.2701 17.3999L12.3282 16.4579L5.67114 23.0721C5.92267 23.1924 6.20069 23.2654 6.49766 23.2654H24.5894C24.8864 23.2654 25.1644 23.1924 25.4159 23.0721L18.7589 16.4579Z" fill="white"/>
</svg>
