<svg width="120" height="60" viewBox="0 0 120 60" fill="none" xmlns="http://www.w3.org/2000/svg">
<rect width="120" height="60" fill="white"/>
<path d="M110.4 28.1558C110.4 28.4464 110.4 28.8339 110.4 29.2214V29.4152C110.4 32.9025 109.142 36.2931 106.917 38.9086C104.304 41.9116 100.724 43.7522 96.7575 44.0428C96.3705 44.1397 95.9835 44.1397 95.5964 44.1397C91.9197 44.1397 88.3398 42.7835 85.5339 40.1679C82.8247 37.6493 81.0832 34.1619 80.7929 30.4807C80.2124 22.2466 86.3079 15.175 94.4354 14.4969C94.8224 14.4969 95.2094 14.4 95.5964 14.4C99.3699 14.4 102.95 15.8531 105.659 18.3718C108.368 20.8904 110.11 24.3778 110.4 28.1558Z" fill="#FF0023"/>
<path d="M92.4036 24.1841C93.2744 24.4747 93.5646 23.0216 92.6938 22.8278C90.9522 22.3435 89.1139 22.731 87.469 23.4091C86.5983 23.6997 87.082 25.0559 87.9528 24.6684C89.4042 24.1841 90.8555 23.7966 92.4036 24.1841ZM103.24 23.1185C104.208 23.4091 104.401 21.956 103.53 21.7623C101.789 21.2779 100.047 21.6654 98.4024 22.3435C97.5316 22.6341 98.0154 23.9903 98.8862 23.6028C100.241 23.1185 101.789 22.731 103.24 23.1185ZM104.401 19.2436C105.466 23.0216 106.433 26.8965 106.046 30.8682C103.724 29.6089 101.112 29.4151 98.6926 29.9964C98.0154 27.0902 97.2413 24.1841 96.4673 21.2779C96.2738 20.2123 94.7257 20.7935 95.016 21.7623C95.6932 24.7653 96.4673 27.6714 97.1446 30.5776C96.7575 30.7713 96.2738 30.9651 95.79 31.2557C94.8224 30.8682 93.8549 30.5776 92.8873 30.4807C92.9841 30.0932 93.2744 29.8995 93.6614 29.6089C94.0484 29.4151 94.0484 28.8339 93.8549 28.5433C93.5646 28.1558 93.0808 28.0589 92.6938 28.2527C91.9198 28.737 91.3393 29.6089 91.1457 30.4807C89.3074 30.6745 87.3723 31.3526 85.7275 32.4182C84.7599 28.6402 84.9534 24.4747 85.5339 20.6967C88.3398 21.2779 91.5328 20.7935 94.4354 20.2123C97.8219 19.5342 101.015 18.8561 104.208 19.2436C104.208 19.2436 104.304 19.2436 104.401 19.2436Z" fill="white"/>
<path d="M97.1447 32.2244C99.4668 30.965 102.756 30.8682 104.595 31.9338C102.176 32.7087 99.6603 32.9025 97.1447 32.2244Z" fill="white"/>
<path d="M87.469 33.29C89.6944 32.0306 92.3068 31.5463 94.7256 32.515C92.4035 33.4837 89.9846 33.7743 87.469 33.29Z" fill="white"/>
<path d="M98.4025 34.1619C98.596 35.0337 99.9505 41.1366 100.047 42.0085C100.338 41.9116 100.628 41.8147 100.918 41.621C100.725 41.0398 99.0797 35.1306 98.8862 34.2587C98.7895 34.2587 98.7895 34.2587 98.6927 34.1619C98.596 34.1619 98.4992 34.1619 98.4025 34.1619Z" fill="white"/>
<path d="M97.1447 33.9682L98.1122 42.4929C98.4992 42.4929 98.8863 42.396 99.1765 42.2992C99.0798 41.5242 97.7252 34.9369 97.5317 34.0651C97.4349 33.9682 97.2414 33.9682 97.1447 33.9682Z" fill="white"/>
<path d="M95.9835 33.7744C95.9835 34.5494 95.8867 41.9116 95.8867 42.7835C96.177 42.7835 96.4672 42.7835 96.6608 42.6866C96.8543 42.6866 97.0478 42.6866 97.2413 42.6866L96.3705 33.8713L95.9835 33.7744Z" fill="white"/>
<path d="M94.0483 42.6865C94.3386 42.6865 94.6289 42.6865 95.0159 42.7834C94.9191 42.1053 95.1126 34.3556 95.1126 34.0649C95.0159 34.0649 95.0159 34.0649 94.9191 34.1618C94.8224 34.1618 94.7256 34.1618 94.7256 34.1618C94.6289 34.5493 94.0483 42.1053 94.0483 42.6865Z" fill="white"/>
<path d="M92.21 42.2991C92.5002 42.396 92.7905 42.4929 93.0808 42.4929C93.0808 42.0085 93.758 34.84 93.8548 34.5494C93.6613 34.5494 93.4678 34.6462 93.2743 34.6462C93.1775 35.0337 92.21 41.9116 92.21 42.2991Z" fill="white"/>
<path d="M90.5652 41.7179C90.8555 41.9116 91.049 42.0085 91.2425 42.0085C91.3392 41.5241 92.3068 35.2275 92.3068 34.84C92.1133 34.9368 91.9198 34.9368 91.7262 34.9368C91.6295 35.2275 90.5652 41.3304 90.5652 41.7179Z" fill="white"/>
<path d="M88.9204 40.9429C89.1139 41.1366 89.4042 41.2335 89.5977 41.3304C89.6944 40.846 90.7588 35.3243 90.7588 35.0337C90.5652 35.0337 90.275 35.1306 89.9847 35.1306C89.888 35.8087 88.9204 40.846 88.9204 40.9429Z" fill="white"/>
<path d="M87.2755 39.8773C87.5658 40.071 87.856 40.2648 88.0496 40.4585C88.1463 40.3616 89.0171 35.7118 89.1139 35.0337C88.9203 35.0337 88.7268 35.0337 88.6301 35.0337C88.5333 35.3243 87.3723 39.6835 87.2755 39.8773Z" fill="white"/>
<path d="M85.8242 38.5211C86.0177 38.8117 86.308 39.0055 86.5015 39.1992C86.5983 39.1023 87.5658 35.4212 87.6626 34.9368C87.4691 34.84 87.2755 34.84 87.082 34.84C87.082 34.84 85.8242 38.2305 85.8242 38.5211Z" fill="white"/>
<path d="M83.7922 22.8278C83.2117 23.8934 82.7279 25.0559 82.5344 26.3152C82.8247 25.6371 83.502 24.5715 83.5987 24.4746C83.6955 24.184 83.6955 23.6997 83.7922 23.2153C83.7922 23.1184 83.7922 22.9247 83.7922 22.8278Z" fill="white"/>
<path d="M82.1476 28.5433C82.1476 28.9308 82.1476 29.6089 82.1476 30.0933C82.4378 29.4152 83.4054 27.6715 83.5989 27.284C83.5989 26.7997 83.5989 26.3153 83.5989 25.8309C83.4054 26.2184 82.2443 28.4465 82.1476 28.5433Z" fill="white"/>
<path d="M84.2761 36.5836C84.5664 36.9711 84.8567 37.3586 85.0502 37.6492C85.1469 37.6492 86.1145 34.8399 86.2112 34.5493C85.921 34.5493 85.5339 34.2587 85.2437 34.0649C85.2437 34.0649 84.4696 36.0992 84.2761 36.5836Z" fill="white"/>
<path d="M83.2118 34.4524C83.3085 34.8399 83.5021 35.2274 83.6956 35.518C83.7923 35.3243 84.4696 33.5806 84.4696 33.3868C84.3729 32.9993 84.2761 32.6119 84.1793 32.2244C83.9858 32.7087 83.2118 34.3555 83.2118 34.4524Z" fill="white"/>
<path d="M82.4377 31.8369C82.5345 32.3213 82.6313 32.8057 82.728 33.1931C83.115 32.4182 83.5021 31.5463 83.9858 30.8682C83.8891 30.3839 83.7923 29.7058 83.6956 29.0276C83.3085 29.8026 82.5345 31.6432 82.4377 31.8369Z" fill="white"/>
<path d="M107.691 29.0276C108.271 29.7057 108.658 30.1901 108.949 30.7713C109.045 30.3838 109.045 29.7057 109.045 29.4151C109.045 29.4151 107.981 28.1558 107.594 27.7683C107.594 28.1558 107.691 28.6402 107.691 29.0276Z" fill="white"/>
<path d="M107.497 26.1215C107.594 26.2183 108.949 27.8651 109.142 28.1558C109.142 27.7683 108.949 27.187 108.949 26.8964C108.755 26.7027 107.788 25.3465 107.304 24.8621C107.401 25.1527 107.401 25.3465 107.497 25.734C107.497 25.8308 107.497 26.0246 107.497 26.1215Z" fill="white"/>
<path d="M107.304 31.7401C107.304 31.837 108.272 33.0963 108.465 33.3869C108.562 32.9995 108.659 32.5151 108.755 32.0307C108.659 31.837 107.884 30.7714 107.594 30.287C107.497 30.7714 107.497 31.062 107.304 31.7401Z" fill="white"/>
<path d="M106.24 32.8056C106.336 32.9994 107.401 35.1306 107.497 35.518C107.691 35.2274 107.884 34.8399 107.981 34.5493C107.884 34.3556 107.014 32.8056 106.82 32.4182C106.627 32.6119 106.336 32.8056 106.24 32.8056Z" fill="white"/>
<path d="M107.014 23.0216L107.11 23.1185C107.497 23.6997 108.078 24.3778 108.562 24.9591C108.078 23.7966 107.304 22.4404 106.627 21.4717C106.627 21.5686 106.627 21.6654 106.627 21.7623C106.82 22.1498 106.917 22.6341 107.014 23.0216Z" fill="white"/>
<path d="M104.691 33.4837C104.788 33.6775 106.046 36.8742 106.239 37.4555C106.53 37.1649 106.723 36.8742 107.014 36.4868C106.917 36.3899 105.562 33.5806 105.369 33.1931C105.175 33.29 104.885 33.3869 104.691 33.4837Z" fill="white"/>
<path d="M103.047 33.9682C103.143 34.2588 104.788 38.7149 104.885 39.0055C105.078 38.8117 105.369 38.618 105.562 38.3274C105.562 38.2305 104.014 34.2588 103.821 33.7744C103.627 33.8713 103.337 33.8713 103.047 33.9682Z" fill="white"/>
<path d="M101.402 34.2587C101.692 34.9368 103.143 39.6836 103.337 40.3617C103.627 40.1679 103.917 39.8773 104.111 39.6836C104.014 39.3929 102.273 34.3556 102.176 34.1619C101.886 34.1619 101.692 34.1619 101.402 34.2587Z" fill="white"/>
<path d="M99.7568 34.2587C99.7568 34.2587 101.692 40.846 101.789 41.2335C101.982 41.1366 102.272 41.0398 102.466 40.846C102.369 40.3617 100.531 34.2587 100.531 34.2587C100.241 34.2587 99.9503 34.2587 99.7568 34.2587Z" fill="white"/>
<path d="M88.3398 17.9842C90.2749 18.2748 91.7263 18.0811 93.1776 17.8873C93.3711 17.8873 93.6614 17.7905 93.8549 17.7905C94.2419 17.7905 94.6289 17.6936 95.0159 17.5967C96.0803 17.4999 96.9511 17.403 97.8218 17.403C99.4667 17.3061 100.725 17.4999 101.402 17.5967C100.628 17.3061 98.6926 16.7249 95.6932 17.1124C95.403 17.1124 95.0159 17.2092 94.6289 17.2092C93.2744 17.403 91.5328 17.5967 90.2749 17.5967C90.0814 17.5967 89.4042 17.4999 89.1139 17.4999C88.8236 17.5967 88.5334 17.7905 88.3398 17.9842Z" fill="white"/>
<path d="M95.5965 15.853C95.3063 15.853 94.9193 15.853 94.5322 15.853C93.2744 15.9499 91.9199 16.2405 90.7588 16.7249C91.9199 16.7249 92.8874 16.5311 94.0485 16.4343C95.403 16.2405 96.7576 16.0468 98.3057 16.0468C97.4349 15.9499 96.5641 15.853 95.5965 15.853Z" fill="white"/>
<path d="M86.5015 19.3404C89.2106 19.8248 92.0165 19.2436 94.6289 18.6623H94.8224C95.3062 18.5654 95.79 18.4686 96.3705 18.3717C95.4997 18.4686 94.7257 18.5654 93.9516 18.6623C92.597 18.8561 91.049 19.0498 89.4041 18.9529C88.6301 18.9529 87.9528 18.8561 87.2755 18.7592C86.9852 18.9529 86.7917 19.1467 86.5015 19.3404Z" fill="white"/>
<path d="M30.8673 29.2213C32.2218 26.3151 34.1569 26.9932 34.0602 27.5745C34.1569 28.4463 30.964 29.9963 30.8673 29.2213ZM76.7292 24.2808C75.2779 24.4746 73.7298 24.5714 72.2785 24.6683C71.6979 24.7652 71.1174 24.7652 70.5369 24.7652C68.892 24.9589 67.344 25.2496 65.7959 25.5402C64.9251 25.7339 64.0543 25.9277 63.0867 26.0245C62.6997 26.1214 62.2159 26.1214 61.9257 25.7339C61.7322 25.4433 61.4419 25.4433 61.2484 25.7339C60.9581 26.1214 61.0549 26.5089 61.1516 26.8964C61.2484 27.3807 61.5387 27.7682 62.0224 27.962C62.1192 28.0588 62.3127 28.0588 62.4094 28.1557C62.5062 28.2526 62.5062 28.3494 62.5062 28.4463C62.1192 29.5119 61.8289 30.5775 61.5387 31.5462C61.5387 31.6431 61.4419 31.74 61.4419 31.8368V31.74C61.4419 31.3525 61.5387 30.8681 60.4743 29.9963C60.0873 29.7057 58.249 28.0588 58.1522 27.8651C57.9587 27.5745 58.249 27.3807 58.4425 27.3807C58.5392 27.3807 59.1198 27.7682 59.1198 27.7682C60.5711 28.4463 60.2808 27.6713 60.6679 27.5745C60.9581 27.5745 60.8614 26.7995 60.5711 26.412C60.2808 26.0245 59.8938 25.637 59.41 25.5402C58.5392 25.2496 57.3782 24.9589 56.7009 25.2496C56.8944 25.1527 56.8944 25.1527 56.9912 25.0558C57.0879 24.8621 56.8944 24.6683 56.4106 24.7652C55.5398 24.8621 53.508 24.9589 52.1534 25.3464C51.2826 25.5402 50.0248 25.7339 49.2507 26.1214C49.0572 26.2183 48.9605 26.3151 48.8637 26.412C48.9605 26.3151 48.9605 26.2183 48.9605 26.2183C49.0572 26.0245 48.767 25.4433 48.0897 25.4433C47.8962 25.4433 47.0254 25.7339 46.7351 25.4433C46.4448 25.1527 45.9611 25.4433 45.574 25.7339C45.4773 25.8308 44.8 26.7995 44.6065 27.0901C44.026 27.7682 43.5422 28.4463 43.0584 29.1244C42.9617 29.3182 42.7681 29.415 42.6714 29.5119C42.5746 29.6088 42.4779 29.6088 42.3811 29.5119C42.2844 29.3182 42.2844 29.0276 42.1876 28.7369C41.9941 28.4463 41.8973 28.0588 41.7038 27.7682C41.6071 27.5745 41.4136 27.3807 41.3168 27.2839C40.6395 27.0901 39.9622 26.9932 39.285 27.187C38.9947 27.2839 38.8012 27.4776 38.6077 27.6713C38.4142 27.8651 38.1239 28.1557 38.0271 28.4463C37.6401 29.2213 37.2531 29.8994 36.9628 30.6744C36.8661 30.6744 36.7693 30.965 36.6726 31.2556L36.4791 31.3525C33.0926 33.4837 31.5445 31.5462 31.5445 31.5462C32.3186 31.1587 35.8018 30.0931 36.8661 28.0588C37.3499 27.4776 37.0596 27.0901 36.5758 26.412C36.3823 26.2183 36.1888 25.9277 35.9953 25.7339C35.0277 24.9589 33.8667 24.8621 32.6089 25.0558C31.6413 25.2496 30.964 25.0558 30.0932 25.637C29.3192 26.2183 28.0614 27.2839 27.4808 28.0588C26.7068 29.0276 26.0295 30.2869 25.5457 31.1587C25.3522 31.2556 25.1587 31.3525 25.1587 31.3525C23.3204 32.2243 18.5794 34.1618 17.128 34.8399C14.7091 36.0023 15.967 32.9993 16.1605 32.5149C16.1605 32.4181 16.2572 32.2243 16.354 32.1275C17.4183 31.4493 22.6431 29.5119 25.2555 28.1557C26.0295 27.8651 26.3198 27.0901 26.4165 26.9932V26.8964C26.1263 26.7026 25.836 26.7995 25.5457 26.8964C25.3522 26.8964 25.1587 26.7995 24.9652 26.7995C22.4496 27.4776 20.1274 28.3494 17.8053 29.0276C16.9345 29.3182 17.8053 27.5745 18.0956 27.0901C19.0631 26.7026 21.869 25.637 22.5463 25.3464C23.9009 24.7652 25.1587 24.3777 26.4165 23.6996C26.9003 23.409 27.3841 23.0215 27.7711 22.634C27.9646 22.4403 28.0614 22.2465 27.9646 21.9559C27.7711 21.6653 27.4808 21.5684 27.1906 21.5684C26.8035 21.6653 26.4165 21.6653 26.1263 21.7622C25.1587 21.9559 24.1912 22.2465 23.2236 22.5371C21.7723 23.0215 20.4177 23.6027 19.0631 24.0871C18.6761 24.184 18.1923 23.8933 17.9021 23.6996C17.3215 23.409 16.6442 23.409 16.0637 23.5059C15.967 23.5059 15.6767 23.6027 15.6767 23.6996C15.5799 23.7965 15.6767 23.8933 15.7735 23.9902C15.8702 24.3777 16.354 24.9589 15.967 25.1527C15.6767 25.2496 15.2897 25.3464 14.9027 25.4433C14.3221 25.5402 13.8383 25.637 13.1611 25.4433C12.9676 25.4433 12.6773 25.3464 12.387 25.3464C12.1935 25.4433 12.0968 25.4433 12 25.5402C12.1935 25.8308 12.4838 26.3151 12.6773 26.6058C12.774 26.7995 12.9676 26.9932 13.1611 27.0901C13.5481 27.2839 14.0319 27.4776 14.5156 27.3807C14.7091 27.3807 14.9027 27.4776 15.2897 27.4776C14.8059 28.3494 14.4189 29.7057 13.5481 30.2869C12.9676 30.6744 12.774 31.2556 12.8708 31.9337C12.9676 32.2243 13.1611 32.3212 13.0643 32.6118C12.774 33.3868 12.5805 33.8711 12.387 34.6461C12.2903 35.1305 12.387 35.6148 12.4838 36.0992C12.6773 36.7773 13.0643 37.3585 13.6448 37.5523C14.6124 37.9398 15.5799 38.1335 16.5475 37.8429C17.2248 37.6491 17.9021 37.3585 18.5794 36.971C21.1917 35.518 23.6106 34.1618 24.8684 33.3868C24.9652 34.2586 25.449 35.0336 26.0295 35.518C26.5133 35.9055 27.2873 35.7117 27.3841 35.2273C27.5776 34.4524 28.0614 33.8711 28.3516 33.0962C28.5451 32.7087 28.7386 32.2243 29.2224 31.8368C29.3192 32.1275 29.4159 32.4181 29.6094 32.6118C29.803 33.193 30.2867 33.5805 30.7705 33.8711C33.0926 35.2273 35.1245 33.6774 36.092 32.9024C35.8018 33.5805 35.705 34.2586 35.9953 34.6461C36.4791 35.3242 36.6726 35.3242 37.2531 35.1305C37.5434 35.1305 37.6401 34.9367 37.8336 34.6461C38.3174 33.7743 38.8979 32.9024 39.285 31.9337C39.4785 31.5462 39.672 31.1587 40.059 30.6744C40.1558 30.5775 40.2525 30.6744 40.3493 30.7712C40.5428 31.2556 41.1233 32.3212 41.3168 32.8056C41.7038 33.6774 42.0909 34.1618 42.8649 34.6461C43.1552 34.8399 43.4454 34.8399 43.7357 34.5492C44.1227 34.1618 45.3805 31.6431 46.6384 29.8994C47.3156 29.1244 47.9929 27.962 48.4767 27.0901C48.3799 27.3807 48.2832 27.7682 48.2832 27.8651C48.1864 28.2526 47.9929 28.8338 47.7027 29.8025C47.3156 30.8681 47.2189 32.2243 47.9929 33.193C48.767 34.0649 49.7345 34.743 50.7988 34.1618C51.8631 33.8711 53.4112 32.8056 53.508 30.965C53.6047 30.6744 52.9274 30.6744 52.8307 30.8681C52.3469 31.4493 51.6696 31.8368 50.8956 31.9337C50.6053 32.0306 50.3151 31.9337 50.0248 31.9337C49.928 31.8368 49.8313 31.6431 49.8313 31.5462C49.6378 30.6744 50.7021 30.5775 50.8956 30.4806C51.6696 30.19 52.0566 30.0931 52.6372 29.5119C52.7339 29.3182 52.8307 29.1244 52.8307 28.8338C52.8307 28.6401 52.7339 28.4463 52.5404 28.5432C52.2502 28.5432 52.0566 28.6401 51.7664 28.6401C51.4761 28.7369 50.9923 28.9307 50.7988 28.7369C50.6053 28.5432 50.7021 28.2526 50.9923 27.962C51.4761 27.5745 52.3469 27.7682 52.9274 27.4776C53.895 27.0901 54.7658 26.7995 55.6366 26.1214C55.7333 26.1214 56.0236 25.8308 56.3139 25.637C56.2171 25.7339 56.1204 25.8308 56.1204 25.8308C55.9269 26.1214 55.5398 26.8964 55.8301 27.7682C56.2171 28.9307 59.9906 30.965 58.636 31.8368C58.5392 31.9337 57.1847 31.8368 56.5074 31.2556C56.1204 30.965 55.8301 30.5775 55.8301 30.0931C55.7333 29.8025 55.6366 29.5119 55.5398 29.3182C55.5398 29.2213 55.4431 29.1244 55.3463 29.1244C55.0561 29.2213 54.8625 29.415 54.669 29.6088C54.1853 29.9963 53.9917 30.4806 54.1853 31.1587C54.282 31.5462 54.3788 31.9337 54.4755 32.3212C54.669 32.9024 54.8625 33.4837 55.4431 33.7743C56.2171 34.2586 57.2814 34.6461 58.5392 34.3555C59.41 34.0649 60.1841 33.8711 60.8614 33.193C60.9581 33.0962 61.1516 32.8056 61.3451 32.4181C61.2484 32.6118 61.2484 32.7087 61.2484 32.7087C61.1516 33.2899 60.6679 34.8399 61.0549 34.8399C62.1192 34.5492 62.99 32.5149 63.1835 32.1275C63.4738 31.74 64.2478 29.5119 64.4413 28.9307C64.7316 28.0588 68.6985 27.6713 69.6661 27.187C69.7628 27.0901 69.9564 27.0901 70.1499 26.9932C70.7304 26.8964 75.4714 25.4433 76.3422 25.0558C76.7292 24.9589 76.9227 24.7652 77.0195 24.3777C76.9227 24.3777 76.826 24.2808 76.7292 24.2808Z" fill="#FF0023"/>
</svg>
