<svg width="13" height="15" viewBox="0 0 13 15" fill="none" xmlns="http://www.w3.org/2000/svg">
<path d="M9.1 8.4375C8.26719 8.4375 7.86674 8.90625 6.5 8.90625C5.13326 8.90625 4.73571 8.4375 3.9 8.4375C1.74687 8.4375 0 10.2012 0 12.375V13.5938C0 14.3701 0.623884 15 1.39286 15H11.6071C12.3761 15 13 14.3701 13 13.5938V12.375C13 10.2012 11.2531 8.4375 9.1 8.4375ZM12.0714 13.5938C12.0714 13.8516 11.8625 14.0625 11.6071 14.0625H1.39286C1.1375 14.0625 0.928571 13.8516 0.928571 13.5938V12.375C0.928571 10.7197 2.26049 9.375 3.9 9.375C4.46875 9.375 5.0346 9.84375 6.5 9.84375C7.9625 9.84375 8.53125 9.375 9.1 9.375C10.7395 9.375 12.0714 10.7197 12.0714 12.375V13.5938ZM6.5 7.5C8.55156 7.5 10.2143 5.82129 10.2143 3.75C10.2143 1.67871 8.55156 0 6.5 0C4.44844 0 2.78571 1.67871 2.78571 3.75C2.78571 5.82129 4.44844 7.5 6.5 7.5ZM6.5 0.9375C8.03504 0.9375 9.28571 2.2002 9.28571 3.75C9.28571 5.2998 8.03504 6.5625 6.5 6.5625C4.96495 6.5625 3.71429 5.2998 3.71429 3.75C3.71429 2.2002 4.96495 0.9375 6.5 0.9375Z" fill="black"/>
</svg>
