<?xml version="1.0" encoding="UTF-8"?>
<!DOCTYPE svg PUBLIC "-//W3C//DTD SVG 1.0//EN" "http://www.w3.org/TR/2001/REC-SVG-20010904/DTD/svg10.dtd">
<!-- Creator: CorelDRAW X7 -->
<svg xmlns="http://www.w3.org/2000/svg" xml:space="preserve" width="1299px" height="496px" version="1.0" style="shape-rendering:geometricPrecision; text-rendering:geometricPrecision; image-rendering:optimizeQuality; fill-rule:evenodd; clip-rule:evenodd"
viewBox="0 0 1299 496"
 xmlns:xlink="http://www.w3.org/1999/xlink">
 <defs>
  <style type="text/css">
   <![CDATA[
    .fil1 {fill:black;fill-rule:nonzero}
    .fil0 {fill:white;fill-rule:nonzero}
   ]]>
  </style>
 </defs>
 <g id="Layer_x0020_1">
  <metadata id="CorelCorpID_0Corel-Layer"/>
  <path class="fil0" d="M381 51c0,23 -19,42 -43,42 -23,0 -42,-19 -42,-42 0,-24 19,-43 42,-43 24,0 43,19 43,43z"/>
  <path class="fil0" d="M977 272l-114 0 0 -147 -68 0 0 181c0,100 81,182 182,182l0 -68c-51,0 -95,-34 -109,-80l109 0 0 -68z"/>
  <path class="fil0" d="M481 272c14,-46 58,-80 109,-80 50,0 94,34 108,80l-217 0zm-290 148c-51,0 -95,-34 -109,-80l217 0c-14,46 -58,80 -108,80zm399 -295c-89,0 -163,63 -179,147l-39 0 0 -147 -68 0 0 147 -227 0 -43 0 -25 0 0 34c0,100 81,182 182,182 88,0 162,-64 178,-148l3 0 39 0c16,84 90,148 179,148 63,0 119,-33 151,-82l-56 -37c-21,31 -56,51 -95,51 -51,0 -95,-34 -109,-80l287 0c2,-11 3,-22 3,-34 0,-100 -81,-181 -181,-181z"/>
  <path class="fil1" d="M1290 272l-114 0 0 -147 -68 0 0 181c0,100 82,182 182,182l0 -68c-51,0 -94,-34 -108,-80l108 0 0 -68z"/>
  <path class="fil1" d="M1085 51c0,23 -19,42 -42,42 -24,0 -43,-19 -43,-42 0,-24 19,-43 43,-43 23,0 42,19 42,43z"/>
  <polygon class="fil1" points="1076,488 1009,488 1009,125 1076,125 "/>
 </g>
</svg>
