<?xml version="1.0" encoding="UTF-8"?>
<!DOCTYPE svg PUBLIC "-//W3C//DTD SVG 1.0//EN" "http://www.w3.org/TR/2001/REC-SVG-20010904/DTD/svg10.dtd">
<!-- Creator: CorelDRAW X7 -->
<svg xmlns="http://www.w3.org/2000/svg" xml:space="preserve" width="16720px" height="2126px" version="1.0" style="shape-rendering:geometricPrecision; text-rendering:geometricPrecision; image-rendering:optimizeQuality; fill-rule:evenodd; clip-rule:evenodd"
viewBox="0 0 16720 2126"
 xmlns:xlink="http://www.w3.org/1999/xlink">
 <defs>
  <style type="text/css">
   <![CDATA[
    .fil1 {fill:#004FFF;fill-rule:nonzero}
    .fil2 {fill:white;fill-rule:nonzero}
    .fil0 {fill:white;fill-rule:nonzero}
   ]]>
  </style>
 </defs>
 <g id="Слой_x0020_1">
  <metadata id="CorelCorpID_0Corel-Layer"/>
  <path class="fil0" d="M8001 111c-469,0 -851,382 -851,851l318 0c0,-294 239,-533 533,-533 294,0 533,239 533,533 0,294 -239,533 -533,533l0 318c469,0 851,-381 851,-851 0,-469 -382,-851 -851,-851z"/>
  <path class="fil0" d="M12169 953c0,470 -381,851 -851,851l0 -318c294,0 534,-239 534,-533l317 0z"/>
  <path class="fil0" d="M12552 429c294,0 533,239 533,533 0,294 -239,533 -533,533l0 318c469,0 851,-381 851,-851l0 0c0,-469 -382,-851 -851,-851l0 318z"/>
  <path class="fil0" d="M10085 429c294,0 533,239 533,533 0,294 -239,533 -533,533 -294,0 -533,-239 -533,-533l0 0c0,-294 239,-533 533,-533zm0 1384c469,0 851,-381 851,-851 0,-469 -382,-851 -851,-851l0 0c-469,0 -851,382 -851,851 0,470 382,851 851,851z"/>
  <path class="fil1" d="M2710 948c79,0 145,-41 175,-84l0 73 120 0 0 -546 -120 0 0 73c-30,-44 -96,-84 -175,-84 -149,0 -263,128 -263,284 0,156 114,284 263,284zm22 -109c-96,0 -162,-77 -162,-175 0,-98 66,-175 162,-175 96,0 163,77 163,175 0,98 -67,175 -163,175zm577 109c112,0 198,-65 198,-169 0,-91 -57,-137 -153,-166l-56 -17c-53,-16 -66,-38 -66,-64 0,-34 38,-52 74,-52 44,0 78,22 103,56l83 -63c-38,-61 -101,-93 -184,-93 -109,0 -196,60 -196,156 -1,82 47,141 143,167l48 13c66,21 85,39 85,70 0,38 -36,58 -79,58 -56,0 -109,-27 -131,-75l-89 63c40,79 123,116 220,116zm556 -11l120 0 0 -439 156 0 0 -107 -156 0 0 -78c0,-69 30,-93 92,-93 23,0 47,4 64,11l0 -107c-23,-7 -51,-13 -89,-13 -105,0 -187,66 -187,188l0 92 -114 0 0 107 114 0 0 439zm549 11c79,0 144,-41 175,-84l0 73 120 0 0 -546 -120 0 0 73c-31,-44 -96,-84 -175,-84 -149,0 -263,128 -263,284 0,156 114,284 263,284zm22 -109c-96,0 -163,-77 -163,-175 0,-98 67,-175 163,-175 96,0 163,77 163,175 0,98 -67,175 -163,175zm577 109c112,0 197,-65 197,-169 0,-91 -56,-137 -152,-166l-56 -17c-54,-16 -66,-38 -66,-64 0,-34 37,-52 74,-52 44,0 78,22 103,56l83 -63c-38,-61 -101,-93 -184,-93 -110,0 -196,60 -196,156 -1,82 47,141 143,167l48 13c66,21 84,39 84,70 0,38 -36,58 -78,58 -56,0 -109,-27 -131,-75l-89 63c40,79 123,116 220,116zm519 -6c38,0 64,-4 89,-12l0 -107c-17,8 -41,11 -64,11 -63,0 -92,-24 -92,-93l0 -243 156 0 0 -107 -156 0 0 -152 -120 0 0 152 -114 0 0 107 114 0 0 263c0,123 82,181 187,181z"/>
  <path class="fil2" d="M2710 1822c79,0 145,-41 175,-84l0 73 120 0 0 -546 -120 0 0 73c-30,-44 -96,-84 -175,-84 -149,0 -263,127 -263,284 0,156 114,284 263,284zm22 -110c-96,0 -162,-76 -162,-174 0,-99 66,-175 162,-175 96,0 163,76 163,175 0,98 -67,174 -163,174zm577 110c112,0 198,-65 198,-170 0,-90 -57,-136 -153,-166l-56 -16c-53,-16 -66,-38 -66,-65 0,-33 38,-51 74,-51 44,0 78,22 103,56l83 -64c-38,-61 -101,-92 -184,-92 -109,0 -196,60 -196,156 -1,82 47,141 143,167l48 13c66,21 85,38 85,70 0,38 -36,58 -79,58 -56,0 -109,-27 -131,-76l-89 64c40,78 123,116 220,116zm632 217l0 -301c31,43 98,84 176,84 150,0 263,-128 263,-284 0,-157 -113,-284 -263,-284 -78,0 -145,40 -176,84l0 -73 -120 0 0 774 120 0zm154 -327c-97,0 -163,-76 -163,-174 0,-99 66,-175 163,-175 96,0 163,76 163,175 0,98 -67,174 -163,174zm622 110c161,0 286,-126 286,-284 0,-159 -125,-284 -286,-284 -162,0 -286,125 -286,284 0,158 124,284 286,284zm0 -112c-97,0 -165,-75 -165,-172 0,-98 68,-173 165,-173 96,0 164,75 164,173 0,97 -68,172 -164,172zm548 112c113,0 198,-65 198,-170 0,-90 -57,-136 -153,-166l-56 -16c-53,-16 -65,-38 -65,-65 0,-33 37,-51 73,-51 45,0 78,22 104,56l83 -64c-39,-61 -102,-92 -185,-92 -109,0 -196,60 -196,156 -1,82 47,141 144,167l48 13c65,21 84,38 84,70 0,38 -36,58 -79,58 -56,0 -109,-27 -131,-76l-88 64c39,78 122,116 219,116zm463 0c113,0 198,-65 198,-170 0,-90 -57,-136 -153,-166l-56 -16c-53,-16 -65,-38 -65,-65 0,-33 37,-51 73,-51 45,0 79,22 104,56l83 -64c-39,-61 -102,-92 -185,-92 -109,0 -195,60 -195,156 -2,82 47,141 143,167l48 13c65,21 84,38 84,70 0,38 -36,58 -79,58 -56,0 -109,-27 -131,-76l-88 64c39,78 122,116 219,116zm350 -676c44,0 79,-37 79,-81 0,-44 -35,-80 -79,-80 -44,0 -81,36 -81,80 0,44 37,81 81,81zm-60 665l120 0 0 -546 -120 0 0 546zm545 11c149,0 263,-128 263,-284 0,-157 -114,-284 -263,-284 -79,0 -146,40 -176,84l0 -346 -120 0 0 819 120 0 0 -73c30,43 97,84 176,84zm-22 -110c-97,0 -164,-76 -164,-174 0,-99 67,-175 164,-175 96,0 163,76 163,175 0,98 -67,174 -163,174zm374 99l121 0 0 -819 -121 0 0 819zm496 11c115,0 200,-48 249,-127l-91 -66c-30,48 -79,83 -157,83 -91,0 -162,-58 -168,-148l429 0c2,-18 2,-27 2,-39 0,-176 -120,-271 -264,-271 -166,0 -285,123 -285,284 0,167 119,284 285,284zm-161 -346c17,-80 86,-121 157,-121 70,0 133,43 146,121l-303 0zm579 343c52,0 95,-42 95,-95 0,-51 -43,-95 -95,-95 -52,0 -94,44 -94,95 0,53 42,95 94,95z"/>
  <path class="fil0" d="M14636 111c-469,0 -851,382 -851,851l318 0c0,-294 239,-533 533,-533 294,0 533,239 533,533 0,294 -239,533 -533,533l0 318c469,0 851,-381 851,-851 0,-469 -382,-851 -851,-851z"/>
  <path class="fil0" d="M16720 1495c-294,0 -533,-239 -533,-533 0,-294 239,-533 533,-533l0 -318c-469,0 -851,382 -851,851l0 0c0,470 382,851 851,851l0 -318z"/>
  <path class="fil0" d="M852 953c0,470 -381,851 -851,851l0 -318c294,0 534,-239 534,-533l317 0z"/>
  <path class="fil0" d="M1235 429c294,0 533,239 533,533 0,294 -239,533 -533,533l0 318c469,0 851,-381 851,-851l0 0c0,-469 -382,-851 -851,-851l0 318z"/>
 </g>
</svg>
