<?xml version="1.0" encoding="UTF-8"?>
<!DOCTYPE svg PUBLIC "-//W3C//DTD SVG 1.0//EN" "http://www.w3.org/TR/2001/REC-SVG-20010904/DTD/svg10.dtd">
<!-- Creator: CorelDRAW X7 -->
<svg xmlns="http://www.w3.org/2000/svg" xml:space="preserve" width="2362px" height="283px" version="1.0" style="shape-rendering:geometricPrecision; text-rendering:geometricPrecision; image-rendering:optimizeQuality; fill-rule:evenodd; clip-rule:evenodd"
viewBox="0 0 2362 283"
 xmlns:xlink="http://www.w3.org/1999/xlink">
 <defs>
  <style type="text/css">
   <![CDATA[
    .fil1 {fill:#004FFF;fill-rule:nonzero}
    .fil0 {fill:#00D590;fill-rule:nonzero}
   ]]>
  </style>
 </defs>
 <g id="Слой_x0020_1">
  <metadata id="CorelCorpID_0Corel-Layer"/>
  <g id="_478389384">
   <path class="fil0" d="M1130 11c-66,0 -120,54 -120,120l45 0c0,-41 34,-75 75,-75 42,0 76,34 76,75 0,42 -34,76 -76,76l0 45c66,0 120,-54 120,-121 0,-66 -54,-120 -120,-120z"/>
   <path class="fil0" d="M1719 130c0,66 -54,120 -120,120l0 -45c41,0 75,-33 75,-75l45 0z"/>
   <path class="fil0" d="M1773 56c42,0 75,34 75,75 0,42 -33,76 -75,76l0 45c66,0 120,-54 120,-121l0 0c0,-66 -54,-120 -120,-120l0 45z"/>
   <path class="fil0" d="M1425 56c41,0 75,34 75,75 0,42 -34,76 -75,76 -42,0 -76,-34 -76,-76l0 0c0,-41 34,-75 76,-75zm0 196c66,0 120,-54 120,-121 0,-66 -54,-120 -120,-120l0 0c-67,0 -121,54 -121,120 0,67 54,121 121,121z"/>
   <path class="fil1" d="M383 129c11,0 20,-5 24,-12l0 11 17 0 0 -77 -17 0 0 10c-4,-6 -13,-12 -24,-12 -21,0 -37,18 -37,40 0,22 16,40 37,40l0 0zm3 -15c-14,0 -23,-11 -23,-25 0,-14 9,-25 23,-25 13,0 23,11 23,25 0,14 -10,25 -23,25zm81 15c16,0 28,-9 28,-24 0,-12 -8,-19 -21,-23l-8 -2c-8,-3 -10,-6 -10,-9 0,-5 6,-8 11,-8 6,0 11,3 14,8l12 -9c-5,-8 -14,-13 -26,-13 -15,0 -27,9 -27,22 -1,12 6,20 20,24l6 2c10,2 13,5 13,9 0,6 -6,9 -12,9 -8,0 -15,-4 -18,-11l-13 9c6,11 18,16 31,16zm79 -1l17 0 0 -62 22 0 0 -15 -22 0 0 -11c0,-10 4,-14 13,-14 3,0 6,1 9,2l0 -15c-3,-1 -7,-2 -13,-2 -15,0 -26,9 -26,27l0 13 -16 0 0 15 16 0 0 62zm77 1c12,0 21,-5 25,-12l0 11 17 0 0 -77 -17 0 0 10c-4,-6 -13,-12 -25,-12 -21,0 -37,18 -37,40 0,22 16,40 37,40l0 0zm4 -15c-14,0 -23,-11 -23,-25 0,-14 9,-25 23,-25 13,0 23,11 23,25 0,14 -10,25 -23,25zm81 15c16,0 28,-9 28,-24 0,-12 -8,-19 -22,-23l-7 -2c-8,-3 -10,-6 -10,-9 0,-5 5,-8 11,-8 6,0 11,3 14,8l12 -9c-5,-8 -14,-13 -26,-13 -16,0 -28,9 -28,22 0,12 7,20 20,24l7 2c10,2 12,5 12,9 0,6 -5,9 -11,9 -8,0 -15,-4 -18,-11l-13 9c6,11 17,16 31,16zm73 -1c6,0 9,0 13,-1l0 -15c-2,1 -6,1 -9,1 -9,0 -13,-3 -13,-13l0 -34 22 0 0 -15 -22 0 0 -22 -17 0 0 22 -16 0 0 15 16 0 0 37c0,17 12,25 26,25l0 0z"/>
   <path class="fil0" d="M383 253c11,0 20,-6 24,-12l0 10 17 0 0 -77 -17 0 0 10c-4,-6 -13,-11 -24,-11 -21,0 -37,17 -37,40 0,22 16,40 37,40l0 0zm3 -16c-14,0 -23,-10 -23,-24 0,-14 9,-25 23,-25 13,0 23,11 23,25 0,14 -10,24 -23,24zm81 16c16,0 28,-9 28,-24 0,-13 -8,-19 -21,-24l-8 -2c-8,-2 -10,-5 -10,-9 0,-5 6,-7 11,-7 6,0 11,3 14,8l12 -9c-5,-9 -14,-13 -26,-13 -15,0 -27,8 -27,22 -1,11 6,19 20,23l6 2c10,3 13,5 13,10 0,5 -6,8 -12,8 -8,0 -15,-4 -18,-11l-13 9c6,11 18,17 31,17zm90 30l0 -42c4,6 13,12 24,12 22,0 38,-18 38,-40 0,-23 -16,-40 -38,-40 -11,0 -20,5 -24,11l0 -10 -17 0 0 109 17 0 0 0zm21 -46c-13,0 -23,-10 -23,-24 0,-14 10,-25 23,-25 14,0 23,11 23,25 0,14 -9,24 -23,24zm88 16c23,0 41,-18 41,-40 0,-23 -18,-40 -41,-40 -23,0 -40,17 -40,40 0,22 17,40 40,40zm0 -16c-13,0 -23,-11 -23,-24 0,-14 10,-25 23,-25 14,0 23,11 23,25 0,13 -9,24 -23,24zm78 16c16,0 28,-9 28,-24 0,-13 -8,-19 -22,-24l-8 -2c-7,-2 -9,-5 -9,-9 0,-5 5,-7 10,-7 7,0 11,3 15,8l12 -9c-6,-9 -15,-13 -26,-13 -16,0 -28,8 -28,22 0,11 6,19 20,23l7 2c9,3 12,5 12,10 0,5 -5,8 -11,8 -8,0 -16,-4 -19,-11l-12 9c5,11 17,17 31,17l0 0zm65 0c16,0 28,-9 28,-24 0,-13 -8,-19 -22,-24l-7 -2c-8,-2 -10,-5 -10,-9 0,-5 6,-7 11,-7 6,0 11,3 14,8l12 -9c-5,-9 -14,-13 -26,-13 -15,0 -28,8 -28,22 0,11 7,19 21,23l6 2c10,3 12,5 12,10 0,5 -5,8 -11,8 -8,0 -15,-4 -18,-11l-13 9c6,11 17,17 31,17zm50 -96c6,0 11,-5 11,-11 0,-6 -5,-11 -11,-11 -7,0 -12,5 -12,11 0,6 5,11 12,11zm-9 94l17 0 0 -77 -17 0 0 77zm77 2c21,0 37,-18 37,-40 0,-23 -16,-40 -37,-40 -11,0 -21,5 -25,11l0 -48 -17 0 0 115 17 0 0 -10c4,6 14,12 25,12l0 0zm-3 -16c-14,0 -23,-10 -23,-24 0,-14 9,-25 23,-25 14,0 23,11 23,25 0,14 -9,24 -23,24zm53 14l17 0 0 -115 -17 0 0 115zm70 2c16,0 28,-7 35,-18l-13 -9c-4,6 -11,11 -22,11 -13,0 -23,-8 -24,-21l61 0c0,-2 0,-3 0,-5 0,-25 -17,-38 -37,-38 -24,0 -40,17 -40,40 0,23 16,40 40,40l0 0zm-23 -49c3,-11 12,-17 22,-17 10,0 19,6 21,17l-43 0zm82 48c7,0 13,-6 13,-13 0,-7 -6,-13 -13,-13 -7,0 -13,6 -13,13 0,7 6,13 13,13z"/>
   <path class="fil0" d="M2068 11c-67,0 -121,54 -121,120l45 0c0,-41 34,-75 76,-75 41,0 75,34 75,75 0,42 -34,76 -75,76l0 45c66,0 120,-54 120,-121 0,-66 -54,-120 -120,-120z"/>
   <path class="fil0" d="M2362 207c-42,0 -75,-34 -75,-76 0,-41 33,-75 75,-75l0 -45c-66,0 -120,54 -120,120l0 0c0,67 54,121 120,121l0 -45z"/>
   <path class="fil0" d="M120 130c0,66 -54,120 -120,120l0 -45c42,0 75,-33 75,-75l45 0z"/>
   <path class="fil0" d="M174 56c42,0 76,34 76,75 0,42 -34,76 -76,76l0 45c67,0 121,-54 121,-121l0 0c0,-66 -54,-120 -121,-120l0 45z"/>
  </g>
 </g>
</svg>
