<?xml version="1.0" encoding="UTF-8"?>
<!DOCTYPE svg PUBLIC "-//W3C//DTD SVG 1.0//EN" "http://www.w3.org/TR/2001/REC-SVG-20010904/DTD/svg10.dtd">
<!-- Creator: CorelDRAW X7 -->
<svg xmlns="http://www.w3.org/2000/svg" xml:space="preserve" width="92px" height="35px" version="1.0" style="shape-rendering:geometricPrecision; text-rendering:geometricPrecision; image-rendering:optimizeQuality; fill-rule:evenodd; clip-rule:evenodd"
viewBox="0 0 92 35"
 xmlns:xlink="http://www.w3.org/1999/xlink">
 <defs>
  <style type="text/css">
   <![CDATA[
    .fil1 {fill:black;fill-rule:nonzero}
    .fil0 {fill:#00D590;fill-rule:nonzero}
   ]]>
  </style>
 </defs>
 <g id="Слой_x0020_1">
  <metadata id="CorelCorpID_0Corel-Layer"/>
  <g id="_261194640">
   <path class="fil0" d="M27 4c0,1 -1,3 -3,3 -2,0 -3,-2 -3,-3 0,-2 1,-3 3,-3 2,0 3,1 3,3z"/>
   <path class="fil0" d="M69 19l-8 0 0 -10 -5 0 0 13c0,7 6,13 13,13l0 -5c-3,0 -7,-3 -8,-6l8 0 0 -5z"/>
   <path class="fil0" d="M34 19c1,-3 4,-5 8,-5 3,0 6,2 7,5l-15 0zm-21 11c-3,0 -6,-3 -7,-6l15 0c-1,3 -4,6 -8,6zm29 -21c-7,0 -12,4 -13,10l-3 0 0 -10 -4 0 0 10 -17 0 -3 0 -1 0 0 3c0,7 5,13 12,13 7,0 12,-5 13,-11l0 0 3 0c1,6 6,11 13,11 4,0 8,-3 11,-6l-5 -3c-1,2 -3,4 -6,4 -4,0 -7,-3 -8,-6l20 0c1,-1 1,-1 1,-2 0,-7 -6,-13 -13,-13z"/>
   <path class="fil1" d="M91 19l-8 0 0 -10 -4 0 0 13c0,7 5,13 12,13l0 -5c-3,0 -6,-3 -7,-6l7 0 0 -5z"/>
   <path class="fil1" d="M77 4c0,1 -1,3 -3,3 -2,0 -3,-2 -3,-3 0,-2 1,-3 3,-3 2,0 3,1 3,3z"/>
   <polygon class="fil1" points="76,35 71,35 71,9 76,9 "/>
  </g>
 </g>
</svg>
