<?xml version="1.0" encoding="UTF-8"?>
<!DOCTYPE svg PUBLIC "-//W3C//DTD SVG 1.0//EN" "http://www.w3.org/TR/2001/REC-SVG-20010904/DTD/svg10.dtd">
<!-- Creator: CorelDRAW X7 -->
<svg xmlns="http://www.w3.org/2000/svg" xml:space="preserve" width="19374px" height="2126px" version="1.0" style="shape-rendering:geometricPrecision; text-rendering:geometricPrecision; image-rendering:optimizeQuality; fill-rule:evenodd; clip-rule:evenodd"
viewBox="0 0 19374 2126"
 xmlns:xlink="http://www.w3.org/1999/xlink">
 <defs>
  <style type="text/css">
   <![CDATA[
    .fil0 {fill:none}
    .fil2 {fill:#004FFF;fill-rule:nonzero}
    .fil3 {fill:white;fill-rule:nonzero}
    .fil1 {fill:white;fill-rule:nonzero}
   ]]>
  </style>
 </defs>
 <g id="Слой_x0020_1">
  <metadata id="CorelCorpID_0Corel-Layer"/>
  <rect class="fil0" width="19382" height="2126"/>
  <path class="fil1" d="M5664 111c-469,0 -851,382 -851,851l318 0c0,-294 239,-533 533,-533 294,0 533,239 533,533 0,294 -239,533 -533,533l0 318c469,0 851,-382 851,-851 0,-469 -382,-851 -851,-851z"/>
  <path class="fil1" d="M10069 953c0,470 -382,851 -851,851l0 -318c294,0 533,-239 533,-533l318 0z"/>
  <path class="fil1" d="M10570 429c294,0 533,239 533,533 0,294 -239,533 -533,533l0 318c469,0 851,-382 851,-851l0 0c0,-469 -382,-851 -851,-851l0 318z"/>
  <path class="fil1" d="M7866 429c294,0 534,239 534,533 0,294 -240,533 -534,533 -293,0 -533,-239 -533,-533l0 0c0,-294 240,-533 533,-533zm0 1384c470,0 851,-382 851,-851 0,-469 -381,-851 -851,-851l0 0c-469,0 -850,382 -850,851 0,469 381,851 850,851z"/>
  <path class="fil2" d="M373 948c79,0 144,-41 175,-84l0 73 120 0 0 -546 -120 0 0 73c-31,-44 -96,-84 -175,-84 -150,0 -263,128 -263,284 0,156 113,284 263,284zm22 -109c-96,0 -163,-77 -163,-175 0,-98 67,-175 163,-175 96,0 163,77 163,175 0,98 -67,175 -163,175zm577 109c112,0 197,-65 197,-169 0,-91 -57,-137 -153,-166l-55 -17c-54,-16 -66,-38 -66,-64 0,-34 37,-52 73,-52 45,0 79,22 104,56l83 -63c-38,-61 -101,-93 -184,-93 -110,0 -196,60 -196,156 -1,82 47,141 143,167l48 13c66,21 84,39 84,70 0,38 -36,58 -78,58 -56,0 -110,-27 -131,-75l-89 63c39,79 122,116 220,116zm556 -11l120 0 0 -439 156 0 0 -107 -156 0 0 -78c0,-69 29,-93 91,-93 23,0 47,4 65,11l0 -107c-23,-7 -51,-13 -90,-13 -105,0 -186,66 -186,188l0 92 -114 0 0 107 114 0 0 439zm549 11c79,0 144,-41 175,-84l0 73 120 0 0 -546 -120 0 0 73c-31,-44 -96,-84 -175,-84 -150,0 -263,128 -263,284 0,156 113,284 263,284zm22 -109c-96,0 -163,-77 -163,-175 0,-98 67,-175 163,-175 96,0 162,77 162,175 0,98 -66,175 -162,175zm576 109c113,0 198,-65 198,-169 0,-91 -57,-137 -153,-166l-56 -17c-53,-16 -65,-38 -65,-64 0,-34 37,-52 73,-52 45,0 79,22 104,56l83 -63c-38,-61 -102,-93 -185,-93 -109,0 -195,60 -195,156 -1,82 47,141 143,167l48 13c65,21 84,39 84,70 0,38 -36,58 -79,58 -55,0 -109,-27 -131,-75l-88 63c39,79 122,116 219,116zm519 -6c38,0 65,-4 90,-12l0 -107c-18,8 -42,11 -65,11 -62,0 -91,-24 -91,-93l0 -243 156 0 0 -107 -156 0 0 -152 -121 0 0 152 -113 0 0 107 113 0 0 263c0,123 82,181 187,181z"/>
  <path class="fil3" d="M373 1822c79,0 144,-41 175,-85l0 74 120 0 0 -546 -120 0 0 73c-31,-44 -96,-84 -175,-84 -150,0 -263,127 -263,284 0,156 113,284 263,284zm22 -110c-96,0 -163,-76 -163,-174 0,-99 67,-175 163,-175 96,0 163,76 163,175 0,98 -67,174 -163,174zm577 110c112,0 197,-65 197,-170 0,-90 -57,-136 -153,-166l-55 -16c-54,-16 -66,-38 -66,-65 0,-33 37,-51 73,-51 45,0 79,22 104,56l83 -64c-38,-61 -101,-92 -184,-92 -110,0 -196,60 -196,156 -1,82 47,141 143,167l48 13c66,21 84,38 84,70 0,38 -36,58 -78,58 -56,0 -110,-27 -131,-76l-89 64c39,78 122,116 220,116zm632 217l0 -302c31,44 97,85 176,85 149,0 263,-128 263,-284 0,-157 -114,-284 -263,-284 -79,0 -145,40 -176,84l0 -73 -120 0 0 774 120 0zm154 -327c-97,0 -164,-76 -164,-174 0,-99 67,-175 164,-175 96,0 163,76 163,175 0,98 -67,174 -163,174zm621 110c162,0 287,-126 287,-284 0,-159 -125,-284 -287,-284 -161,0 -286,125 -286,284 0,158 125,284 286,284zm0 -112c-97,0 -164,-75 -164,-172 0,-98 67,-173 164,-173 97,0 164,75 164,173 0,97 -67,172 -164,172zm549 112c112,0 197,-65 197,-170 0,-90 -56,-136 -153,-166l-55 -16c-54,-16 -66,-38 -66,-65 0,-33 37,-51 73,-51 45,0 79,22 104,56l83 -64c-38,-61 -101,-92 -184,-92 -110,0 -196,60 -196,156 -1,82 47,141 143,167l48 13c66,21 84,38 84,70 0,38 -36,58 -78,58 -56,0 -110,-27 -131,-76l-89 64c40,78 123,116 220,116zm463 0c112,0 197,-65 197,-170 0,-90 -56,-136 -152,-166l-56 -16c-54,-16 -66,-38 -66,-65 0,-33 37,-51 74,-51 44,0 78,22 103,56l83 -64c-38,-61 -101,-92 -184,-92 -110,0 -196,60 -196,156 -1,82 47,141 143,167l48 13c66,21 84,38 84,70 0,38 -36,58 -78,58 -56,0 -109,-27 -131,-76l-89 64c40,78 123,116 220,116zm349 -676c45,0 80,-37 80,-81 0,-44 -35,-80 -80,-80 -43,0 -81,36 -81,80 0,44 38,81 81,81zm-60 665l120 0 0 -546 -120 0 0 546zm545 11c150,0 263,-128 263,-284 0,-157 -113,-284 -263,-284 -78,0 -145,40 -176,84l0 -346 -120 0 0 819 120 0 0 -74c31,44 98,85 176,85zm-22 -110c-97,0 -163,-76 -163,-174 0,-99 66,-175 163,-175 97,0 163,76 163,175 0,98 -66,174 -163,174zm375 99l120 0 0 -819 -120 0 0 819zm496 11c115,0 200,-48 249,-127l-92 -66c-29,48 -78,83 -156,83 -92,0 -163,-58 -168,-148l429 0c1,-18 1,-27 1,-39 0,-176 -119,-271 -263,-271 -166,0 -285,123 -285,284 0,167 119,284 285,284zm-162 -346c18,-80 87,-121 158,-121 69,0 133,43 146,121l-304 0zm579 343c53,0 95,-42 95,-95 0,-51 -42,-95 -95,-95 -51,0 -94,44 -94,95 0,53 43,95 94,95z"/>
  <path class="fil1" d="M12773 111c-469,0 -851,382 -851,851l318 0c0,-294 239,-533 533,-533 294,0 533,239 533,533 0,294 -239,533 -533,533l0 318c469,0 851,-382 851,-851 0,-469 -382,-851 -851,-851z"/>
  <path class="fil1" d="M14975 1495c-293,0 -533,-239 -533,-533 0,-294 240,-533 533,-533 294,0 533,239 533,533l0 0c0,294 -239,533 -533,533zm0 -1384c-469,0 -850,382 -850,851 0,469 381,851 850,851l0 0c470,0 851,-382 851,-851 0,-469 -381,-851 -851,-851z"/>
  <path class="fil1" d="M16327 962c0,469 382,851 851,851l0 -318c-294,0 -533,-239 -533,-533 0,-294 239,-533 533,-533 294,0 533,239 533,533l318 0c0,-469 -382,-851 -851,-851 -469,0 -851,382 -851,851z"/>
  <path class="fil1" d="M19381 1495c-294,0 -533,-239 -533,-533 0,-294 239,-533 533,-533l0 -318c-469,0 -851,382 -851,851l0 0c0,469 382,851 851,851l0 -318z"/>
 </g>
</svg>
