<svg width="22" height="22" viewBox="0 0 22 22" fill="none" xmlns="http://www.w3.org/2000/svg">
<path d="M4.99999 9.62425C4.99999 9.45149 5.06772 9.28581 5.18827 9.16365C5.30882 9.04149 5.47232 8.97287 5.6428 8.97287H11V5.26785C10.9999 5.21771 11.0146 5.1687 11.042 5.127C11.0695 5.0853 11.1085 5.0528 11.1543 5.03361C11.2 5.01442 11.2503 5.0094 11.2988 5.01919C11.3473 5.02898 11.3919 5.05314 11.4268 5.08861L16.8124 10.5385C16.8722 10.599 16.9197 10.6708 16.9521 10.7499C16.9845 10.829 17.0011 10.9138 17.0011 10.9994C17.0011 11.085 16.9845 11.1698 16.9521 11.2489C16.9197 11.328 16.8722 11.3998 16.8124 11.4603L11.4268 16.9095C11.3919 16.9449 11.3474 16.9691 11.299 16.9789C11.2506 16.9887 11.2004 16.9838 11.1547 16.9647C11.109 16.9456 11.07 16.9133 11.0424 16.8717C11.0149 16.8302 11.0001 16.7813 11 16.7312V13.0262H5.6428C5.55836 13.0262 5.47475 13.0094 5.39674 12.9766C5.31873 12.9439 5.24785 12.8958 5.18816 12.8353C5.12846 12.7748 5.08112 12.703 5.04883 12.6239C5.01655 12.5448 4.99995 12.4601 4.99999 12.3745V9.62425ZM4 9.62425V12.3745C4.00041 12.8159 4.17362 13.2391 4.4816 13.5513C4.78959 13.8635 5.2072 14.0391 5.6428 14.0396H9.99996V16.7312C9.99996 17.8557 11.3437 18.4254 12.1334 17.6274L17.5177 12.1782C17.6706 12.0236 17.7919 11.84 17.8746 11.6379C17.9574 11.4357 18 11.219 18 11.0002C18 10.7813 17.9574 10.5646 17.8746 10.3625C17.7919 10.1604 17.6706 9.97674 17.5177 9.82217L12.1334 4.37199C11.3484 3.57747 9.99996 4.13924 9.99996 5.26785V7.95953H5.6428C5.20726 7.96003 4.78969 8.13558 4.48171 8.44767C4.17374 8.75976 4.0005 9.18289 4 9.62425Z" fill="black"/>
</svg>
