<svg width="13" height="15" viewBox="0 0 13 15" fill="none" xmlns="http://www.w3.org/2000/svg">
<path d="M10.5625 12.1875H7.85417C7.70453 12.1875 7.58333 12.2924 7.58333 12.4219V12.8906C7.58333 13.0201 7.70453 13.125 7.85417 13.125H10.5625C10.7121 13.125 10.8333 13.0201 10.8333 12.8906V12.4219C10.8333 12.2924 10.7121 12.1875 10.5625 12.1875ZM2.16667 7.03125V9.84375C2.16667 10.1027 2.44393 10.3125 2.78586 10.3125H10.2145C10.5564 10.3125 10.8337 10.1027 10.8337 9.84375V7.03125C10.8337 6.77227 10.5564 6.5625 10.2145 6.5625H2.78586C2.44393 6.5625 2.16667 6.77227 2.16667 7.03125ZM3.25 7.5H9.75V9.375H3.25V7.5ZM2.4375 2.8125H6.22917C6.3788 2.8125 6.5 2.70762 6.5 2.57812V2.10938C6.5 1.97988 6.3788 1.875 6.22917 1.875H2.4375C2.28786 1.875 2.16667 1.97988 2.16667 2.10938V2.57812C2.16667 2.70762 2.28786 2.8125 2.4375 2.8125ZM2.4375 4.6875H6.22917C6.3788 4.6875 6.5 4.58262 6.5 4.45312V3.98438C6.5 3.85488 6.3788 3.75 6.22917 3.75H2.4375C2.28786 3.75 2.16667 3.85488 2.16667 3.98438V4.45312C2.16667 4.58262 2.28786 4.6875 2.4375 4.6875ZM12.5227 2.87051L9.68297 0.413086C9.37828 0.149414 8.96526 0 8.53565 0H1.62466C0.727865 0.00292969 0 0.632812 0 1.40889V13.594C0 14.3701 0.727865 15 1.62466 15H11.3753C12.2721 15 13 14.3701 13 13.594V3.86631C13 3.49453 12.8273 3.13418 12.5227 2.87051ZM8.66768 0.954785C8.76247 0.975293 8.84711 1.01631 8.9182 1.07783L11.7579 3.53525C11.829 3.59678 11.8764 3.67002 11.9001 3.75205H8.66768V0.954785ZM11.917 13.594C11.917 13.8519 11.6733 14.0628 11.3753 14.0628H1.62466C1.32674 14.0628 1.08299 13.8519 1.08299 13.594V1.40889C1.08299 1.15107 1.32674 0.9375 1.62466 0.9375H7.58435V3.98643C7.58435 4.37607 7.94659 4.6875 8.39685 4.6875H11.917V13.594Z" fill="black"/>
</svg>
