<svg width="120" height="60" viewBox="0 0 120 60" fill="none" xmlns="http://www.w3.org/2000/svg">
<rect width="120" height="60" fill="white"/>
<path fill-rule="evenodd" clip-rule="evenodd" d="M66.8403 34.7499L67.3957 33.0836C67.4883 32.8059 67.766 32.6208 68.0437 32.7134C68.2288 32.7134 68.3214 32.8985 68.3214 33.0836C68.3214 33.1762 68.3214 33.2688 68.414 33.2688C68.8768 34.1945 70.1728 34.8424 71.5613 34.7499C72.8572 34.6573 73.3201 33.8242 73.2275 32.8985C73.2275 32.5282 73.0424 32.158 72.9498 31.9728C72.7647 31.7877 70.0802 28.6404 70.0802 28.6404C69.5248 27.8073 69.1545 26.8816 69.0619 25.8633C68.8768 22.9011 71.0984 20.3092 74.616 20.0315C76.8377 19.8464 78.5965 20.4944 79.8924 21.5126L79.337 23.1788C79.2445 23.4565 78.9667 23.6417 78.689 23.5491C78.5039 23.4565 78.4113 23.2714 78.4113 23.0863C78.4113 23.0863 78.4113 22.9937 78.3188 22.9011C77.7634 21.9755 76.8377 21.42 75.3566 21.5126C74.0606 21.6052 73.4127 22.4383 73.4127 23.4565C73.5052 23.7343 73.5052 23.9194 73.5978 24.1045C73.7829 24.4748 73.9681 24.7525 74.1532 25.1228L75.6343 26.789L76.2823 27.6221C76.9302 28.4552 77.5782 29.3809 77.6708 30.3992C77.8559 33.3613 75.6343 35.9533 72.1167 36.231C69.8951 36.4161 68.1363 35.7681 66.8403 34.7499ZM94.1479 34.7499L94.7033 33.0836C94.7959 32.8059 95.0736 32.6208 95.3513 32.7134C95.5365 32.7134 95.629 32.8985 95.629 33.0836C95.629 33.1762 95.629 33.2688 95.7216 33.2688C96.1844 34.1945 97.4804 34.8424 98.8689 34.7499C100.165 34.6573 100.628 33.8242 100.535 32.8985C100.535 32.5282 100.257 32.158 100.257 31.9728C100.072 31.7877 97.3878 28.6404 97.3878 28.6404C96.8324 27.8073 96.4621 26.8816 96.3696 25.8633C96.1844 22.9011 98.4061 20.3092 101.924 20.0315C104.145 19.8464 105.904 20.4944 107.2 21.5126L106.645 23.1788C106.552 23.4565 106.274 23.6417 105.997 23.5491C105.812 23.4565 105.719 23.2714 105.719 23.0863C105.719 23.0863 105.719 22.9937 105.626 22.9011C105.071 21.9755 104.145 21.42 102.664 21.5126C101.368 21.6052 100.72 22.4383 100.72 23.4565C100.813 23.7343 100.813 23.9194 100.905 24.1045C101.091 24.4748 101.276 24.7525 101.461 25.1228L102.942 26.789L103.59 27.6221C104.145 28.4552 104.886 29.3809 104.978 30.3992C105.164 33.3613 102.942 35.9533 99.4243 36.231C97.2027 36.4161 95.4439 35.7681 94.1479 34.7499ZM87.1127 22.1606L84.1506 29.0106C83.8729 29.566 83.41 30.7694 83.41 31.6025C83.41 32.158 83.7803 32.6208 84.3357 32.8059C84.4283 32.8059 84.6134 32.8985 84.7985 32.8985C85.6317 32.8985 86.3722 32.3431 86.6499 31.6025L91.4635 20.5869H96.925C97.0175 20.5869 97.1101 20.5869 97.2027 20.5869C97.3878 20.6795 97.4804 20.9572 97.3878 21.2349C97.3878 21.42 97.2027 21.5126 97.0175 21.5126C96.5547 21.6052 96.4621 21.7903 96.277 22.1606L93.5925 28.4552C92.1114 32.0654 88.5938 34.6573 84.4283 34.6573C83.0397 34.6573 81.7438 34.287 80.5404 33.7316C79.5222 33.1762 78.689 32.0654 78.689 30.6769C78.7816 29.3809 79.0593 28.085 79.6147 26.8816L81.7438 21.8829V21.7903C81.7438 21.6052 81.6512 21.5126 81.5587 21.5126C81.3735 21.42 81.1884 21.2349 81.1884 21.0498C81.1884 20.7721 81.4661 20.5869 81.8364 20.5869H87.8533C87.8533 20.5869 87.9459 20.5869 88.0384 20.5869C88.2236 20.6795 88.4087 20.9572 88.3161 21.2349C88.2236 21.42 88.0384 21.5126 87.8533 21.5126C87.483 21.6052 87.2979 21.7903 87.1127 22.1606ZM57.1207 27.0667H59.9903L59.1572 23.6417L57.1207 27.0667ZM8.80005 34.0093L14.169 21.6978V21.6052C14.169 21.42 13.9839 21.3275 13.8913 21.3275C13.7062 21.2349 13.6136 21.0498 13.6136 20.8646C13.6136 20.5869 13.8913 20.4018 14.169 20.4018H20.0008H23.3333C24.2589 20.4018 25.1846 20.9572 25.5549 21.8829C25.74 22.3457 25.9252 22.9937 25.9252 23.5491C25.9252 24.4748 25.5549 25.4005 25.0921 26.141C24.0738 27.7147 22.315 28.6404 20.3711 28.6404H16.3906L14.6318 32.8059V32.8985C14.6318 32.9911 14.6318 33.0836 14.7244 33.0836C14.9096 33.1762 15.0947 33.3613 15.0947 33.5465C15.0947 33.8242 14.817 34.0093 14.4467 34.0093H8.80005ZM17.1312 27.0667L19.3528 21.7903C19.3528 21.7903 19.7231 21.7903 19.8157 21.8829C20.0934 21.8829 20.2785 21.9755 20.4636 22.068C21.3893 22.6234 21.3893 24.1045 20.6488 25.4005C20.0008 26.4187 19.0751 27.0667 17.9643 27.0667H17.1312ZM30.8313 27.7147L28.7948 32.6208H33.6083C33.9786 32.6208 34.2563 32.4357 34.534 32.0654C34.6266 31.8803 34.8117 31.7877 34.9969 31.7877C35.2746 31.7877 35.5523 32.0654 35.5523 32.2505C35.5523 32.3431 35.5523 32.4357 35.4597 32.5282L34.8117 34.1019H28.1468H26.1103H22.6853L27.9617 21.7903V21.6052C27.9617 21.42 27.684 21.3275 27.5914 21.2349C27.4063 21.2349 27.3137 21.0498 27.3137 20.8646C27.3137 20.5869 27.4988 20.4018 27.8691 20.4018H38.9773L38.1442 22.2532C37.959 22.6234 37.6813 22.716 37.4962 22.6234C37.3111 22.5309 37.1259 22.3457 37.2185 22.1606C37.2185 22.068 37.1259 21.8829 36.9408 21.8829C36.9408 21.7903 36.9408 21.7903 36.8482 21.7903H33.4232L31.3867 26.4187H34.3489C34.7191 26.3262 34.9043 26.3262 35.0894 26.0485C35.182 25.7708 35.4597 25.6782 35.6448 25.6782C35.9225 25.6782 36.1077 25.9559 36.1077 26.2336C36.1077 26.2336 36.0151 26.3262 36.0151 26.4187L35.182 28.1775C35.0894 28.5478 34.8117 28.6404 34.534 28.5478C34.3489 28.4552 34.3489 28.2701 34.3489 28.085C34.3489 27.9924 34.2563 27.8073 34.1637 27.8073C34.0712 27.7147 34.0712 27.7147 34.0712 27.7147H30.8313ZM61.3788 34.0093C61.0085 34.0093 60.7308 33.8242 60.7308 33.5465C60.7308 33.3613 60.9159 33.1762 61.1011 33.0836C61.1937 33.0836 61.2862 32.9911 61.2862 32.8059C61.2862 32.8059 61.2862 32.8059 61.2862 32.7134L60.3605 28.7329H56.1024L53.6031 32.7134C53.6031 32.8059 53.5105 32.8059 53.5105 32.8059C53.5105 32.9911 53.6956 33.0836 53.7882 33.0836C53.9733 33.1762 54.0659 33.3613 54.0659 33.5465C54.0659 33.8242 53.8808 34.0093 53.5105 34.0093H51.0111C50.9186 34.0093 50.826 34.0093 50.7334 34.0093C50.5483 33.9168 50.3632 33.639 50.4557 33.3613C50.5483 33.1762 50.7334 33.0836 51.0111 33.0836C51.2889 32.9911 51.474 32.8985 51.5666 32.7134L59.4349 20.4018H64.1558C64.5261 20.4018 64.7112 20.5869 64.7112 20.8646C64.7112 21.0498 64.6187 21.2349 64.4335 21.3275C64.341 21.3275 64.2484 21.42 64.2484 21.6052L67.118 34.0093H61.3788ZM52.5848 26.9741C52.6774 26.9741 52.6774 26.9741 52.7699 27.0667C53.0477 27.1593 53.1402 27.437 53.0477 27.7147C52.9551 27.8073 52.8625 27.8998 52.5848 27.9924C52.2145 27.9924 52.0294 28.1775 51.9368 28.5478L49.5301 34.0093H44.7165L44.5314 33.639C43.2354 34.1945 42.1246 34.3796 40.5509 34.3796C38.1442 34.3796 36.2002 32.4357 36.2002 30.0289C36.2002 29.8438 36.2002 29.6586 36.2002 29.566C36.8482 24.1971 41.3841 20.0315 46.8456 20.0315C49.5301 20.0315 51.0111 20.4944 53.2328 21.6052L52.6774 22.9937C52.6774 23.0863 52.5848 23.0863 52.5848 23.0863C52.4922 23.364 52.2145 23.4565 52.0294 23.364C51.7517 23.1788 51.7517 23.0863 51.6591 22.8086C51.474 22.3457 51.1963 22.2532 51.0111 22.068C50.178 21.5126 49.5301 21.5126 48.9746 21.5126C47.5861 21.5126 46.2902 22.068 45.3645 22.9011C43.2354 24.7525 41.8469 27.2518 41.3841 30.3066C41.3841 30.3992 41.3841 30.4917 41.3841 30.5843C41.3841 31.6025 42.2172 32.5282 43.328 32.5282C44.6239 32.5282 45.3645 31.7877 45.9199 30.6769L46.8456 28.4552V28.3627C46.8456 27.9924 46.5679 27.9924 46.5679 27.8998C46.2902 27.8073 46.1976 27.7147 46.1976 27.437C46.1976 27.2518 46.3827 26.9741 46.753 26.9741H52.5848Z" fill="#DC2126"/>
<path fill-rule="evenodd" clip-rule="evenodd" d="M69.5247 44.4695L69.4322 43.1736H67.5808L66.8403 44.4695H65.5443L68.7842 38.2675H70.2653L71.0058 44.4695H69.5247ZM69.247 40.304C69.247 40.2114 69.247 40.0263 69.247 39.7485V39.5634L69.1545 39.7485C69.1545 39.8411 69.0619 40.0263 68.9693 40.304L67.9511 42.3405H69.4322L69.247 40.304Z" fill="#4F4F4E"/>
<path fill-rule="evenodd" clip-rule="evenodd" d="M73.4127 44.4695H71.9316L73.2276 38.2675H74.7087L73.4127 44.4695Z" fill="#4F4F4E"/>
<path fill-rule="evenodd" clip-rule="evenodd" d="M80.2627 39.656C80.2627 40.2114 80.0776 40.6742 79.7073 41.0445C79.337 41.5073 78.9668 41.6925 78.4114 41.785L79.5222 44.4695H77.9485L77.0228 41.6925H76.9303L76.3749 44.4695H74.9863L76.1897 38.5451C76.7451 38.2674 77.3931 38.1749 78.1336 38.1749C78.7816 38.1749 79.337 38.2674 79.7073 38.5451C80.0776 38.8228 80.2627 39.1931 80.2627 39.656ZM78.7816 39.7485C78.7816 39.2857 78.5039 39.008 77.9485 39.008C77.7634 39.008 77.6708 39.008 77.4857 39.1005L77.0228 41.3222C77.1154 41.3222 77.208 41.4148 77.3931 41.4148C77.8559 41.4148 78.1336 41.2296 78.4114 40.9519C78.6891 40.5816 78.7816 40.2114 78.7816 39.7485Z" fill="#4F4F4E"/>
<path fill-rule="evenodd" clip-rule="evenodd" d="M83.6877 44.4695H80.6329L81.9289 38.2675H83.41L82.2992 43.5438H83.8728L83.6877 44.4695Z" fill="#4F4F4E"/>
<path fill-rule="evenodd" clip-rule="evenodd" d="M86.3722 44.4695H84.8911L86.1871 38.2675H87.6682L86.3722 44.4695Z" fill="#4F4F4E"/>
<path fill-rule="evenodd" clip-rule="evenodd" d="M92.5742 44.4695H91.556L90.1675 40.9519C90.0749 40.8594 90.0749 40.6742 89.9823 40.5817V40.304H89.8898V40.5817C89.8898 40.6742 89.8898 40.8594 89.7972 41.0445L89.0567 44.4695H87.8533L89.1492 38.2675H90.4452L91.6486 41.4148C91.7411 41.5073 91.7411 41.6925 91.8337 41.8776L91.9263 42.0627V41.8776C91.9263 41.6925 92.0188 41.5073 92.0188 41.4148L92.6668 38.2675H93.8702L92.5742 44.4695Z" fill="#4F4F4E"/>
<path fill-rule="evenodd" clip-rule="evenodd" d="M98.406 39.1931H96.6472L96.2769 40.8594H97.8506L97.6655 41.785H96.0918L95.7215 43.5438H97.4803L97.2952 44.4695H94.0553L95.3513 38.2675H98.5911L98.406 39.1931Z" fill="#4F4F4E"/>
<path fill-rule="evenodd" clip-rule="evenodd" d="M102.479 39.3783C102.294 39.2857 102.016 39.1931 101.646 39.1931C101.183 39.1931 100.905 39.3783 100.813 39.7485C100.72 39.8411 100.72 40.0262 100.72 40.1188C100.72 40.3039 100.813 40.5816 101.183 40.7668C101.276 40.8594 101.461 40.9519 101.739 41.1371C102.201 41.4148 102.386 41.8776 102.386 42.3404C102.386 42.8959 102.201 43.3587 101.831 43.8215C101.368 44.2844 100.72 44.5621 99.8871 44.5621C99.1466 44.5621 98.5912 44.4695 98.3135 44.1918L98.8689 43.2661C99.054 43.4513 99.3317 43.5438 99.702 43.5438C100.072 43.5438 100.257 43.4513 100.535 43.2661C100.72 43.081 100.813 42.8033 100.813 42.5256C100.813 42.3404 100.628 42.0627 100.35 41.8776C100.072 41.6925 99.8871 41.5073 99.7946 41.4148C99.4243 41.1371 99.2392 40.7668 99.2392 40.3039C99.2392 39.8411 99.4243 39.2857 99.7946 38.9154C100.257 38.36 100.813 38.1749 101.553 38.1749C102.201 38.1749 102.664 38.2674 103.034 38.5451L102.479 39.3783Z" fill="#4F4F4E"/>
</svg>
