<svg width="31" height="31" viewBox="0 0 31 31" fill="none" xmlns="http://www.w3.org/2000/svg">
<rect width="31" height="31" fill="#00E1A0"/>
<path d="M23.8268 19.4338L21.4995 17.1114C20.6683 16.2819 19.2552 16.6137 18.9228 17.692C18.6734 18.4385 17.8422 18.8532 17.0941 18.6873C15.4317 18.2726 13.1875 16.116 12.7719 14.3742C12.5226 13.6277 13.0213 12.7982 13.7694 12.5494C14.8499 12.2176 15.1824 10.8076 14.3512 9.97813L12.0238 7.65567C11.3589 7.07506 10.3615 7.07506 9.77963 7.65567L8.20036 9.23162C6.62109 10.8905 8.3666 15.2866 12.2732 19.185C16.1798 23.0834 20.5851 24.9082 22.2475 23.2493L23.8268 21.6733C24.4087 21.0098 24.4087 20.0144 23.8268 19.4338Z" fill="white"/>
</svg>
