<svg width="15" height="12" viewBox="0 0 15 12" fill="none" xmlns="http://www.w3.org/2000/svg">
<g clip-path="url(#clip0)">
<path d="M14.625 10.5H0.375006C0.167818 10.5 5.58872e-06 10.6678 5.58872e-06 10.875V11.625C5.58872e-06 11.8322 0.167818 12 0.375006 12H14.625C14.8322 12 15 11.8322 15 11.625V10.875C15 10.6678 14.8322 10.5 14.625 10.5ZM1.8879 7.9985C2.03508 8.15881 2.2418 8.24975 2.45813 8.24952L5.51766 8.2453C5.75911 8.24498 5.9971 8.18781 6.21235 8.07842L13.0317 4.61788C13.6584 4.29983 14.2202 3.84585 14.6025 3.25124C15.0317 2.58374 15.0783 2.10069 14.9088 1.75944C14.7399 1.41795 14.329 1.16717 13.5436 1.11608C12.844 1.07061 12.1481 1.25483 11.5214 1.57264L9.21259 2.74428L4.0868 0.821001C4.02517 0.779484 3.95357 0.755182 3.8794 0.750608C3.80524 0.746034 3.73119 0.761355 3.66493 0.794986L2.12391 1.5771C1.87383 1.70389 1.81337 2.03764 2.00274 2.24577L5.66415 4.54499L3.24516 5.77264L1.54946 4.91788C1.49104 4.88842 1.42651 4.87312 1.36108 4.8732C1.29566 4.87328 1.23117 4.88875 1.17282 4.91835L0.232271 5.39577C-0.0124163 5.51999 -0.0768694 5.84389 0.101724 6.05389L1.8879 7.9985Z" fill="black"/>
</g>
<defs>
<clipPath id="clip0">
<rect width="15" height="12" fill="white"/>
</clipPath>
</defs>
</svg>
