<svg width="15" height="13" viewBox="0 0 15 13" fill="none" xmlns="http://www.w3.org/2000/svg">
<path d="M1.88716 8.91661C1.97625 9.03315 2.08359 9.12599 2.20263 9.18945C2.32166 9.25291 2.4499 9.28567 2.57951 9.28572L5.55748 9.28078C5.82127 9.27988 6.08141 9.20435 6.31803 9.05996L12.9532 4.98846C13.6371 4.56886 14.1912 3.98502 14.5554 3.3002C14.9773 2.50889 15.0799 1.84119 14.8638 1.31538C14.5922 0.652035 13.8795 0.422794 13.1599 0.422794C12.5505 0.422794 11.9306 0.614602 11.314 0.992704L9.14108 2.32753L4.24943 0.106499C4.15525 0.036395 4.04737 -0.000435762 3.93748 3.89052e-06C3.8444 0.000211928 3.7526 0.0268149 3.66912 0.0777717L2.16911 0.997637C2.08198 1.05072 2.00684 1.12971 1.95039 1.22754C1.89395 1.32537 1.85797 1.439 1.84568 1.55826C1.83333 1.69096 1.85206 1.82525 1.89964 1.94512C1.94722 2.065 2.02165 2.16541 2.11404 2.23438L5.31396 4.67478L3.34638 5.88221L1.78122 4.92811C1.69795 4.87736 1.60638 4.85097 1.51357 4.85097C1.42075 4.85097 1.32918 4.87736 1.24591 4.92811L0.330204 5.49047C0.249074 5.53961 0.178167 5.61121 0.122974 5.69972C0.067781 5.78823 0.0297827 5.89128 0.0119217 6.0009C-0.00620061 6.11012 -0.00363251 6.22306 0.0194245 6.33086C0.0424815 6.43865 0.0854001 6.53836 0.144813 6.62217L1.88716 8.91661ZM1.51403 5.7998L3.34732 6.91728L6.86155 4.76096L2.77826 1.6607L3.93326 0.952079L9.18538 3.33503L11.6463 1.8261C12.1584 1.51183 12.6677 1.35253 13.1602 1.35253C13.5422 1.35253 14.0817 1.45699 14.1968 1.73788C14.2767 1.93259 14.1771 2.32578 13.9305 2.79007C13.6392 3.33764 13.1866 3.81063 12.6216 4.15739L5.98615 8.22772C5.85258 8.30925 5.7057 8.35183 5.55678 8.35221L2.58021 8.35714C2.55271 8.35714 2.5255 8.3503 2.50018 8.33705C2.47486 8.32379 2.45194 8.30437 2.43279 8.27996L0.855439 6.20431L1.51403 5.7998ZM14.8125 12.0714H0.21325C0.163522 12.0714 0.115831 12.0959 0.0806675 12.1394C0.0455043 12.183 0.0257499 12.242 0.0257499 12.3036V12.7679C0.0257499 12.8294 0.0455043 12.8885 0.0806675 12.932C0.115831 12.9755 0.163522 13 0.21325 13H14.8125C14.8622 13 14.9099 12.9755 14.9451 12.932C14.9802 12.8885 15 12.8294 15 12.7679V12.3036C15 12.242 14.9802 12.183 14.9451 12.1394C14.9099 12.0959 14.8622 12.0714 14.8125 12.0714Z" fill="black"/>
</svg>
