<svg width="15" height="15" viewBox="0 0 15 15" fill="none" xmlns="http://www.w3.org/2000/svg">
<path d="M5.63435 2.95573V5.78375L3.74968 6.66122C3.74637 6.49117 3.59051 6.35419 3.39841 6.35419H2.22656C2.03241 6.35419 1.875 6.49411 1.875 6.66669V7.53406L0.404062 8.21891C0.142324 8.35268 0 8.59422 0 8.83557L0 10.2464C0 10.7034 0.47792 11.0399 0.976494 10.9381L5.66748 10.2092C5.69845 10.7482 5.7503 11.2725 5.81892 11.7385L4.13607 12.5715L4.12298 12.5782C3.88389 12.7057 3.73538 12.9389 3.73538 13.1867V14.226C3.73538 14.6742 4.19678 15.0096 4.69028 14.9218L6.6547 14.5726C6.90097 14.8565 7.18433 15 7.50003 15C7.8157 15 8.09906 14.8565 8.34536 14.5726L10.3097 14.9218C10.8041 15.0097 11.2647 14.6733 11.2646 14.2259L11.2646 13.1866C11.2645 12.9388 11.116 12.7057 10.877 12.5782L9.18108 11.7385C9.2497 11.2726 9.30155 10.7483 9.33252 10.2092L14.0235 10.9381C14.5223 11.04 15 10.7032 15 10.2464V8.83557C15 8.60112 14.8678 8.36651 14.6082 8.22474L13.125 7.53414V6.66667C13.125 6.49409 12.9676 6.35417 12.7734 6.35417H11.6016C11.4094 6.35417 11.2536 6.4912 11.2503 6.66128L9.36557 5.78375L9.36562 2.95573C9.36562 1.69625 8.88627 0 7.5 0C6.10541 0 5.63435 1.71281 5.63435 2.95573ZM8.42812 2.95573L8.4281 6.30055L14.0625 8.91018V10.0982L8.4334 9.22354C8.39379 10.4041 8.36801 10.9728 8.1593 12.1865L10.3271 13.2596L10.3271 14.0751L7.50003 13.5677L4.67285 14.0751V13.2596L6.8407 12.1865C6.6307 10.9654 6.60583 10.3933 6.5666 9.22357L0.9375 10.0982L0.9375 8.91018L6.57185 6.30055V2.95573C6.57185 2.10904 6.88532 0.833333 7.5 0.833333C8.17978 0.833333 8.42812 2.29562 8.42812 2.95573Z" fill="black"/>
</svg>
