<svg width="14" height="14" viewBox="0 0 14 14" fill="none" xmlns="http://www.w3.org/2000/svg">
<path d="M14 9.87831V1.5C14 0.671562 13.3284 0 12.5 0H1.5C0.671562 0 0 0.671562 0 1.5V12.4996C0 13.3281 0.671562 13.9996 1.5 13.9996H9.87869C10.2765 13.9996 10.658 13.8416 10.9393 13.5603L13.5607 10.939C13.842 10.6577 14 10.2761 14 9.87831ZM10.2322 12.8532C10.1682 12.9172 10.0879 12.9626 10 12.9843V9.99963H12.9847C12.963 10.0875 12.9176 10.1678 12.8536 10.2318L10.2322 12.8532ZM13 1.5V8.99963H9.75C9.33578 8.99963 9 9.33541 9 9.74963V12.9996H1.5C1.22384 12.9996 1 12.7758 1 12.4996V1.5C1 1.22384 1.22384 1 1.5 1H12.5C12.7762 1 13 1.22384 13 1.5Z" fill="black"/>
</svg>
