<svg width="15" height="15" viewBox="0 0 15 15" fill="none" xmlns="http://www.w3.org/2000/svg">
<path d="M0 13.125V1.875H0.527344V13.125H0ZM0.786826 13.117V1.875H1.05469V13.117H0.786826ZM1.58203 13.117V1.875H1.84151V13.117H1.58203ZM2.8962 13.117V1.875H3.15568V13.117H2.8962ZM3.95089 13.117V1.875H4.46985V13.117H3.95089ZM5.26506 13.117V1.875H5.52454V13.117H5.26506ZM5.7924 13.117V1.875H6.05188V13.117H5.7924ZM6.31975 13.117V1.875H6.57923V13.117H6.31975ZM7.36608 13.117V1.875H7.89343V13.117H7.36608ZM8.68025 13.117V1.875H9.2076V13.117H8.68025ZM9.73491 13.117V1.875H10.2623V13.117H9.73491ZM10.7896 13.117V1.875H11.317V13.117H10.7896ZM11.5765 13.117V1.875H12.1038V13.117H11.5765ZM12.899 13.117V1.875H13.6858V13.117H12.899ZM13.9453 13.117V1.875H14.2132V13.117H13.9453ZM14.4727 13.125V1.875H15V13.125H14.4727Z" fill="black"/>
</svg>
