<svg width="15" height="15" viewBox="0 0 15 15" fill="none" xmlns="http://www.w3.org/2000/svg">
<path d="M14.6221 8.80877L13.5976 8.2394C13.662 7.74842 13.662 7.25158 13.5976 6.7606L14.6221 6.19123C14.923 6.02406 15.0681 5.68008 14.9691 5.35955C14.6168 4.21794 13.9897 3.19035 13.1616 2.3476C12.9217 2.10355 12.539 2.05014 12.2367 2.2181L11.2137 2.78659C10.8045 2.48682 10.3576 2.23808 9.88358 2.04627V0.908745C9.88358 0.572152 9.64317 0.279591 9.30287 0.202081C8.1202 -0.0673451 6.88005 -0.0673753 5.69713 0.202081C5.35686 0.279591 5.11642 0.572122 5.11642 0.908745V2.04627C4.64238 2.23807 4.19545 2.48682 3.78626 2.78659L2.76326 2.2181C2.46099 2.05014 2.07824 2.10355 1.83844 2.3476C1.01028 3.19035 0.383168 4.21797 0.030858 5.35955C-0.0680741 5.68008 0.077041 6.02402 0.37789 6.19123L1.4024 6.7606C1.33799 7.25158 1.33799 7.74842 1.4024 8.2394L0.37789 8.80877C0.077041 8.97594 -0.0680741 9.31992 0.030858 9.64045C0.383168 10.782 1.01028 11.8096 1.83844 12.6524C2.07827 12.8965 2.46103 12.9499 2.76326 12.7819L3.78626 12.2134C4.19544 12.5132 4.64238 12.7619 5.11642 12.9537V14.0913C5.11642 14.4278 5.35683 14.7204 5.69713 14.7979C6.87983 15.0673 8.11995 15.0674 9.30287 14.7979C9.64314 14.7204 9.88358 14.4279 9.88358 14.0913V12.9537C10.3576 12.7619 10.8045 12.5132 11.2137 12.2134L12.2367 12.7819C12.539 12.9499 12.9217 12.8965 13.1616 12.6524C13.9897 11.8096 14.6168 10.782 14.9691 9.64045C15.0681 9.31992 14.923 8.97598 14.6221 8.80877ZM12.565 11.8469L11.1101 11.0382C10.2622 11.7359 9.96149 11.9115 8.87823 12.2799V13.8973C7.96898 14.0778 7.03102 14.0778 6.12177 13.8973V12.2799C5.0655 11.9207 4.75968 11.7539 3.88993 11.0382L2.43504 11.8469C1.81581 11.1789 1.34522 10.3956 1.05493 9.54979L2.51044 8.74112C2.30513 7.67004 2.30504 7.33051 2.51044 6.25888L1.05493 5.45021C1.34522 4.60438 1.81585 3.82111 2.43504 3.15276L3.88993 3.96204C4.75004 3.25335 5.05434 3.08305 6.12177 2.72003V1.10275C7.03098 0.921901 7.96901 0.921901 8.87823 1.10275V2.72006C9.94572 3.08311 10.2501 3.25344 11.1101 3.96207L12.565 3.15279C13.1842 3.82111 13.6548 4.60438 13.9451 5.45024L12.4896 6.25891C12.6949 7.33027 12.695 7.66952 12.4896 8.74115L13.9451 9.54982C13.6548 10.3956 13.1842 11.1789 12.565 11.8469ZM7.5 4.59678C5.83694 4.59678 4.48397 5.89916 4.48397 7.50001C4.48397 9.10087 5.83694 10.4032 7.5 10.4032C9.16306 10.4032 10.516 9.10087 10.516 7.50001C10.516 5.89916 9.16306 4.59678 7.5 4.59678ZM7.5 9.4355C6.39129 9.4355 5.48931 8.56726 5.48931 7.50001C5.48931 6.43278 6.39129 5.56453 7.5 5.56453C8.60871 5.56453 9.51069 6.43278 9.51069 7.50001C9.51069 8.56726 8.60871 9.4355 7.5 9.4355Z" fill="black"/>
</svg>
