<svg width="15" height="14" viewBox="0 0 15 14" fill="none" xmlns="http://www.w3.org/2000/svg">
<path d="M14.6875 5.00002H12.6855L9.05971 0.165565C8.90581 -0.039684 8.64234 -0.0563402 8.47128 0.128409C8.30021 0.313159 8.28635 0.629283 8.44031 0.834532L11.5645 5.00002H3.43555L6.55971 0.834501C6.71367 0.629283 6.69979 0.313096 6.52875 0.128378C6.35768 -0.0563716 6.09422 -0.0397465 5.94031 0.165534L2.31445 5.00002H0.3125C0.139922 5.00002 0 5.16793 0 5.37502V5.62502C0 5.83211 0.139922 6.00002 0.3125 6.00002H0.740729L1.51693 12.7063C1.60276 13.4479 2.13115 14 2.75505 14H12.2449C12.8689 14 13.3972 13.4479 13.4831 12.7063L14.2593 6.00002H14.6875C14.8601 6.00002 15 5.83211 15 5.62502V5.37502C15 5.16793 14.8601 5.00002 14.6875 5.00002ZM12.6577 12.5688C12.6292 12.8146 12.4518 13 12.2449 13H2.75505C2.54823 13 2.37081 12.8146 2.34234 12.5688L1.58208 6.00002H13.4179L12.6577 12.5688V12.5688ZM7.91667 7.75002V11.25C7.91667 11.5262 7.73013 11.75 7.5 11.75C7.2699 11.75 7.08333 11.5262 7.08333 11.25V7.75002C7.08333 7.47386 7.2699 7.25002 7.5 7.25002C7.73013 7.25002 7.91667 7.47386 7.91667 7.75002ZM10.8333 7.75002V11.25C10.8333 11.5262 10.6468 11.75 10.4167 11.75C10.1865 11.75 10 11.5262 10 11.25V7.75002C10 7.47386 10.1865 7.25002 10.4167 7.25002C10.6468 7.25002 10.8333 7.47386 10.8333 7.75002ZM5 7.75002V11.25C5 11.5262 4.81344 11.75 4.58333 11.75C4.35323 11.75 4.16667 11.5262 4.16667 11.25V7.75002C4.16667 7.47386 4.35323 7.25002 4.58333 7.25002C4.81344 7.25002 5 7.47386 5 7.75002Z" fill="black"/>
</svg>
