<svg width="31" height="31" viewBox="0 0 31 31" fill="none" xmlns="http://www.w3.org/2000/svg">
<path fill-rule="evenodd" clip-rule="evenodd" d="M24.2879 15.4707C24.2879 16.0055 24.2375 16.5403 24.1416 17.0629C24.5713 17.8338 24.7999 18.7056 24.7999 19.5926C24.7999 20.9814 24.2594 22.2875 23.2771 23.2689C22.295 24.2516 20.9899 24.7915 19.6013 24.7915C18.7019 24.7915 17.8212 24.5576 17.0433 24.1175C16.5384 24.2071 16.0212 24.2542 15.505 24.2542C14.3196 24.2542 13.169 24.0219 12.0864 23.563C11.0398 23.1216 10.1011 22.4877 9.29408 21.6813C8.48777 20.8747 7.85444 19.936 7.41268 18.8897C6.95404 17.8067 6.72188 16.6567 6.72188 15.4707C6.72188 14.963 6.76758 14.4546 6.85414 13.957C6.42743 13.1892 6.19995 12.3201 6.19995 11.4362C6.19995 10.0474 6.74104 8.74154 7.72289 7.75955C8.70488 6.77713 10.0107 6.23633 11.3995 6.23633C12.2503 6.23633 13.0906 6.44848 13.8379 6.84582C13.8386 6.84568 13.8393 6.84561 13.84 6.84554C13.8407 6.84547 13.8414 6.8454 13.842 6.84525C14.3867 6.74066 14.9464 6.68816 15.5052 6.68816C16.6907 6.68816 17.841 6.92032 18.9234 7.37839C19.9689 7.82086 20.9088 8.45376 21.7147 9.26036C22.5217 10.0668 23.1548 11.0061 23.5973 12.0521C24.0559 13.135 24.2879 14.2851 24.2879 15.4707ZM11.0238 18.166C11.0238 19.3157 12.4197 20.8497 15.54 20.8497C18.509 20.8497 19.98 19.4188 19.9798 17.5025C19.9798 16.265 19.4094 14.9513 17.1591 14.4499L15.1049 13.994C14.3238 13.816 13.4242 13.5807 13.4242 12.8439C13.4242 12.1059 14.0551 11.5901 15.1942 11.5901C16.5408 11.5901 17.0253 12.1329 17.4258 12.5817C17.708 12.8979 17.9486 13.1673 18.4196 13.1673C19.0194 13.1673 19.5443 12.8148 19.5443 12.2086C19.5443 10.7938 17.28 9.73221 15.3592 9.73221C13.274 9.73221 11.0536 10.6177 11.0536 12.9759C11.0536 14.1117 11.4592 15.3201 13.6943 15.8806L16.4696 16.5734C17.3094 16.7804 17.5197 17.2528 17.5197 17.6791C17.5197 18.3878 16.8154 19.0803 15.54 19.0803C14.1017 19.0803 13.609 18.4413 13.1925 17.901C12.8876 17.5055 12.6236 17.163 12.0592 17.163C11.4592 17.163 11.0238 17.5764 11.0238 18.166Z" fill="white"/>
</svg>
