<svg width="31" height="31" viewBox="0 0 31 31" fill="none" xmlns="http://www.w3.org/2000/svg">
<rect width="31" height="31" fill="#00E1A0"/>
<path d="M24.1416 17.0629C24.2375 16.5403 24.2879 16.0055 24.2879 15.4707C24.2879 14.2851 24.0559 13.135 23.5973 12.0521C23.1548 11.0061 22.5217 10.0668 21.7147 9.26036C20.9088 8.45376 19.9688 7.82086 18.9234 7.37839C17.841 6.92032 16.6907 6.68816 15.5052 6.68816C14.9464 6.68816 14.3867 6.74066 13.842 6.84525C13.8409 6.84553 13.8393 6.84553 13.8379 6.84582C13.0906 6.44848 12.2503 6.23633 11.3995 6.23633C10.0107 6.23633 8.70488 6.77713 7.72289 7.75955C6.74104 8.74154 6.19995 10.0474 6.19995 11.4362C6.19995 12.3201 6.42743 13.1892 6.85414 13.957C6.76758 14.4546 6.72188 14.963 6.72188 15.4707C6.72188 16.6567 6.95404 17.8067 7.41268 18.8897C7.85444 19.936 8.48777 20.8747 9.29408 21.6813C10.1011 22.4877 11.0398 23.1216 12.0864 23.563C13.169 24.0219 14.3196 24.2542 15.505 24.2542C16.0212 24.2542 16.5384 24.2071 17.0433 24.1175C17.8212 24.5576 18.7019 24.7915 19.6013 24.7915C20.9899 24.7915 22.295 24.2516 23.2771 23.2689C24.2594 22.2875 24.7999 20.9814 24.7999 19.5926C24.7999 18.7056 24.5713 17.8338 24.1416 17.0629Z" fill="white"/>
<path d="M15.54 20.8497C12.4197 20.8497 11.0238 19.3157 11.0238 18.166C11.0238 17.5764 11.4592 17.163 12.0592 17.163C13.3945 17.163 13.0487 19.0803 15.54 19.0803C16.8154 19.0803 17.5197 18.3878 17.5197 17.6791C17.5197 17.2528 17.3094 16.7804 16.4696 16.5734L13.6943 15.8806C11.4592 15.32 11.0536 14.1117 11.0536 12.9759C11.0536 10.6177 13.274 9.73218 15.3592 9.73218C17.28 9.73218 19.5443 10.7938 19.5443 12.2086C19.5443 12.8148 19.0194 13.1673 18.4196 13.1673C17.28 13.1673 17.4896 11.59 15.1942 11.59C14.0551 11.59 13.4242 12.1059 13.4242 12.8439C13.4242 13.5807 14.3238 13.816 15.1049 13.9939L17.1591 14.4499C19.4094 14.9512 19.9798 16.265 19.9798 17.5024C19.98 19.4187 18.509 20.8497 15.54 20.8497Z" fill="#00E1A0"/>
</svg>
