<svg width="15" height="13" viewBox="0 0 15 13" fill="none" xmlns="http://www.w3.org/2000/svg">
<path d="M10.75 6.5C10.3013 6.5 9.9375 6.86385 9.9375 7.3125C9.9375 7.76115 10.3013 8.125 10.75 8.125C11.1987 8.125 11.5625 7.76115 11.5625 7.3125C11.5625 6.86385 11.1987 6.5 10.75 6.5ZM12.7812 2.4375H12.375V2.03125C12.375 1.35814 11.8294 0.8125 11.1562 0.8125H3.4375C2.09129 0.8125 1 1.90379 1 3.25V9.75C1 11.0962 2.09129 12.1875 3.4375 12.1875H12.375C13.2726 12.1875 14 11.4601 14 10.5625V3.65625C14 2.98314 13.4544 2.4375 12.7812 2.4375ZM13.1875 10.5625C13.1875 11.0104 12.8229 11.375 12.375 11.375H3.4375C2.54146 11.375 1.8125 10.646 1.8125 9.75V3.25C1.8125 2.35396 2.54146 1.625 3.4375 1.625H11.1562C11.3802 1.625 11.5625 1.8073 11.5625 2.03125V2.4375H3.84375C3.6193 2.4375 3.4375 2.6193 3.4375 2.84375C3.4375 3.0682 3.6193 3.25 3.84375 3.25H12.7812C13.0052 3.25 13.1875 3.4323 13.1875 3.65625V10.5625Z" fill="black" stroke="black" stroke-width="0.2"/>
</svg>
