<svg width="120" height="60" viewBox="0 0 120 60" fill="none" xmlns="http://www.w3.org/2000/svg">
<rect width="120" height="60" fill="white"/>
<path d="M84.7504 31.3139V24.6234H82.0742V31.3139V31.4254C82.0742 31.4254 82.0742 31.6484 82.0742 31.9829C81.9627 32.2059 81.9627 32.5405 81.8512 32.875C81.7397 33.2095 81.5167 33.6555 81.1822 33.8786C81.0707 33.9901 80.8476 34.1016 80.7361 34.2131C80.5131 34.2131 80.2901 34.3246 79.9556 34.3246H79.8441C79.2865 34.3246 78.952 34.2131 78.6175 33.9901C78.506 33.7671 78.2829 33.6555 78.1714 33.321C77.9484 32.9865 77.8369 32.5405 77.7254 32.0944C77.7254 31.7599 77.7254 31.4254 77.7254 31.4254V31.3139V24.6234H75.0492V31.3139C75.0492 31.3139 75.0492 31.3139 75.0492 31.4254C75.0492 31.5369 75.0492 31.8714 75.1607 32.4289C75.1607 32.7635 75.2722 33.2095 75.3837 33.6555C75.7182 34.4361 76.0528 35.2167 76.8333 35.8857C77.1679 36.2202 77.6139 36.4433 78.1714 36.6663C78.6175 36.8893 79.175 37.0008 79.8441 37.0008H79.9556C81.0707 37.0008 81.9627 36.6663 82.7433 36.1087C83.1893 35.6627 83.6353 35.1052 83.8584 34.6591C84.3044 33.8786 84.5274 33.2095 84.6389 32.5405C84.7504 31.9829 84.7504 31.5369 84.7504 31.4254C84.7504 31.3139 84.7504 31.3139 84.7504 31.3139Z" fill="#0066B0"/>
<path d="M86.9807 36.8893H89.6569V24.6234H86.9807V36.8893Z" fill="#0066B0"/>
<path d="M97.797 24.6234H95.1208L91.218 36.8893H93.7827L94.4518 34.5476C94.4518 34.5476 97.4625 34.7706 99.0236 36.8893H101.588L97.797 24.6234ZM95.0093 32.5405L95.5668 30.7563C95.5668 30.7563 96.1244 28.5261 96.3474 27.4111C96.3474 27.4111 96.7934 29.4182 97.2395 30.8678C97.351 31.4254 97.6855 32.5405 98.02 33.6555C98.02 33.6555 97.0165 32.875 95.0093 32.5405Z" fill="#0066B0"/>
<path d="M62.7833 45.0296L70.8119 13.3611C70.8119 13.3611 60.6647 13.3611 59.1035 13.8072L39.1435 37.7815C39.1435 37.7815 37.5824 39.4541 35.9098 40.1232L20.5216 45.0296H62.7833Z" fill="url(#paint0_linear)"/>
<path d="M57.2079 29.4182C60.3301 31.2023 62.1143 33.9901 62.1143 33.9901V35.5512C63.3409 34.2131 64.0099 32.4289 64.0099 30.5333C64.0099 30.1988 64.0099 29.7527 64.0099 29.4182H57.2079Z" fill="#FCC303"/>
<path d="M59.9956 28.8606H63.8984C63.8984 28.7491 63.7869 28.6376 63.7869 28.5261H59.9956V28.8606Z" fill="#FCC303"/>
<path d="M51.6325 31.2024L51.1864 31.537V29.7528C54.4202 29.7528 55.6468 30.3104 55.6468 30.3104C54.9777 29.7528 53.4166 29.4183 53.4166 29.4183V27.9687H63.5639C62.5603 25.181 59.8841 23.1738 56.6503 23.1738C52.636 23.1738 49.2908 26.4076 49.2908 30.5334C49.2908 34.5477 52.636 37.893 56.6503 37.893C58.769 37.893 60.6646 37.0009 62.0027 35.6628C57.2079 30.7564 51.6325 31.2024 51.6325 31.2024Z" fill="url(#paint1_linear)"/>
<defs>
<linearGradient id="paint0_linear" x1="26.5804" y1="7.95075" x2="64.7354" y2="50.44" gradientUnits="userSpaceOnUse">
<stop stop-color="#26B7EA"/>
<stop offset="0.219608" stop-color="#26B7EA"/>
<stop offset="0.588235" stop-color="#0068B1"/>
<stop offset="1" stop-color="#0068B1"/>
</linearGradient>
<linearGradient id="paint1_linear" x1="48.0026" y1="28.3199" x2="64.9482" y2="32.7201" gradientUnits="userSpaceOnUse">
<stop stop-color="#FCF5AB"/>
<stop offset="0.14902" stop-color="#FCF5AB"/>
<stop offset="0.6" stop-color="#FCC303"/>
<stop offset="1" stop-color="#FCC303"/>
</linearGradient>
</defs>
</svg>
