<svg width="31" height="31" viewBox="0 0 31 31" fill="none" xmlns="http://www.w3.org/2000/svg">
<rect width="31" height="31" fill="#00E1A0"/>
<path d="M15.4444 6C10.2272 6 6 10.2272 6 15.4444C6 20.6617 10.2272 24.8889 15.4444 24.8889C20.6617 24.8889 24.8889 20.6617 24.8889 15.4444C24.8889 10.2272 20.6617 6 15.4444 6ZM18.9667 17.9198L18.205 18.8719C18.1551 18.9344 18.0933 18.9864 18.0232 19.025C17.9531 19.0636 17.8761 19.088 17.7965 19.0969C17.717 19.1057 17.6365 19.0988 17.5596 19.0765C17.4828 19.0543 17.4111 19.0171 17.3486 18.9671L14.797 17.0736C14.6188 16.9309 14.4749 16.7499 14.376 16.544C14.2771 16.3381 14.2258 16.1127 14.2258 15.8843V9.96057C14.2258 9.79897 14.29 9.64399 14.4043 9.52972C14.5185 9.41545 14.6735 9.35125 14.8351 9.35125H16.0538C16.2154 9.35125 16.3703 9.41545 16.4846 9.52972C16.5989 9.64399 16.6631 9.79897 16.6631 9.96057V15.4444L18.8719 17.0629C18.9344 17.113 18.9864 17.1748 19.025 17.2449C19.0636 17.3151 19.088 17.3921 19.0968 17.4717C19.1057 17.5513 19.0987 17.6318 19.0764 17.7087C19.054 17.7856 19.0168 17.8573 18.9667 17.9198Z" fill="white"/>
</svg>
