<?xml version="1.0" encoding="UTF-8"?>
<!DOCTYPE svg PUBLIC "-//W3C//DTD SVG 1.0//EN" "http://www.w3.org/TR/2001/REC-SVG-20010904/DTD/svg10.dtd">
<!-- Creator: CorelDRAW X7 -->
<svg xmlns="http://www.w3.org/2000/svg" xml:space="preserve" width="2669px" height="496px" version="1.0" style="shape-rendering:geometricPrecision; text-rendering:geometricPrecision; image-rendering:optimizeQuality; fill-rule:evenodd; clip-rule:evenodd"
viewBox="0 0 2669 496"
 xmlns:xlink="http://www.w3.org/1999/xlink">
 <defs>
  <style type="text/css">
   <![CDATA[
    .fil0 {fill:#004EFF;fill-rule:nonzero}
    .fil1 {fill:white;fill-rule:nonzero}
   ]]>
  </style>
 </defs>
 <g id="Слой_x0020_1">
  <metadata id="CorelCorpID_0Corel-Layer"/>
  <g id="_312732800">
   <path class="fil0" d="M383 52c0,24 -19,43 -42,43 -24,0 -43,-19 -43,-43 0,-23 19,-42 43,-42 23,0 42,19 42,42z"/>
   <path class="fil0" d="M979 274l-114 0 0 -148 -68 0 0 182c0,100 82,182 182,182l0 -68c-51,0 -94,-34 -109,-80l109 0 0 -68z"/>
   <path class="fil0" d="M483 274c15,-46 58,-80 109,-80 51,0 94,34 108,80l-217 0zm-290 148c-51,0 -94,-34 -109,-80l217 0c-14,46 -57,80 -108,80zm399 -296c-89,0 -163,64 -179,148l-39 0 0 -148 -67 0 0 148 -228 0 -43 0 -25 0 0 34c0,100 82,182 182,182 88,0 162,-64 178,-148l3 0 39 0c16,84 90,148 179,148 63,0 119,-33 152,-83l-57 -37c-20,31 -55,52 -95,52 -51,0 -94,-34 -109,-80l287 0c2,-11 3,-22 3,-34 0,-100 -81,-182 -181,-182z"/>
   <path class="fil1" d="M1768 422c-63,0 -114,-51 -114,-114 0,-63 51,-114 114,-114 63,0 114,51 114,114 0,63 -51,114 -114,114zm114 -296l0 41c-31,-26 -71,-41 -114,-41 -100,0 -181,82 -181,182 0,100 81,182 181,182 43,0 83,-15 114,-41l0 41 68 0 0 -364 -68 0z"/>
   <path class="fil1" d="M1186 274l-114 0 0 -148 -68 0 0 182c0,100 82,182 182,182l0 -68c-51,0 -94,-34 -109,-80l109 0 0 -68z"/>
   <path class="fil1" d="M1280 274c14,-46 57,-80 108,-80 51,0 94,34 109,80l-217 0zm108 -148c-100,0 -181,82 -181,182 0,100 81,182 181,182 64,0 120,-33 152,-83l-57 -37c-20,31 -55,52 -95,52 -51,0 -94,-34 -108,-80l287 0c2,-11 3,-22 3,-34 0,-100 -82,-182 -182,-182z"/>
   <path class="fil1" d="M2455 126c-61,0 -115,30 -148,77 -33,-47 -87,-77 -147,-77 -44,0 -83,15 -114,41l0 -41 -68 0 0 182 0 34 0 148 68 0 0 -148 0 -34c0,-63 51,-114 114,-114 62,0 113,51 113,114l0 34 0 148 68 0 0 -148 0 -34c0,-63 51,-114 114,-114 63,0 114,51 114,114l0 182 67 0 0 -182c0,-100 -81,-182 -181,-182z"/>
  </g>
 </g>
</svg>
