<svg width="18" height="18" viewBox="0 0 18 18" fill="none" xmlns="http://www.w3.org/2000/svg">
<path d="M9 0.28125C4.18359 0.28125 0.28125 4.18359 0.28125 9C0.28125 13.8164 4.18359 17.7188 9 17.7188C13.8164 17.7188 17.7188 13.8164 17.7188 9C17.7188 4.18359 13.8164 0.28125 9 0.28125ZM12.2516 11.2852L11.5485 12.1641C11.5023 12.2218 11.4453 12.2698 11.3806 12.3054C11.3159 12.3411 11.2448 12.3636 11.1713 12.3718C11.0979 12.3799 11.0236 12.3736 10.9527 12.353C10.8817 12.3324 10.8155 12.2981 10.7578 12.252L8.40234 10.504C8.23776 10.3722 8.10492 10.2051 8.01364 10.0151C7.92235 9.82503 7.87497 9.61689 7.875 9.40605V3.9375C7.875 3.78832 7.93426 3.64524 8.03975 3.53975C8.14524 3.43426 8.28832 3.375 8.4375 3.375H9.5625C9.71168 3.375 9.85476 3.43426 9.96025 3.53975C10.0657 3.64524 10.125 3.78832 10.125 3.9375V9L12.1641 10.4941C12.2218 10.5403 12.2698 10.5974 12.3055 10.6622C12.3411 10.7269 12.3636 10.798 12.3718 10.8715C12.3799 10.945 12.3735 11.0193 12.3528 11.0903C12.3322 11.1613 12.2978 11.2275 12.2516 11.2852Z" fill="#535659"/>
</svg>
