<svg width="23" height="17" viewBox="0 0 23 17" fill="none" xmlns="http://www.w3.org/2000/svg">
<path d="M18.5508 9.51172C17.2975 9.51172 16.32 9.11426 15.6182 8.31934C14.9235 7.52441 14.5762 6.42513 14.5762 5.02148C14.5762 3.52474 14.9378 2.37891 15.6611 1.58398C16.3916 0.781901 17.4229 0.380859 18.7549 0.380859C20.0153 0.380859 20.9785 0.771159 21.6445 1.55176C22.3177 2.33236 22.6543 3.4388 22.6543 4.87109C22.6543 6.28906 22.2891 7.41699 21.5586 8.25488C20.8353 9.09277 19.8327 9.51172 18.5508 9.51172ZM18.6689 1.83105C17.8955 1.83105 17.2904 2.10677 16.8535 2.6582C16.4238 3.20247 16.209 3.97591 16.209 4.97852C16.209 7.02669 17.0146 8.05078 18.626 8.05078C20.2087 8.05078 21 7.01953 21 4.95703C21 2.87305 20.223 1.83105 18.6689 1.83105ZM12.7715 16H10.5264L3.29688 3.79688C3.06771 3.40299 2.90299 3.08789 2.80273 2.85156H2.73828C2.79557 3.18099 2.82422 3.87565 2.82422 4.93555V16H1.01953V0.595703H3.38281L11.0098 13.626H11.0527C10.9954 13.2751 10.9668 12.5267 10.9668 11.3809V0.595703H12.7715V16ZM22.3213 12.584H14.8984V11.166H22.3213V12.584Z" fill="#535659"/>
<path d="M15.6182 8.31934L15.4299 8.48384L15.4308 8.4848L15.6182 8.31934ZM15.6611 1.58398L15.4763 1.41565L15.4762 1.41573L15.6611 1.58398ZM21.6445 1.55176L21.4543 1.71403L21.4552 1.71503L21.6445 1.55176ZM21.5586 8.25488L21.3701 8.0906L21.3694 8.09152L21.5586 8.25488ZM16.8535 2.6582L16.6576 2.50296L16.6573 2.50329L16.8535 2.6582ZM12.7715 16V16.25H13.0215V16H12.7715ZM10.5264 16L10.3113 16.1274L10.3839 16.25H10.5264V16ZM3.29688 3.79688L3.08078 3.9226L3.08179 3.9243L3.29688 3.79688ZM2.80273 2.85156L3.03288 2.75393L2.96824 2.60156H2.80273V2.85156ZM2.73828 2.85156V2.60156H2.44105L2.49198 2.8944L2.73828 2.85156ZM2.82422 16V16.25H3.07422V16H2.82422ZM1.01953 16H0.769531V16.25H1.01953V16ZM1.01953 0.595703V0.345703H0.769531V0.595703H1.01953ZM3.38281 0.595703L3.59857 0.469415L3.52616 0.345703H3.38281V0.595703ZM11.0098 13.626L10.794 13.7523L10.8664 13.876H11.0098V13.626ZM11.0527 13.626V13.876H11.3469L11.2995 13.5857L11.0527 13.626ZM10.9668 0.595703V0.345703H10.7168V0.595703H10.9668ZM12.7715 0.595703H13.0215V0.345703H12.7715V0.595703ZM22.3213 12.584V12.834H22.5713V12.584H22.3213ZM14.8984 12.584H14.6484V12.834H14.8984V12.584ZM14.8984 11.166V10.916H14.6484V11.166H14.8984ZM22.3213 11.166H22.5713V10.916H22.3213V11.166ZM18.5508 9.26172C17.3549 9.26172 16.4512 8.88517 15.8056 8.15387L15.4308 8.4848C16.1887 9.34334 17.2401 9.76172 18.5508 9.76172V9.26172ZM15.8064 8.15483C15.1631 7.41868 14.8262 6.38485 14.8262 5.02148H14.3262C14.3262 6.46541 14.6839 7.63015 15.4299 8.48384L15.8064 8.15483ZM14.8262 5.02148C14.8262 3.56247 15.1786 2.48575 15.846 1.75224L15.4762 1.41573C14.697 2.27206 14.3262 3.48701 14.3262 5.02148H14.8262ZM15.846 1.75232C16.5186 1.01379 17.4759 0.630859 18.7549 0.630859V0.130859C17.3698 0.130859 16.2647 0.550009 15.4763 1.41565L15.846 1.75232ZM18.7549 0.630859C19.9603 0.630859 20.8465 1.00161 21.4543 1.71402L21.8347 1.38949C21.1105 0.540712 20.0703 0.130859 18.7549 0.130859V0.630859ZM21.4552 1.71503C22.0763 2.43528 22.4043 3.47548 22.4043 4.87109H22.9043C22.9043 3.40212 22.5591 2.22944 21.8339 1.38849L21.4552 1.71503ZM22.4043 4.87109C22.4043 6.24578 22.051 7.30966 21.3702 8.0906L21.747 8.41917C22.5272 7.52432 22.9043 6.33235 22.9043 4.87109H22.4043ZM21.3694 8.09152C20.7013 8.86544 19.7727 9.26172 18.5508 9.26172V9.76172C19.8926 9.76172 20.9693 9.32011 21.7478 8.41825L21.3694 8.09152ZM18.6689 1.58105C17.8278 1.58105 17.147 1.88519 16.6576 2.50296L17.0495 2.81344C17.4338 2.32836 17.9632 2.08105 18.6689 2.08105V1.58105ZM16.6573 2.50329C16.1802 3.10758 15.959 3.94401 15.959 4.97852H16.459C16.459 4.00781 16.6674 3.29736 17.0497 2.81311L16.6573 2.50329ZM15.959 4.97852C15.959 6.02859 16.1644 6.86226 16.6167 7.43729C17.0781 8.02374 17.7637 8.30078 18.626 8.30078V7.80078C17.877 7.80078 17.354 7.56578 17.0097 7.12814C16.6564 6.67908 16.459 5.97662 16.459 4.97852H15.959ZM18.626 8.30078C19.4762 8.30078 20.1514 8.02037 20.6048 7.42954C21.0486 6.85124 21.25 6.01323 21.25 4.95703H20.75C20.75 5.96333 20.5557 6.6722 20.2082 7.12515C19.8702 7.56557 19.3584 7.80078 18.626 7.80078V8.30078ZM21.25 4.95703C21.25 3.89122 21.0526 3.04636 20.6176 2.4631C20.1724 1.86607 19.5075 1.58105 18.6689 1.58105V2.08105C19.3844 2.08105 19.885 2.31703 20.2168 2.762C20.5589 3.22073 20.75 3.93885 20.75 4.95703H21.25ZM12.7715 15.75H10.5264V16.25H12.7715V15.75ZM10.7415 15.8726L3.51196 3.66945L3.08179 3.9243L10.3113 16.1274L10.7415 15.8726ZM3.51296 3.67115C3.2857 3.28055 3.12707 2.97596 3.03288 2.75393L2.57259 2.9492C2.67891 3.19983 2.84972 3.52544 3.08079 3.9226L3.51296 3.67115ZM2.80273 2.60156H2.73828V3.10156H2.80273V2.60156ZM2.49198 2.8944C2.54491 3.19874 2.57422 3.87109 2.57422 4.93555H3.07422C3.07422 3.88021 3.04624 3.16324 2.98458 2.80873L2.49198 2.8944ZM2.57422 4.93555V16H3.07422V4.93555H2.57422ZM2.82422 15.75H1.01953V16.25H2.82422V15.75ZM1.26953 16V0.595703H0.769531V16H1.26953ZM1.01953 0.845703H3.38281V0.345703H1.01953V0.845703ZM3.16706 0.721991L10.794 13.7523L11.2255 13.4997L3.59857 0.469415L3.16706 0.721991ZM11.0098 13.876H11.0527V13.376H11.0098V13.876ZM11.2995 13.5857C11.246 13.2585 11.2168 12.5312 11.2168 11.3809H10.7168C10.7168 12.5222 10.7448 13.2917 10.806 13.6663L11.2995 13.5857ZM11.2168 11.3809V0.595703H10.7168V11.3809H11.2168ZM10.9668 0.845703H12.7715V0.345703H10.9668V0.845703ZM12.5215 0.595703V16H13.0215V0.595703H12.5215ZM22.3213 12.334H14.8984V12.834H22.3213V12.334ZM15.1484 12.584V11.166H14.6484V12.584H15.1484ZM14.8984 11.416H22.3213V10.916H14.8984V11.416ZM22.0713 11.166V12.584H22.5713V11.166H22.0713Z" fill="#535659"/>
</svg>
