<svg width="23" height="18" viewBox="0 0 23 18" fill="none" xmlns="http://www.w3.org/2000/svg">
<g clip-path="url(#clip0)">
<path d="M21.4959 9.68224C20.7051 9.03193 19.666 8.58009 18.491 8.37603L14.7709 7.72917L10.5992 1.52465C10.5044 1.38294 10.4179 1.23635 10.3289 1.09137C10.1912 0.86805 9.95737 0.709129 9.68566 0.661836C8.95003 0.53413 6.94031 0.162225 6.94031 0.162225C6.92979 0.163056 6.53437 0.177397 6.26396 0.520812C6.07928 0.755865 6.03578 1.11767 6.14495 1.38909L8.18453 6.5838L4.83476 6.00149L3.62424 3.70615C3.49243 3.45309 3.24038 3.27162 2.94989 3.22123C1.24106 2.92429 1.29997 2.92351 1.13359 2.93667C0.624654 2.97692 0.236846 3.40757 0.269552 3.89702L0.598226 7.65286C0.641818 8.05645 0.860745 8.42748 1.19932 8.67088L4.95088 11.3077C5.28987 11.5515 5.68969 11.7188 6.10683 11.7913L17.464 13.766C18.086 13.8741 18.6979 13.9058 19.2823 13.8596C19.8002 13.8186 20.2967 13.7162 20.758 13.5549C21.8917 13.1587 22.535 12.5978 22.6704 11.887C22.8057 11.1761 22.411 10.4345 21.4959 9.68224ZM21.4825 11.6963C21.4299 11.9727 21.0138 12.2659 20.3403 12.5012C19.2073 12.8969 18.0897 12.7289 17.691 12.6596L6.33387 10.6848C6.10246 10.6446 5.87941 10.5511 5.68979 10.4148L1.93823 7.77792C1.86053 7.72199 1.8082 7.63089 1.79774 7.53402L1.5048 4.11572L2.59274 4.3048L4.01364 7.0043L10.0712 8.05745L7.44689 1.39935L9.32123 1.74422L14.0257 8.74502L18.2639 9.48212C19.2264 9.64938 20.0672 10.0111 20.6963 10.5282C21.2506 10.9845 21.5377 11.4097 21.4825 11.6963Z" fill="black"/>
<path d="M0 16.0101C0 15.8444 0.134315 15.7101 0.3 15.7101H22.7C22.8657 15.7101 23 15.8444 23 16.0101V16.5585C23 16.7242 22.8657 16.8585 22.7 16.8585H0.3C0.134314 16.8585 0 16.7242 0 16.5585V16.0101Z" fill="black"/>
</g>
<defs>
<clipPath id="clip0">
<rect width="23" height="18" fill="white"/>
</clipPath>
</defs>
</svg>
