<svg width="23" height="18" viewBox="0 0 23 18" fill="none" xmlns="http://www.w3.org/2000/svg">
<path d="M2.8937 11.9278C3.0303 12.069 3.19489 12.1815 3.37741 12.2584C3.55994 12.3353 3.75657 12.3749 3.95529 12.375L8.52151 12.369C8.926 12.3679 9.32487 12.2764 9.68768 12.1015L19.8616 7.16872C20.9102 6.66036 21.7598 5.95301 22.3183 5.12333C22.9651 4.16461 23.1226 3.35567 22.7912 2.71864C22.3747 1.91497 21.2818 1.63723 20.1786 1.63723C19.2442 1.63723 18.2936 1.86961 17.3481 2.3277L14.0164 3.94489L6.51584 1.25403C6.37143 1.16909 6.20601 1.12447 6.03751 1.125C5.89479 1.12526 5.75403 1.15749 5.62603 1.21922L3.32603 2.33368C3.19243 2.39798 3.0772 2.49368 2.99066 2.61221C2.90411 2.73074 2.84894 2.86841 2.83009 3.0129C2.81116 3.17366 2.83988 3.33636 2.91284 3.48159C2.9858 3.62683 3.09991 3.74848 3.24157 3.83204L8.14812 6.78868L5.13117 8.25153L2.73126 7.09559C2.60358 7.03411 2.46317 7.00214 2.32086 7.00214C2.17854 7.00214 2.03813 7.03411 1.91045 7.09559L0.506372 7.77692C0.381973 7.83645 0.27325 7.92319 0.188621 8.03043C0.103992 8.13767 0.0457278 8.26252 0.0183409 8.39532C-0.00944654 8.52765 -0.0055088 8.66449 0.0298452 8.79508C0.0651992 8.92568 0.131008 9.04648 0.222107 9.14801L2.8937 11.9278ZM2.32157 8.15169L5.13261 9.50555L10.5211 6.89309L4.26004 3.137L6.03104 2.27848L14.0843 5.16551L17.8577 3.33739C18.6429 2.95665 19.4239 2.76364 20.1789 2.76364C20.7647 2.76364 21.592 2.8902 21.7684 3.23051C21.891 3.46641 21.7382 3.94278 21.3602 4.50528C20.9135 5.16868 20.2195 5.74172 19.3531 6.16184L9.17881 11.0932C8.97399 11.192 8.74878 11.2436 8.52043 11.244L3.95637 11.25C3.91421 11.25 3.87249 11.2417 3.83366 11.2257C3.79483 11.2096 3.75969 11.1861 3.73032 11.1565L1.31173 8.64176L2.32157 8.15169ZM22.7125 15.75H0.327044C0.250794 15.75 0.177668 15.7796 0.123751 15.8324C0.0698341 15.8851 0.0395441 15.9567 0.0395441 16.0313V16.5938C0.0395441 16.6683 0.0698341 16.7399 0.123751 16.7926C0.177668 16.8454 0.250794 16.875 0.327044 16.875H22.7125C22.7888 16.875 22.8619 16.8454 22.9158 16.7926C22.9697 16.7399 23 16.6683 23 16.5938V16.0313C23 15.9567 22.9697 15.8851 22.9158 15.8324C22.8619 15.7796 22.7888 15.75 22.7125 15.75Z" fill="black"/>
</svg>
