<svg width="23" height="18" viewBox="0 0 23 18" fill="none" xmlns="http://www.w3.org/2000/svg">
<g clip-path="url(#clip0)">
<path d="M22.4251 15.75H0.575041C0.257354 15.75 4.11215e-05 16.0017 4.11215e-05 16.3125V17.4375C4.11215e-05 17.7483 0.257354 18 0.575041 18H22.4251C22.7427 18 23.0001 17.7483 23.0001 17.4375V16.3125C23.0001 16.0017 22.7427 15.75 22.4251 15.75ZM2.89481 11.9978C3.1205 12.2382 3.43746 12.3747 3.76917 12.3743L8.46045 12.368C8.83068 12.3675 9.19558 12.2817 9.52564 12.1177L19.982 6.92684C20.943 6.44977 21.8044 5.7688 22.3906 4.87688C23.0486 3.87563 23.1201 3.15106 22.8603 2.63919C22.6011 2.12696 21.9712 1.75079 20.7669 1.67415C19.6942 1.60595 18.6272 1.88227 17.6662 2.35899L14.126 4.11645L6.26647 1.23153C6.17197 1.16926 6.06218 1.1328 5.94845 1.12594C5.83473 1.11908 5.72119 1.14206 5.61959 1.19251L3.2567 2.36567C2.87325 2.55587 2.78053 3.05649 3.0709 3.36868L8.68506 6.81751L4.97595 8.65899L2.37587 7.37684C2.28629 7.33266 2.18735 7.3097 2.08703 7.30983C1.98671 7.30995 1.88782 7.33315 1.79835 7.37755L0.356182 8.09368C-0.0190057 8.28001 -0.117834 8.76587 0.15601 9.08087L2.89481 11.9978Z" fill="#535659"/>
</g>
<defs>
<clipPath id="clip0">
<rect width="23" height="18" fill="white"/>
</clipPath>
</defs>
</svg>
