<svg width="23" height="18" viewBox="0 0 23 18" fill="none" xmlns="http://www.w3.org/2000/svg">
<g clip-path="url(#clip0)">
<path d="M22.425 15.7492H0.575C0.257312 15.7492 0 16.001 0 16.3117V17.4367C0 17.7475 0.257312 17.9992 0.575 17.9992H22.425C22.7427 17.9992 23 17.7475 23 17.4367V16.3117C23 16.001 22.7427 15.7492 22.425 15.7492ZM1.61036 7.22948L4.79945 10.042C5.06113 10.2731 5.37466 10.4409 5.71478 10.5317L16.0504 13.2862C17.002 13.5397 18.0112 13.5928 18.9613 13.334C20.0276 13.0433 20.5225 12.5883 20.6594 12.0786C20.797 11.5688 20.5972 10.9286 19.8195 10.1464C19.1267 9.4496 18.2257 8.99362 17.2741 8.74015L13.7698 7.8064L10.1631 1.06167C10.1089 0.857413 9.9493 0.697804 9.74409 0.64296L7.40492 0.0196399C7.02542 -0.0816101 6.65383 0.206671 6.66066 0.597609L8.38278 6.37062L4.70997 5.39187L3.71845 3.00546C3.64909 2.83355 3.50247 2.70417 3.32242 2.65636L1.89462 2.27562C1.52303 2.17648 1.15683 2.4514 1.15 2.8339L1.15827 6.4121C1.16509 6.72534 1.37497 7.02171 1.61036 7.22948Z" fill="#535659"/>
</g>
<defs>
<clipPath id="clip0">
<rect width="23" height="18" fill="white"/>
</clipPath>
</defs>
</svg>
