<svg width="46" height="18" viewBox="0 0 46 18" fill="none" xmlns="http://www.w3.org/2000/svg">
<path d="M42 0C39.7896 0 38 1.67996 38 3.75C38 5.13901 38.4998 5.57307 41.1515 9.55907C41.5428 10.1473 42.4576 10.1466 42.8485 9.55907C45.5016 5.57098 46 5.13873 46 3.75C46 1.67779 44.208 0 42 0ZM42 9.0625C39.3453 5.072 39 4.82008 39 3.75C39 2.1967 40.3431 0.9375 42 0.9375C43.6569 0.9375 45 2.1967 45 3.75C45 4.81549 44.684 5.02783 42 9.0625ZM40.3333 3.75C40.3333 2.88705 41.0795 2.1875 42 2.1875C42.9205 2.1875 43.6667 2.88705 43.6667 3.75C43.6667 4.61295 42.9205 5.3125 42 5.3125C41.0795 5.3125 40.3333 4.61295 40.3333 3.75Z" fill="#535659"/>
<path d="M4 7.99979C1.78965 7.99979 0 9.67975 0 11.7498C0 13.1388 0.499812 13.5729 3.15148 17.5589C3.54283 18.1471 4.4576 18.1464 4.8485 17.5589C7.50156 13.5708 8 13.1385 8 11.7498C8 9.67758 6.20804 7.99979 4 7.99979ZM4 17.0623C1.34533 13.0718 1 12.8199 1 11.7498C1 10.1965 2.34315 8.93729 4 8.93729C5.65685 8.93729 7 10.1965 7 11.7498C7 12.8153 6.68404 13.0276 4 17.0623ZM2.33333 11.7498C2.33333 10.8868 3.07952 10.1873 4 10.1873C4.92048 10.1873 5.66667 10.8868 5.66667 11.7498C5.66667 12.6127 4.92048 13.3123 4 13.3123C3.07952 13.3123 2.33333 12.6127 2.33333 11.7498Z" fill="#535659"/>
<path d="M30.5179 7.40233C30.7139 7.08241 30.7782 6.78272 30.709 6.5117L30.6972 6.46553C30.6298 6.20173 30.438 5.97457 30.1272 5.79031C29.4409 5.38339 28.3389 5.29382 27.7403 5.46554C27.3071 5.5898 26.7808 5.74828 26.1976 5.93037L22.2733 2.26519C22.2393 2.23341 22.1996 2.20396 22.1555 2.17781C21.9646 2.06462 21.7069 2.02167 21.5143 2.07097L20.6359 2.29538C20.4946 2.33145 20.3881 2.42086 20.3438 2.54059C20.2995 2.66038 20.3221 2.79757 20.4058 2.91691L23.2053 6.90914C22.4531 7.166 21.6978 7.43239 20.9877 7.69433C20.4934 7.87665 20.0379 8.05047 19.6216 8.21537L17.5091 6.65937C17.3929 6.57365 17.1981 6.53622 17.0592 6.57177L16.4818 6.71932C16.3895 6.74286 16.3166 6.80326 16.2818 6.88504C16.2471 6.96681 16.2541 7.06118 16.3012 7.14408L17.4537 9.17371C16.5218 9.6625 16.4268 9.90879 16.4757 10.1001L16.4875 10.1463C16.5079 10.2262 16.5616 10.2924 16.647 10.343C16.829 10.4509 17.228 10.4927 17.7757 10.4853L17.739 12.7702C17.7374 12.8791 17.7887 12.9752 17.8763 13.0272C17.942 13.0661 18.0219 13.0764 18.1013 13.0561L18.6786 12.9086C18.8188 12.8728 18.9705 12.7469 19.0314 12.6158L20.1112 10.2952C21.2895 10.1514 22.6254 9.94198 23.903 9.72033L23.3686 14.5094C23.3494 14.6808 23.4162 14.8295 23.5471 14.9071C23.6378 14.9609 23.752 14.9742 23.8687 14.9444L24.7471 14.7199C24.9897 14.6578 25.2413 14.4231 25.3198 14.1853L26.985 9.14532C27.651 9.01226 28.2089 8.89449 28.5946 8.80781C29.187 8.67459 30.0909 8.09936 30.5179 7.40233Z" fill="#535659"/>
<circle cx="10" cy="14" r="1" fill="#535659"/>
<circle cx="14" cy="12" r="1" fill="#535659"/>
<circle cx="38" cy="8" r="1" fill="#535659"/>
<circle cx="34" cy="7" r="1" fill="#535659"/>
</svg>
